<?xml version="1.0" standalone="no"?>
<!DOCTYPE svg PUBLIC "-//W3C//DTD SVG 1.1//EN" "http://www.w3.org/Graphics/SVG/1.1/DTD/svg11.dtd" >
<svg xmlns="http://www.w3.org/2000/svg">
<metadata></metadata>
<defs>
<font id="brother_1816_webbold_italic" horiz-adv-x="535" >
<font-face units-per-em="1000" ascent="800" descent="-200" />
<missing-glyph horiz-adv-x="257" />
<glyph horiz-adv-x="0" />
<glyph horiz-adv-x="0" />
<glyph unicode=" "  horiz-adv-x="257" />
<glyph unicode="&#x09;" horiz-adv-x="257" />
<glyph unicode="&#xa0;" horiz-adv-x="257" />
<glyph unicode="!" horiz-adv-x="340" d="M142 212l67 508h150l-94 -508h-123zM96 53q0 42 27 68t70 26q34 0 53 -18t19 -50q0 -41 -27.5 -67t-69.5 -26q-34 0 -53 18t-19 49z" />
<glyph unicode="&#x22;" horiz-adv-x="444" d="M120 428l36 305h136l-60 -305h-112zM338 428l36 305h136l-60 -305h-112z" />
<glyph unicode="#" horiz-adv-x="766" d="M144 431l32 110h134l52 179h118l-52 -179h133l53 179h117l-51 -179h132l-34 -110h-132l-43 -144h132l-32 -110h-132l-52 -177h-119l53 177h-133l-52 -177h-118l52 177h-134l31 110h135l42 144h-132zM395 431l-43 -144h133l42 144h-132z" />
<glyph unicode="$" horiz-adv-x="604" d="M74 27l24 148q83 -48 179 -54l41 175q-1 1 -4.5 2t-4.5 2q-86 32 -127.5 75t-41.5 115q0 106 78 172t201 71l28 119h54l-28 -120q85 -6 148 -34l-23 -142q-60 39 -156 44l-41 -178l13 -5q87 -36 130 -79t43 -113q0 -107 -77 -170.5t-210 -68.5l-28 -118h-53l27 119 q-106 8 -172 40zM434 200q0 44 -67 75l-36 -152q103 11 103 77zM293 517q0 -41 59 -73l36 153q-44 -8 -69.5 -29t-25.5 -51z" />
<glyph unicode="%" horiz-adv-x="838" d="M132 534q0 81 61.5 140.5t145.5 59.5q67 0 109 -44t42 -109q0 -81 -61.5 -140t-144.5 -59q-67 0 -109.5 43.5t-42.5 108.5zM227 542q0 -34 19.5 -54.5t50.5 -20.5q39 0 68.5 30t29.5 75q0 35 -19.5 56t-49.5 21q-41 0 -70 -30t-29 -77zM463 138q0 81 61.5 140.5 t145.5 59.5q66 0 108 -44t42 -109q0 -81 -61.5 -140t-144.5 -59q-67 0 -109 43.5t-42 108.5zM558 146q0 -34 19 -54.5t50 -20.5q40 0 69.5 30t29.5 75q0 35 -19.5 56t-50.5 21q-40 0 -69 -30t-29 -77zM116 0l627 720h89l-627 -720h-89z" />
<glyph unicode="&#x26;" horiz-adv-x="685" d="M554 362h128q-10 -138 -88 -234l103 -128h-164l-37 46q-88 -60 -201 -60q-117 0 -179 50t-62 127q0 129 173 215q-51 68 -51 140q0 87 71 151.5t165 64.5q75 0 126 -47t51 -112q0 -139 -178 -219l102 -126q35 59 41 132zM421 138l-131 162q-92 -46 -92 -111 q0 -38 31 -61.5t85 -23.5q58 0 107 34zM305 529q0 -39 41 -93q112 55 112 117q0 27 -18 45t-46 18q-35 0 -62 -25t-27 -62z" />
<glyph unicode="'" horiz-adv-x="216" d="M120 428l36 305h136l-60 -305h-112z" />
<glyph unicode="(" horiz-adv-x="345" d="M164 -67q-54 123 -54 307q0 298 190 547h150q-192 -255 -192 -539q0 -186 56 -315h-150z" />
<glyph unicode=")" horiz-adv-x="345" d="M295 787q54 -123 54 -307q0 -298 -190 -547h-150q192 255 192 539q0 186 -56 315h150z" />
<glyph unicode="*" horiz-adv-x="457" d="M496 683l20 -110l-125 -30l62 -94l-96 -63l-53 97l-82 -97l-77 63l92 94l-114 30l53 110l104 -46l12 118h113l-26 -118z" />
<glyph unicode="+" horiz-adv-x="642" d="M131 302l18 116h178l29 180h119l-29 -180h178l-18 -116h-178l-29 -180h-119l29 180h-178z" />
<glyph unicode="," horiz-adv-x="234" d="M202 58l-117 -208h-109l92 208h134z" />
<glyph unicode="-" horiz-adv-x="402" d="M75 224l19 117h322l-19 -117h-322z" />
<glyph unicode="." horiz-adv-x="246" d="M49 53q0 42 27 68t70 26q34 0 53 -18t19 -50q0 -41 -27.5 -67t-69.5 -26q-34 0 -53 18t-19 49z" />
<glyph unicode="/" horiz-adv-x="503" d="M-21 -67l503 854h156l-503 -854h-156z" />
<glyph unicode="0" horiz-adv-x="659" d="M87 290q0 119 46 220.5t129 162.5t184 61q112 0 176 -85.5t64 -218.5q0 -119 -46 -220.5t-129 -162.5t-183 -61q-113 0 -177 85.5t-64 218.5zM243 299q0 -78 28 -125t79 -47q79 0 129.5 85.5t50.5 209.5q0 78 -27.5 124.5t-78.5 46.5q-79 0 -130 -85.5t-51 -208.5z" />
<glyph unicode="1" horiz-adv-x="355" d="M136 720h248l-114 -720h-154l93 590h-94z" />
<glyph unicode="2" horiz-adv-x="526" d="M123 551l23 143q70 40 168 40q108 0 169 -58t61 -154q0 -28 -7 -56.5t-13.5 -50t-27 -52t-29.5 -45t-40.5 -49t-40.5 -44t-48 -49t-46 -46.5h225l-21 -130h-499q16 16 53 52.5t52.5 52l47 47t46 47t39.5 42.5t37.5 43t30.5 39t28 40t20.5 36.5t16.5 37.5q16 41 13 75 q-2 38 -30.5 59.5t-77.5 21.5q-79 0 -150 -42z" />
<glyph unicode="3" horiz-adv-x="496" d="M373 525q0 35 -28.5 54.5t-78.5 19.5q-81 0 -149 -32l21 133q74 34 176 34q105 0 164 -48t59 -126q0 -67 -43 -117.5t-105 -74.5q46 -15 76 -54.5t30 -95.5q0 -104 -86 -168t-213 -64q-105 0 -177 39l21 133q82 -37 164 -37q59 0 96.5 28t37.5 74q0 42 -37 65t-106 23 h-26l18 114h33q64 0 108.5 27.5t44.5 72.5z" />
<glyph unicode="4" horiz-adv-x="606" d="M488 0h-133l25 156h-350l331 564h149l-254 -437h147l26 167h130l-26 -167h90l-20 -127h-90z" />
<glyph unicode="5" horiz-adv-x="509" d="M41 28l22 134q53 -41 150 -41q64 0 107.5 36t43.5 94q0 45 -34.5 72.5t-90.5 27.5q-75 0 -138 -25l78 394h380l-21 -130h-247l-26 -137q26 7 58 7q89 0 144.5 -55t55.5 -147q0 -125 -88 -198.5t-223 -73.5q-105 0 -171 42z" />
<glyph unicode="6" horiz-adv-x="591" d="M401 477q93 0 148.5 -61t55.5 -148q0 -118 -90.5 -200t-215.5 -82q-100 0 -161.5 61.5t-61.5 158.5q0 70 35.5 149t91.5 147.5t116 124t117 93.5h191q-175 -115 -298 -263q30 20 72 20zM319 111q60 0 102.5 41.5t42.5 101.5q0 47 -29 77t-77 30q-61 0 -103.5 -41 t-42.5 -101q0 -48 29.5 -78t77.5 -30z" />
<glyph unicode="7" horiz-adv-x="507" d="M212 0h-159l345 590h-292l21 130h497z" />
<glyph unicode="8" horiz-adv-x="565" d="M221 367q-30 14 -61.5 55.5t-31.5 98.5q0 90 79 151.5t192 61.5q94 0 153 -47.5t59 -121.5q0 -40 -17.5 -76t-43.5 -60.5t-48.5 -39.5t-40.5 -22q35 -18 69 -60t34 -102q0 -92 -81.5 -155.5t-201.5 -63.5q-97 0 -157 45.5t-62 116.5q0 32 11 68q18 57 63 95.5t85 55.5z M211 190q0 -33 25.5 -54.5t64.5 -21.5q48 0 83 28.5t35 68.5q0 36 -26 63.5t-60 41.5q-46 -17 -84 -50t-38 -76zM273 516q0 -60 77 -96q109 45 109 117q0 30 -22.5 50.5t-57.5 20.5q-42 0 -74 -27t-32 -65z" />
<glyph unicode="9" horiz-adv-x="576" d="M303 243q-93 0 -148.5 61t-55.5 148q0 118 90.5 200t215.5 82q100 0 161.5 -61.5t61.5 -158.5q0 -70 -35.5 -149t-91.5 -147.5t-116 -124t-117 -93.5h-192q176 114 299 263q-33 -20 -72 -20zM386 610q-60 0 -103.5 -42t-43.5 -102q0 -47 29.5 -77t77.5 -30q61 0 103.5 41 t42.5 101q0 48 -29 78.5t-77 30.5z" />
<glyph unicode=":" horiz-adv-x="246" d="M107 420q0 41 27 67.5t70 26.5q33 0 52.5 -18.5t19.5 -49.5q0 -42 -27.5 -67.5t-69.5 -25.5q-34 0 -53 18t-19 49zM49 53q0 42 27 68t70 26q34 0 53 -18t19 -50q0 -41 -27.5 -67t-69.5 -26q-34 0 -53 18t-19 49z" />
<glyph unicode=";" horiz-adv-x="238" d="M202 58l-117 -208h-109l92 208h134zM99 420q0 41 27 67.5t70 26.5q34 0 53 -18.5t19 -49.5q0 -42 -27 -67.5t-70 -25.5q-34 0 -53 18t-19 49z" />
<glyph unicode="&#x3c;" horiz-adv-x="607" d="M110 360l513 286l-24 -154l-247 -132l205 -132l-24 -154z" />
<glyph unicode="=" horiz-adv-x="612" d="M147 406l19 118h445l-19 -118h-445zM114 196l19 118h445l-19 -118h-445z" />
<glyph unicode="&#x3e;" horiz-adv-x="607" d="M611 359l-512 -286l24 155l247 131l-205 132l24 155z" />
<glyph unicode="?" horiz-adv-x="474" d="M143 212l7 49q7 44 30.5 79t51.5 57t55 42t45.5 44.5t18.5 53.5q0 28 -19 46.5t-51 18.5q-75 0 -164 -51l22 136q84 47 175 47q82 0 136 -44.5t54 -119.5q0 -55 -21.5 -97.5t-53.5 -69.5t-64.5 -50t-58 -51t-30.5 -60l-4 -30h-129zM100 53q0 42 27 68t70 26q34 0 53 -18 t19 -50q0 -41 -27.5 -67t-69.5 -26q-34 0 -53 18t-19 49z" />
<glyph unicode="@" horiz-adv-x="898" d="M816 29l-20 -124q-50 -27 -127.5 -43.5t-156.5 -16.5q-177 0 -286.5 97t-109.5 253q0 193 145 325t363 132q131 0 194.5 -58t47.5 -157l-45 -288q-154 -69 -270 -69q-72 0 -123.5 39.5t-51.5 110.5q0 109 100 163.5t240 31.5l3 14q3 42 -28.5 64.5t-92.5 22.5 q-144 0 -241 -87t-97 -220q0 -110 74 -180t196 -70q72 0 150 16.5t136 43.5zM585 189q46 0 93 21l21 131q-83 14 -130.5 -12t-47.5 -77q0 -29 16.5 -46t47.5 -17z" />
<glyph unicode="A" horiz-adv-x="695" d="M-5 0l465 731h6l234 -731h-161l-38 127h-269l-76 -127h-161zM296 235h176q-38 137 -53 214q-4 -7 -51.5 -90.5t-71.5 -123.5z" />
<glyph unicode="B" horiz-adv-x="643" d="M547 378q41 -15 68 -54.5t27 -90.5q0 -109 -86 -171t-224 -62h-254l114 720h233q109 0 174 -44.5t65 -129.5q0 -60 -33.5 -104t-83.5 -64zM292 420h92q36 0 58 6q28 10 45 34.5t17 59.5q0 37 -23.5 57t-64.5 20h-96zM275 316l-31 -193h114q53 0 89.5 30t36.5 83 q0 38 -23.5 59t-61.5 21h-124z" />
<glyph unicode="C" horiz-adv-x="659" d="M732 684l-22 -141q-91 50 -191 50q-119 0 -198.5 -79t-79.5 -188q0 -86 53.5 -142.5t145.5 -56.5q110 0 217 50l-23 -143q-96 -48 -227 -48q-144 0 -233 91.5t-89 230.5q0 115 59.5 213t162.5 155.5t223 57.5t202 -50z" />
<glyph unicode="D" horiz-adv-x="741" d="M310 0h-232l114 720h230q162 0 255 -85t93 -223q0 -178 -129 -295t-331 -117zM400 591h-74l-74 -462h76q127 0 206 76.5t79 188.5q0 87 -56 142t-157 55z" />
<glyph unicode="E" horiz-adv-x="588" d="M556 0h-478l114 720h463l-20 -129h-309l-26 -164h262l-20 -124h-262l-28 -174h324z" />
<glyph unicode="F" horiz-adv-x="544" d="M611 591h-285l-28 -172h240l-20 -127h-240l-46 -292h-154l114 720h439z" />
<glyph unicode="G" horiz-adv-x="710" d="M670 41q-115 -55 -253 -55q-151 0 -242 91t-91 231q0 176 131.5 301t316.5 125q123 0 218 -49l-22 -142q-100 50 -208 50q-122 0 -200.5 -78.5t-78.5 -189.5q0 -87 53 -143t145 -56q55 0 100 14l31 192h147z" />
<glyph unicode="H" horiz-adv-x="761" d="M683 0h-154l48 301h-297l-48 -301h-154l114 720h154l-46 -291h297l46 291h154z" />
<glyph unicode="I" horiz-adv-x="310" d="M232 0h-154l114 720h154z" />
<glyph unicode="J" horiz-adv-x="406" d="M441 720l-82 -515q-34 -219 -245 -219q-63 0 -97 19l20 130q30 -18 73 -18q82 0 94 81l83 522h154z" />
<glyph unicode="K" horiz-adv-x="717" d="M346 720l-54 -340l334 340h182l-299 -297l65 -182q16 -44 24 -61.5t25 -35t40 -19.5q24 -4 56 2l-21 -132q-32 -9 -72 -9q-67 0 -105.5 36t-70.5 125l-65 173l-121 -117l-32 -203h-154l114 720h154z" />
<glyph unicode="L" horiz-adv-x="527" d="M509 0h-431l114 720h154l-94 -591h277z" />
<glyph unicode="M" horiz-adv-x="848" d="M456 199q-27 34 -76.5 98t-57.5 75l-33 33l-64 -405h-147l116 731h3l288 -346l398 346h3l-116 -731h-147l64 405l-43 -33q-95 -88 -188 -173z" />
<glyph unicode="N" horiz-adv-x="754" d="M674 -11h-5l-335 379l-40 41l-65 -409h-151l116 731h6l334 -379l39 -41l65 409h152z" />
<glyph unicode="O" horiz-adv-x="819" d="M84 308q0 173 130.5 299.5t310.5 126.5q144 0 233.5 -92.5t89.5 -230.5q0 -114 -59.5 -212.5t-161 -155.5t-220.5 -57q-145 0 -234 91.5t-89 230.5zM241 326q0 -85 51.5 -142t136.5 -57q108 0 185 79t77 187q0 85 -51.5 142.5t-136.5 57.5q-107 0 -184.5 -79.5 t-77.5 -187.5z" />
<glyph unicode="P" horiz-adv-x="608" d="M351 246h-80l-39 -246h-154l114 720h234q113 0 178 -52t65 -148q0 -129 -87.5 -201.5t-230.5 -72.5zM410 591h-84l-34 -215h88q59 0 95 32.5t36 92.5q0 44 -27 67t-74 23z" />
<glyph unicode="Q" horiz-adv-x="834" d="M92 309q0 113 59.5 211t161.5 156t220 58q144 0 233.5 -92.5t89.5 -230.5q0 -144 -92 -256.5t-233 -150.5q44 -49 109.5 -75.5t140.5 -26.5q62 0 119 11l-21 -134q-48 -13 -132 -13q-123 0 -227.5 60t-155.5 164q-123 15 -197.5 103.5t-74.5 215.5zM249 326 q0 -85 51.5 -142t136.5 -57q108 0 184.5 79t76.5 188q0 86 -51 142.5t-136 56.5q-107 0 -184.5 -79.5t-77.5 -187.5z" />
<glyph unicode="R" horiz-adv-x="645" d="M368 252h-99l-40 -252h-151l114 720h250q115 0 181 -52t66 -148q0 -91 -50 -154t-130 -91l28 -104q16 -59 71 -59q6 0 30 3l-19 -120q-27 -9 -67 -9q-59 0 -92 34t-57 116zM426 591h-103l-34 -215h107q62 0 99 32t37 93q0 43 -28.5 66.5t-77.5 23.5z" />
<glyph unicode="S" horiz-adv-x="554" d="M257 -14q-121 0 -208 41l24 148q82 -46 172 -52q37 -2 65 4q98 14 98 73q0 30 -29 52t-96 48q-85 33 -127 76t-42 114q0 110 84 177t214 67q107 0 183 -36l-23 -142q-67 44 -169 44q-60 0 -97.5 -23t-37.5 -60q0 -28 28 -51t93 -49q87 -36 129.5 -79t42.5 -113 q0 -111 -81.5 -175t-222.5 -64z" />
<glyph unicode="T" horiz-adv-x="577" d="M661 591h-202l-94 -591h-154l94 591h-201l20 129h557z" />
<glyph unicode="U" horiz-adv-x="738" d="M784 720l-73 -458q-20 -127 -111.5 -201.5t-232.5 -74.5t-209.5 74.5t-48.5 201.5l73 458h154l-70 -443q-11 -71 21 -110.5t102 -39.5q71 0 115.5 39.5t55.5 110.5l70 443h154z" />
<glyph unicode="V" horiz-adv-x="690" d="M816 720l-470 -731h-6l-239 731h168l61 -208q49 -170 60 -224q56 99 132 224l127 208h167z" />
<glyph unicode="W" horiz-adv-x="1014" d="M114 720h171l59 -245q23 -94 34 -163q8 13 33.5 58.5t38.5 67.5l55 91l112 186h6q94 -323 110 -403q71 124 224 408h172l-439 -731h-7l-90 322q-18 64 -23 86q-35 -62 -50 -86l-193 -322h-7z" />
<glyph unicode="X" horiz-adv-x="716" d="M632 720h172l-307 -357l197 -363h-173l-124 244l-202 -244h-173l311 363l-193 357h173l121 -239z" />
<glyph unicode="Y" horiz-adv-x="630" d="M91 720h173l118 -295l212 295h174l-332 -441l-44 -279h-154l44 279z" />
<glyph unicode="Z" horiz-adv-x="634" d="M25 0l442 591h-317l20 129h551l-442 -591h337l-20 -129h-571z" />
<glyph unicode="[" horiz-adv-x="385" d="M89 -67l136 854h230l-19 -119h-80l-98 -616h80l-19 -119h-230z" />
<glyph unicode="\" horiz-adv-x="503" d="M271 787l231 -854h-156l-231 854h156z" />
<glyph unicode="]" horiz-adv-x="385" d="M425 787l-136 -854h-230l19 119h80l98 616h-80l19 119h230z" />
<glyph unicode="^" horiz-adv-x="631" d="M628 295h-154l-80 196l-143 -197h-154l335 438z" />
<glyph unicode="_" horiz-adv-x="622" d="M40 0h542l-19 -117h-542z" />
<glyph unicode="`" horiz-adv-x="353" d="M345 734l58 -173h-131l-116 173h189z" />
<glyph unicode="a" horiz-adv-x="637" d="M353 388q-60 0 -101.5 -46t-41.5 -116q0 -51 27 -82.5t73 -31.5q55 0 99.5 43.5t44.5 118.5q0 54 -29 84t-72 30zM645 500l-79 -500h-136l4 46l8 33h-2q-24 -39 -74.5 -66t-105.5 -27q-85 0 -139 59t-54 159q0 138 82.5 224t195.5 86q54 0 95.5 -26t53.5 -64h2 q-1 14 4 34l9 42h136z" />
<glyph unicode="b" horiz-adv-x="637" d="M406 388q-56 0 -100.5 -43.5t-44.5 -118.5q0 -54 29.5 -84t72.5 -30q59 0 101 46t42 116q0 52 -27 83t-73 31zM70 0l114 720h150l-38 -238l-9 -41h2q26 31 70.5 52t96.5 21q85 0 139 -59t54 -159q0 -137 -82.5 -223.5t-196.5 -86.5q-54 0 -95 27t-53 66h-2q1 -13 -4 -33 l-10 -46h-136z" />
<glyph unicode="c" horiz-adv-x="485" d="M220 229q0 -51 31.5 -81.5t85.5 -30.5q73 0 139 41l-21 -135q-81 -37 -159 -37q-105 0 -166.5 62.5t-61.5 161.5q0 129 89 216.5t222 87.5q77 0 145 -36l-22 -136q-51 41 -123 41q-68 0 -113.5 -43t-45.5 -111z" />
<glyph unicode="d" horiz-adv-x="637" d="M680 720l-114 -720h-136l4 46l8 33h-2q-24 -39 -74 -66t-103 -27q-87 0 -141.5 59.5t-54.5 159.5q0 137 82 223t193 86q52 0 90.5 -21t55.5 -52h2q-1 13 3 41l38 238h149zM353 388q-60 0 -101.5 -46t-41.5 -116q0 -51 27 -82.5t73 -31.5q55 0 99.5 43.5t44.5 118.5 q0 54 -29 84t-72 30z" />
<glyph unicode="e" horiz-adv-x="549" d="M366 514q97 0 148.5 -56.5t51.5 -141.5q0 -33 -17 -97h-328q-4 -51 28.5 -79t93.5 -28q49 0 101 11.5t78 25.5l-21 -127q-74 -36 -192 -36q-113 0 -177.5 62.5t-64.5 162.5q0 126 89.5 214.5t209.5 88.5zM422 296q8 43 -11.5 71.5t-63.5 28.5q-43 0 -74 -28.5t-40 -71.5 h189z" />
<glyph unicode="f" horiz-adv-x="359" d="M99 500h71l7 45q14 87 76 138t161 51q41 0 65 -6l-20 -127q-16 7 -50 7q-39 0 -64.5 -20.5t-31.5 -59.5l-5 -28h117l-18 -117h-111l-96 -603h-149l96 603h-66z" />
<glyph unicode="g" horiz-adv-x="637" d="M56 -194l21 134q72 -43 165 -43q77 0 126 33t58 92q1 4 2.5 11.5t2 12t2 9t1.5 6.5l1 2h-2q-28 -34 -74 -55.5t-100 -21.5q-84 0 -138 59t-54 159q0 137 83 223.5t196 86.5q53 0 94.5 -26t53.5 -64h2v4q0 4 1 12.5t3 17.5l9 42h136l-70 -443q-5 -38 -11 -59 q-26 -114 -111.5 -173t-211.5 -59q-124 0 -185 40zM310 112q55 0 99.5 43.5t44.5 118.5q0 54 -29 84t-72 30q-59 0 -101 -46t-42 -116q0 -52 27 -83t73 -31z" />
<glyph unicode="h" horiz-adv-x="615" d="M184 720h147l-39 -248l-11 -55q31 38 78.5 67.5t102.5 29.5q85 0 121.5 -51t21.5 -150l-50 -313h-150l46 288q13 90 -54 90q-52 0 -90.5 -36t-47.5 -93l-39 -249h-150z" />
<glyph unicode="i" horiz-adv-x="290" d="M149 500h150l-79 -500h-150zM163 630q0 42 27 68t70 26q33 0 52 -18t19 -50q0 -41 -27.5 -67t-69.5 -26q-33 0 -52 18.5t-19 48.5z" />
<glyph unicode="j" horiz-adv-x="290" d="M299 500l-87 -550q-14 -89 -70 -136.5t-146 -47.5q-48 0 -70 11l20 129q17 -5 36 -5q72 0 84 76l83 523h150zM163 630q0 42 27 68t70 26q33 0 52 -18t19 -50q0 -41 -27.5 -67t-69.5 -26q-33 0 -52 18.5t-19 48.5z" />
<glyph unicode="k" horiz-adv-x="583" d="M641 500l-216 -220l55 -118q12 -27 25.5 -37.5t36.5 -10.5q21 0 48 8l-19 -120q-32 -16 -86 -16q-55 0 -85 24t-54 82l-46 105l-62 -65l-21 -132h-147l114 720h150l-66 -418l195 198h178z" />
<glyph unicode="l" horiz-adv-x="334" d="M91 143l91 577h149l-86 -544q-9 -62 40 -62q27 0 52 10l-20 -123q-35 -15 -97 -15q-69 0 -105.5 38t-23.5 119z" />
<glyph unicode="m" horiz-adv-x="922" d="M149 500h137l-5 -57q-1 -8 -3 -15.5t-4 -13t-2 -6.5h2q22 39 65.5 67.5t92.5 33.5q23 4 49 1q92 -13 108 -96q81 100 182 100q84 0 121 -51t21 -150l-50 -313h-150l46 291q14 87 -51 87q-106 0 -132 -159l-35 -219h-149l46 292q15 86 -50 86q-108 0 -133 -159l-35 -219 h-150z" />
<glyph unicode="n" horiz-adv-x="615" d="M149 500h137l-5 -57q-1 -8 -3 -15.5t-4 -13t-2 -6.5h2q24 40 76.5 73t111.5 33q85 0 121.5 -51t21.5 -150l-50 -313h-150l46 288q13 90 -54 90q-52 0 -90.5 -36t-47.5 -93l-39 -249h-150z" />
<glyph unicode="o" horiz-adv-x="596" d="M379 514q103 0 166 -63.5t63 -162.5q0 -127 -91.5 -214.5t-220.5 -87.5q-102 0 -165 63.5t-63 162.5q0 127 91.5 214.5t219.5 87.5zM316 112q61 0 105.5 45.5t44.5 114.5q0 52 -29.5 84t-77.5 32q-61 0 -105 -45.5t-44 -115.5q0 -52 29.5 -83.5t76.5 -31.5z" />
<glyph unicode="p" horiz-adv-x="637" d="M36 -220l114 720h136l-3 -42q-1 -9 -3.5 -17.5t-3.5 -12.5l-1 -4h2q24 38 73.5 64t102.5 26q87 0 141.5 -59.5t54.5 -159.5q0 -137 -82 -223t-193 -86q-52 0 -91 22t-54 55h-2q1 -14 -4 -42l-38 -241h-149zM363 112q60 0 101.5 46t41.5 116q0 51 -27 82.5t-73 31.5 q-55 0 -99.5 -43.5t-44.5 -118.5q0 -54 29.5 -84t71.5 -30z" />
<glyph unicode="q" horiz-adv-x="637" d="M310 112q55 0 99.5 43.5t44.5 118.5q0 54 -29 84t-72 30q-59 0 -101 -46t-42 -116q0 -52 27 -83t73 -31zM645 500l-114 -720h-149l38 241l10 42h-2q-27 -34 -72 -55.5t-97 -21.5q-84 0 -138 59t-54 159q0 137 83 223.5t196 86.5q53 0 94.5 -26t53.5 -64h2v4q0 4 1 12.5 t3 17.5l9 42h136z" />
<glyph unicode="r" horiz-adv-x="403" d="M67 0l79 500h136l-5 -49q-4 -30 -4 -33q71 96 163 96q26 0 32 -3l-23 -146q-12 6 -32 6q-58 0 -105.5 -45.5t-57.5 -112.5l-34 -213h-149z" />
<glyph unicode="s" horiz-adv-x="451" d="M306 148q0 17 -17.5 27t-60.5 24q-66 19 -101 50.5t-35 87.5q0 80 60 128.5t156 48.5q93 0 157 -31l-20 -128q-54 31 -121 37q-28 2 -46 -2q-48 -8 -48 -40q0 -28 70 -50q75 -22 109.5 -53.5t34.5 -84.5q0 -82 -63 -129t-169 -47q-97 0 -165 33l21 131q33 -19 78.5 -32.5 t81.5 -13.5q78 0 78 44z" />
<glyph unicode="t" horiz-adv-x="386" d="M84 500h72l24 150h145l-24 -150h133l-18 -117h-133l-32 -201q-6 -37 9.5 -54t43.5 -17q42 0 88 21l-20 -123q-48 -23 -130 -23q-66 0 -107 34.5t-38 107.5q1 6 2 23.5t3 27.5l33 204h-69z" />
<glyph unicode="u" horiz-adv-x="613" d="M542 0h-136l5 57q3 22 10 35h-2q-25 -40 -77.5 -73t-109.5 -33q-85 0 -121.5 51t-20.5 150l49 313h150l-45 -288q-14 -90 53 -90q51 0 89 36.5t47 92.5l39 249h149z" />
<glyph unicode="v" horiz-adv-x="509" d="M446 500h156l-301 -506h-94l-142 506h156q57 -244 65 -301q6 11 32 64.5t40 78.5z" />
<glyph unicode="w" horiz-adv-x="784" d="M515 497l31 -165q6 -32 20 -142q10 16 36 71t35 72l83 167h156l-289 -506h-97l-56 274l-141 -274h-98l-129 506h156q54 -299 55 -310l150 307h88z" />
<glyph unicode="x" horiz-adv-x="538" d="M606 500l-205 -240l134 -260h-164l-78 152l-124 -152h-165l210 246l-127 254h167l66 -153l115 153h171z" />
<glyph unicode="y" horiz-adv-x="550" d="M-22 -222l21 131q20 -10 57 -10q46 0 79 26t64 75l-127 500h164l31 -174q22 -120 29 -186q10 15 46 93t44 93l85 174h162l-272 -496q-118 -216 -274 -234q-34 -4 -64 -1q-36 4 -45 9z" />
<glyph unicode="z" horiz-adv-x="482" d="M476 118l-19 -118h-440l289 382h-208l18 118h423l-287 -382h224z" />
<glyph unicode="{" horiz-adv-x="380" d="M132 110l16 100q9 53 -11 76t-46 25l16 101q27 2 53.5 25t35.5 76l15 95q7 42 23.5 74t37.5 51.5t49 32t53.5 17t54.5 4.5h48l-19 -119h-25q-64 0 -76 -74l-16 -102q-9 -57 -37.5 -89.5t-56.5 -40.5v-1q26 -9 44 -40.5t9 -87.5l-15 -91q-7 -47 4.5 -68t45.5 -21h25 l-19 -120h-48q-35 0 -64.5 8t-55.5 26t-37.5 55t-3.5 88z" />
<glyph unicode="|" horiz-adv-x="344" d="M233 -67h-144l136 854h144z" />
<glyph unicode="}" horiz-adv-x="380" d="M362 610l-16 -100q-9 -53 10.5 -76t45.5 -25l-16 -101q-27 -2 -53 -25t-35 -76l-15 -95q-7 -42 -23.5 -74t-38 -51.5t-49 -32t-53.5 -17t-55 -4.5h-47l19 119h25q64 0 76 74l16 102q9 57 37.5 89.5t55.5 40.5v1q-25 9 -43 40.5t-9 87.5l15 91q7 47 -5 68t-45 21h-25 l19 120h47q36 0 65.5 -8t55.5 -26t37.5 -55t3.5 -88z" />
<glyph unicode="~" horiz-adv-x="564" d="M261 436q34 0 89 -18t89 -18q70 0 127 40l-18 -109q-18 -18 -54 -30t-76 -12q-34 0 -89.5 18t-89.5 18q-69 0 -126 -41l17 110q19 17 55.5 29.5t75.5 12.5z" />
<glyph unicode="&#xa1;" horiz-adv-x="340" d="M277 288l-67 -508h-150l94 508h123zM154 420q0 41 27 67.5t70 26.5q33 0 52.5 -18.5t19.5 -49.5q0 -42 -27.5 -67.5t-69.5 -25.5q-34 0 -53 18t-19 49z" />
<glyph unicode="&#xa2;" horiz-adv-x="546" d="M432 751h47l-20 -129q56 -6 112 -35l-22 -136q-44 37 -111 41l-42 -266q70 5 127 42l-21 -135q-63 -30 -126 -35l-21 -131h-47l20 129q-99 4 -156 66t-57 158q0 124 84.5 210.5t212.5 91.5zM268 338q0 -42 21.5 -71.5t59.5 -37.5l41 260q-54 -12 -88 -52.5t-34 -98.5z " />
<glyph unicode="&#xa3;" horiz-adv-x="619" d="M217 505q18 111 92.5 170t189.5 59q87 0 145 -23l-21 -132q-52 26 -125 26q-56 0 -92 -30t-44 -85l-13 -78h188l-16 -100h-188l-13 -86q-11 -67 -45 -102h289l-20 -124h-486q95 100 116 234l12 78h-77l16 100h77z" />
<glyph unicode="&#xa4;" horiz-adv-x="790" d="M491 603q63 0 108 -31l130 112l78 -92l-128 -111q17 -39 17 -87q0 -72 -53 -143l92 -111l-106 -92l-97 111q-55 -30 -117 -30q-60 0 -109 30l-129 -111l-78 92l127 111q-16 35 -16 85q0 77 53 146l-92 110l106 92l95 -112q54 31 119 31zM436 256q50 0 89 37t39 87 q0 41 -26 68.5t-67 27.5q-51 0 -90 -36.5t-39 -87.5q0 -41 26.5 -68.5t67.5 -27.5z" />
<glyph unicode="&#xa5;" horiz-adv-x="726" d="M147 720h174l107 -295l202 295h174l-170 -233h99l-15 -95h-153l-47 -64h159l-15 -95h-187l-37 -233h-154l37 233h-187l15 95h159l-26 64h-153l15 95h98z" />
<glyph unicode="&#xa6;" horiz-adv-x="344" d="M315 446h-144l54 341h144zM233 -67h-144l54 341h144z" />
<glyph unicode="&#xa7;" horiz-adv-x="625" d="M671 710q-3 -20 -9 -61t-9 -61q-59 33 -125 45q-50 -23 -50 -83q0 -38 37 -144l48 -133q26 -73 26 -130q0 -108 -85.5 -172.5t-217.5 -64.5t-227 49q3 20 9 61t9 61q57 -33 125 -45q23 10 36.5 32t13.5 50q0 37 -37 145l-48 133q-26 72 -26 129q0 108 85 173t218 65 q132 0 227 -49zM459 140q0 46 -21 101l-68 181q-28 73 -28 117q0 62 51 100q-59 -7 -90.5 -37t-31.5 -78q0 -46 21 -100l63 -163q33 -86 33 -136q0 -62 -52 -99q60 7 91.5 37t31.5 77z" />
<glyph unicode="&#xa8;" horiz-adv-x="468" d="M141 630q0 42 27 68t70 26q33 0 52 -18t19 -50q0 -41 -27.5 -67t-69.5 -26q-33 0 -52 18.5t-19 48.5zM364 630q0 42 27 68t70 26q33 0 52 -18t19 -50q0 -41 -27.5 -67t-69.5 -26q-33 0 -52 18.5t-19 48.5z" />
<glyph unicode="&#xa9;" horiz-adv-x="828" d="M102 309q0 113 60 211.5t158 155t208 56.5q136 0 224 -92t88 -230q0 -114 -60.5 -212t-159.5 -154t-210 -56q-135 0 -221.5 91.5t-86.5 229.5zM188 320q0 -107 66 -177t170 -70q131 0 230.5 96.5t99.5 229.5q0 106 -67.5 177t-172.5 71q-130 0 -228 -96.5t-98 -230.5z M438 147q-78 0 -126 51t-48 131q0 102 71 173t171 71q65 0 119 -35l-16 -104q-44 38 -106 38q-54 0 -91.5 -37.5t-37.5 -91.5q0 -42 25 -68.5t67 -26.5q62 0 121 39l-16 -105q-80 -35 -133 -35z" />
<glyph unicode="&#xaa;" horiz-adv-x="398" d="M142 600l17 107q65 27 147 27q89 0 128 -40.5t28 -114.5l-39 -244h-109l2 28q6 30 9 34v1q-18 -27 -53 -51t-82 -24q-46 0 -76 25.5t-30 72.5q0 68 57.5 108t144.5 40q29 0 54 -5q7 39 -9.5 54.5t-60.5 15.5q-70 0 -128 -34zM329 503q-19 4 -38 4q-44 0 -68 -16.5 t-24 -42.5q0 -33 39 -33q33 0 58.5 25t32.5 63z" />
<glyph unicode="&#xab;" horiz-adv-x="654" d="M448 500l-205 -250l126 -250h-161l-118 250l197 250h161zM693 500l-204 -250l125 -250h-160l-118 250l197 250h160z" />
<glyph unicode="&#xac;" horiz-adv-x="647" d="M131 302l18 116h480l-42 -266h-118l24 150h-362z" />
<glyph unicode="&#xad;" horiz-adv-x="392" d="M75 224l19 117h322l-19 -117h-322z" />
<glyph unicode="&#xae;" horiz-adv-x="828" d="M102 309q0 113 60 211.5t158 155t208 56.5q136 0 224 -92t88 -230q0 -114 -60.5 -212t-159.5 -154t-210 -56q-135 0 -221.5 91.5t-86.5 229.5zM188 320q0 -107 66 -177t170 -70q131 0 230.5 96.5t99.5 229.5q0 106 -67.5 177t-172.5 71q-130 0 -228 -96.5t-98 -230.5z M412 307l-23 -144h-90l63 396h145q55 0 89.5 -31.5t34.5 -81.5q0 -44 -25.5 -77t-68.5 -49l55 -157h-94l-44 144h-42zM481 478h-42l-16 -100h42q72 0 72 59q0 41 -56 41z" />
<glyph unicode="&#xaf;" horiz-adv-x="408" d="M133 589l18 109h328l-18 -109h-328z" />
<glyph unicode="&#xb0;" horiz-adv-x="404" d="M318 734q65 0 105 -40.5t40 -102.5q0 -77 -58.5 -131t-138.5 -54q-64 0 -104.5 40t-40.5 101q0 77 58.5 132t138.5 55zM280 494q35 0 60.5 25t25.5 62q0 29 -17.5 47t-44.5 18q-34 0 -60 -25.5t-26 -62.5q0 -28 17.5 -46t44.5 -18z" />
<glyph unicode="&#xb1;" horiz-adv-x="592" d="M141 405l19 118h159l26 166h119l-26 -166h160l-19 -118h-160l-26 -165h-119l26 165h-159zM94 27l19 117h412l-19 -117h-412z" />
<glyph unicode="&#xb2;" horiz-adv-x="316" d="M115 613l15 94q44 27 111 27q62 0 95.5 -30.5t33.5 -82.5q0 -37 -23.5 -77t-45.5 -62t-59 -54h117l-15 -91h-298q56 53 84 81t64 66.5t51.5 64t15.5 44.5q0 22 -13.5 35t-37.5 13q-44 0 -95 -28z" />
<glyph unicode="&#xb3;" horiz-adv-x="321" d="M279 613q0 32 -56 32q-44 0 -95 -21l14 87q55 23 109 23q62 0 97.5 -27.5t35.5 -71.5q0 -63 -83 -100q60 -21 60 -79q0 -60 -49.5 -95.5t-125.5 -35.5q-66 0 -108 24l14 86q55 -21 102 -21q30 0 47.5 12t17.5 32q0 18 -18.5 29t-52.5 11h-30l11 73h33q33 0 55 12t22 30z " />
<glyph unicode="&#xb4;" horiz-adv-x="353" d="M129 561l111 173h190l-170 -173h-131z" />
<glyph unicode="&#xb5;" horiz-adv-x="616" d="M236 -14q-28 0 -43 9q-7 -74 -7 -76l-19 -119h-137l111 700h149l-45 -288q-12 -70 30 -85q22 -5 43 0q43 5 75.5 39.5t40.5 84.5l39 249h150l-79 -500h-137l5 57q2 14 10 35h-2q-25 -40 -76 -72.5t-108 -33.5z" />
<glyph unicode="&#xb6;" horiz-adv-x="616" d="M375 226h-44q-106 0 -168 57.5t-62 152.5q0 125 87.5 204.5t220.5 79.5h44zM652 720l-118 -747q-34 -207 -235 -207q-54 0 -85 12l19 124q27 -10 63 -10q77 0 89 79l119 749h148z" />
<glyph unicode="&#xb7;" horiz-adv-x="246" d="M78 233q0 42 27 68t70 26q33 0 52 -18t19 -50q0 -41 -27.5 -67t-69.5 -26q-33 0 -52 18.5t-19 48.5z" />
<glyph unicode="&#xb8;" horiz-adv-x="282" d="M95 10h72l-30 -57q33 -3 58.5 -23.5t25.5 -57.5q0 -51 -41.5 -78.5t-107.5 -27.5q-47 0 -68 9l14 85q17 -7 42 -7q19 0 35 8.5t16 24.5q0 18 -21 24t-52 2z" />
<glyph unicode="&#xb9;" horiz-adv-x="296" d="M142 720h179l-46 -292h76l-15 -91h-260l15 91h77l32 201h-72z" />
<glyph unicode="&#xba;" horiz-adv-x="460" d="M109 499q0 97 69.5 165t167.5 68q77 0 124.5 -49t47.5 -125q0 -97 -69.5 -165t-167.5 -68q-77 0 -124.5 49t-47.5 125zM222 511q0 -38 21 -62.5t54 -24.5q43 0 76 34.5t33 86.5q0 38 -21 63t-55 25q-43 0 -75.5 -35t-32.5 -87z" />
<glyph unicode="&#xbb;" horiz-adv-x="654" d="M40 0l205 250l-126 250h161l119 -250l-198 -250h-161zM286 0l205 250l-126 250h160l119 -250l-198 -250h-160z" />
<glyph unicode="&#xbc;" horiz-adv-x="790" d="M689 0h-84l13 79h-192l188 319h94l-143 -241h67l14 89h82l-14 -89h50l-13 -79h-50zM170 720h168l-48 -303h76l-13 -81h-249l13 81h77l35 221h-72zM100 0l627 720h89l-627 -720h-89z" />
<glyph unicode="&#xbd;" horiz-adv-x="834" d="M170 720h168l-48 -303h76l-13 -81h-249l13 81h77l35 221h-72zM559 286l14 87q42 25 103 25q62 0 96.5 -32t34.5 -86q0 -17 -3.5 -33t-13 -33t-16 -28.5t-23 -29t-23.5 -24.5t-26.5 -26t-24.5 -24h118l-13 -82h-290q127 120 157 154q60 67 60 107q0 24 -15.5 37.5 t-43.5 13.5q-46 0 -91 -26zM100 0l627 720h89l-627 -720h-89z" />
<glyph unicode="&#xbe;" horiz-adv-x="814" d="M713 -1h-84l12 79h-192l189 319h93l-142 -241h67l14 89h82l-14 -89h50l-13 -79h-50zM304 616q0 34 -57 34q-43 0 -90 -19l13 82q54 21 105 21q60 0 95 -27t35 -71q0 -66 -81 -102q58 -23 58 -81q0 -59 -48.5 -94t-123.5 -35q-64 0 -104 22l13 81q43 -19 98 -19 q31 0 49 13t18 34q0 43 -76 43h-21l11 72h24q35 0 58.5 12.5t23.5 33.5zM102 0l627 720h89l-627 -720h-89z" />
<glyph unicode="&#xbf;" horiz-adv-x="474" d="M411 288l-8 -50q-7 -43 -30.5 -78t-51.5 -57t-55 -42t-45.5 -44t-18.5 -53t19.5 -48t51.5 -19q74 0 164 51l-22 -136q-84 -46 -176 -46q-82 0 -135.5 44t-53.5 119q0 55 21.5 97.5t53.5 69.5t64.5 50t58 51t30.5 61l5 30h128zM285 420q0 41 27 67.5t70 26.5 q33 0 52.5 -18.5t19.5 -49.5q0 -42 -27.5 -67.5t-69.5 -25.5q-34 0 -53 18t-19 49z" />
<glyph unicode="&#xc0;" horiz-adv-x="695" d="M-5 0l465 731h6l234 -731h-161l-38 127h-269l-76 -127h-161zM296 235h176q-38 137 -53 214q-4 -7 -51.5 -90.5t-71.5 -123.5zM486 984l59 -203h-121l-122 203h184z" />
<glyph unicode="&#xc1;" horiz-adv-x="695" d="M-5 0l465 731h6l234 -731h-161l-38 127h-269l-76 -127h-161zM296 235h176q-38 137 -53 214q-4 -7 -51.5 -90.5t-71.5 -123.5zM397 781l123 203h184l-186 -203h-121z" />
<glyph unicode="&#xc2;" horiz-adv-x="695" d="M-5 0l465 731h6l234 -731h-161l-38 127h-269l-76 -127h-161zM296 235h176q-38 137 -53 214q-4 -7 -51.5 -90.5t-71.5 -123.5zM286 783l142 199h150l79 -199h-128l-40 114l-76 -114h-127z" />
<glyph unicode="&#xc3;" horiz-adv-x="695" d="M-5 0l465 731h6l234 -731h-161l-38 127h-269l-76 -127h-161zM296 235h176q-38 137 -53 214q-4 -7 -51.5 -90.5t-71.5 -123.5zM419 951q28 0 77.5 -16.5t75.5 -16.5q57 0 98 38l-18 -114q-13 -15 -41 -26.5t-59 -11.5q-28 0 -78 16.5t-75 16.5q-56 0 -99 -38l17 113 q14 15 42.5 27t59.5 12z" />
<glyph unicode="&#xc4;" horiz-adv-x="695" d="M-5 0l465 731h6l234 -731h-161l-38 127h-269l-76 -127h-161zM296 235h176q-38 137 -53 214q-4 -7 -51.5 -90.5t-71.5 -123.5zM290 864q0 42 26.5 67.5t70.5 25.5q33 0 52 -18t19 -49q0 -42 -27.5 -67.5t-69.5 -25.5q-33 0 -52 18t-19 49zM514 864q0 42 26.5 67.5 t70.5 25.5q33 0 52 -18t19 -49q0 -42 -27.5 -67.5t-69.5 -25.5q-33 0 -52 18t-19 49z" />
<glyph unicode="&#xc5;" horiz-adv-x="695" d="M-5 0l465 731h6l234 -731h-161l-38 127h-269l-76 -127h-161zM296 235h176q-38 137 -53 214q-4 -7 -51.5 -90.5t-71.5 -123.5zM364 863q0 54 41 86.5t99 32.5q45 0 74.5 -24.5t29.5 -66.5q0 -54 -40.5 -86.5t-97.5 -32.5q-47 0 -76.5 24.5t-29.5 66.5zM449 871 q0 -13 8.5 -21.5t23.5 -8.5q19 0 31 12t12 29q0 13 -8.5 21.5t-23.5 8.5q-19 0 -31 -12t-12 -29z" />
<glyph unicode="&#xc6;" horiz-adv-x="894" d="M532 0l-24 132h-265l-86 -132h-160l494 720h449l-20 -129h-354l31 -164h279l-20 -124h-235l32 -174h238l-20 -129h-339zM451 456l-139 -217h177l-37 217h-1z" />
<glyph unicode="&#xc7;" horiz-adv-x="659" d="M731 684l-22 -141q-91 50 -191 50q-119 0 -198.5 -79t-79.5 -188q0 -86 53.5 -142.5t145.5 -56.5q110 0 217 50l-23 -143q-84 -43 -205 -47l-17 -34q33 -3 58.5 -23.5t25.5 -57.5q0 -51 -41.5 -78.5t-107.5 -27.5q-47 0 -68 9l14 85q18 -7 42 -7q19 0 35 8.5t16 24.5 q0 18 -21 24t-52 2l44 77q-123 15 -197.5 103.5t-74.5 215.5q0 115 59.5 213t162.5 155.5t223 57.5q119 0 202 -50z" />
<glyph unicode="&#xc8;" horiz-adv-x="588" d="M556 0h-478l114 720h463l-20 -129h-309l-26 -164h262l-20 -124h-262l-28 -174h324zM446 984l59 -203h-121l-122 203h184z" />
<glyph unicode="&#xc9;" horiz-adv-x="588" d="M556 0h-478l114 720h463l-20 -129h-309l-26 -164h262l-20 -124h-262l-28 -174h324zM354 781l123 203h184l-186 -203h-121z" />
<glyph unicode="&#xca;" horiz-adv-x="588" d="M556 0h-478l114 720h463l-20 -129h-309l-26 -164h262l-20 -124h-262l-28 -174h324zM248 783l142 199h150l79 -199h-128l-40 114l-76 -114h-127z" />
<glyph unicode="&#xcb;" horiz-adv-x="588" d="M556 0h-478l114 720h463l-20 -129h-309l-26 -164h262l-20 -124h-262l-28 -174h324zM254 864q0 42 26.5 67.5t70.5 25.5q33 0 52 -18t19 -49q0 -42 -27.5 -67.5t-69.5 -25.5q-33 0 -52 18t-19 49zM478 864q0 42 26.5 67.5t70.5 25.5q33 0 52 -18t19 -49q0 -42 -27.5 -67.5 t-69.5 -25.5q-33 0 -52 18t-19 49z" />
<glyph unicode="&#xcc;" horiz-adv-x="310" d="M232 0h-154l114 720h154zM284 984l59 -203h-121l-122 203h184z" />
<glyph unicode="&#xcd;" horiz-adv-x="310" d="M232 0h-154l114 720h154zM212 781l123 203h184l-186 -203h-121z" />
<glyph unicode="&#xce;" horiz-adv-x="310" d="M232 0h-154l114 720h154zM94 783l142 199h150l79 -199h-128l-40 114l-76 -114h-127z" />
<glyph unicode="&#xcf;" horiz-adv-x="310" d="M232 0h-154l114 720h154zM98 864q0 42 26.5 67.5t70.5 25.5q33 0 52 -18t19 -49q0 -42 -27.5 -67.5t-69.5 -25.5q-33 0 -52 18t-19 49zM322 864q0 42 26.5 67.5t70.5 25.5q33 0 52 -18t19 -49q0 -42 -27.5 -67.5t-69.5 -25.5q-33 0 -52 18t-19 49z" />
<glyph unicode="&#xd0;" horiz-adv-x="761" d="M73 312l16 96h74l49 312h230q162 0 255 -85t93 -223q0 -178 -129 -295t-331 -117h-232l49 312h-74zM420 591h-74l-29 -183h158l-16 -96h-158l-29 -183h76q127 0 206 76.5t79 188.5q0 87 -56 142t-157 55z" />
<glyph unicode="&#xd1;" horiz-adv-x="753" d="M674 -11h-5l-335 379l-40 41l-65 -409h-151l116 731h6l334 -379l39 -41l65 409h152zM449 951q28 0 77.5 -16.5t75.5 -16.5q57 0 98 38l-18 -114q-13 -15 -41 -26.5t-59 -11.5q-28 0 -78 16.5t-75 16.5q-56 0 -99 -38l17 113q14 15 42.5 27t59.5 12z" />
<glyph unicode="&#xd2;" horiz-adv-x="819" d="M84 308q0 173 130.5 299.5t310.5 126.5q144 0 233.5 -92.5t89.5 -230.5q0 -114 -59.5 -212.5t-161 -155.5t-220.5 -57q-145 0 -234 91.5t-89 230.5zM241 326q0 -85 51.5 -142t136.5 -57q108 0 185 79t77 187q0 85 -51.5 142.5t-136.5 57.5q-107 0 -184.5 -79.5 t-77.5 -187.5zM544 984l59 -203h-121l-122 203h184z" />
<glyph unicode="&#xd3;" horiz-adv-x="819" d="M84 308q0 173 130.5 299.5t310.5 126.5q144 0 233.5 -92.5t89.5 -230.5q0 -114 -59.5 -212.5t-161 -155.5t-220.5 -57q-145 0 -234 91.5t-89 230.5zM241 326q0 -85 51.5 -142t136.5 -57q108 0 185 79t77 187q0 85 -51.5 142.5t-136.5 57.5q-107 0 -184.5 -79.5 t-77.5 -187.5zM452 781l123 203h184l-186 -203h-121z" />
<glyph unicode="&#xd4;" horiz-adv-x="819" d="M84 308q0 173 130.5 299.5t310.5 126.5q144 0 233.5 -92.5t89.5 -230.5q0 -114 -59.5 -212.5t-161 -155.5t-220.5 -57q-145 0 -234 91.5t-89 230.5zM241 326q0 -85 51.5 -142t136.5 -57q108 0 185 79t77 187q0 85 -51.5 142.5t-136.5 57.5q-107 0 -184.5 -79.5 t-77.5 -187.5zM348 783l142 199h150l79 -199h-128l-40 114l-76 -114h-127z" />
<glyph unicode="&#xd5;" horiz-adv-x="819" d="M84 308q0 173 130.5 299.5t310.5 126.5q144 0 233.5 -92.5t89.5 -230.5q0 -114 -59.5 -212.5t-161 -155.5t-220.5 -57q-145 0 -234 91.5t-89 230.5zM241 326q0 -85 51.5 -142t136.5 -57q108 0 185 79t77 187q0 85 -51.5 142.5t-136.5 57.5q-107 0 -184.5 -79.5 t-77.5 -187.5zM482 951q28 0 77.5 -16.5t75.5 -16.5q57 0 98 38l-18 -114q-13 -15 -41 -26.5t-59 -11.5q-29 0 -78 16.5t-75 16.5q-56 0 -99 -38l17 113q14 15 42.5 27t59.5 12z" />
<glyph unicode="&#xd6;" horiz-adv-x="819" d="M84 308q0 173 130.5 299.5t310.5 126.5q144 0 233.5 -92.5t89.5 -230.5q0 -114 -59.5 -212.5t-161 -155.5t-220.5 -57q-145 0 -234 91.5t-89 230.5zM241 326q0 -85 51.5 -142t136.5 -57q108 0 185 79t77 187q0 85 -51.5 142.5t-136.5 57.5q-107 0 -184.5 -79.5 t-77.5 -187.5zM352 864q0 42 26.5 67.5t70.5 25.5q33 0 52 -18t19 -49q0 -42 -27.5 -67.5t-69.5 -25.5q-33 0 -52 18t-19 49zM576 864q0 42 26.5 67.5t70.5 25.5q33 0 52 -18t19 -49q0 -42 -27.5 -67.5t-69.5 -25.5q-33 0 -52 18t-19 49z" />
<glyph unicode="&#xd7;" horiz-adv-x="615" d="M541 585l71 -83l-164 -142l119 -140l-97 -83l-118 141l-163 -141l-71 83l164 142l-118 140l96 83l117 -141z" />
<glyph unicode="&#xd8;" horiz-adv-x="819" d="M84 308q0 173 130.5 299.5t310.5 126.5q92 0 167 -40l78 96h88l-109 -135q47 -42 73 -107t26 -138q0 -174 -130 -299t-311 -125q-95 0 -168 39l-77 -95h-87l108 134q-47 42 -73 106t-26 138zM241 326q0 -85 44 -137l309 383q-39 21 -91 21q-107 0 -184.5 -79.5 t-77.5 -187.5zM691 393q0 85 -44 137l-310 -383q40 -20 92 -20q108 0 185 79t77 187z" />
<glyph unicode="&#xd9;" horiz-adv-x="738" d="M784 720l-73 -458q-20 -127 -111.5 -201.5t-232.5 -74.5t-209.5 74.5t-48.5 201.5l73 458h154l-70 -443q-11 -71 21 -110.5t102 -39.5q71 0 115.5 39.5t55.5 110.5l70 443h154zM502 984l59 -203h-121l-122 203h184z" />
<glyph unicode="&#xda;" horiz-adv-x="738" d="M784 720l-73 -458q-20 -127 -111.5 -201.5t-232.5 -74.5t-209.5 74.5t-48.5 201.5l73 458h154l-70 -443q-11 -71 21 -110.5t102 -39.5q71 0 115.5 39.5t55.5 110.5l70 443h154zM419 781l123 203h184l-186 -203h-121z" />
<glyph unicode="&#xdb;" horiz-adv-x="738" d="M784 720l-73 -458q-20 -127 -111.5 -201.5t-232.5 -74.5t-209.5 74.5t-48.5 201.5l73 458h154l-70 -443q-11 -71 21 -110.5t102 -39.5q71 0 115.5 39.5t55.5 110.5l70 443h154zM308 783l142 199h150l79 -199h-128l-40 114l-76 -114h-127z" />
<glyph unicode="&#xdc;" horiz-adv-x="738" d="M784 720l-73 -458q-20 -127 -111.5 -201.5t-232.5 -74.5t-209.5 74.5t-48.5 201.5l73 458h154l-70 -443q-11 -71 21 -110.5t102 -39.5q71 0 115.5 39.5t55.5 110.5l70 443h154zM311 864q0 42 26.5 67.5t70.5 25.5q33 0 52 -18t19 -49q0 -42 -27.5 -67.5t-69.5 -25.5 q-33 0 -52 18t-19 49zM535 864q0 42 26.5 67.5t70.5 25.5q33 0 52 -18t19 -49q0 -42 -27.5 -67.5t-69.5 -25.5q-33 0 -52 18t-19 49z" />
<glyph unicode="&#xdd;" horiz-adv-x="630" d="M91 720h173l118 -295l212 295h174l-332 -441l-44 -279h-154l44 279zM370 781l123 203h184l-186 -203h-121z" />
<glyph unicode="&#xde;" horiz-adv-x="581" d="M294 123h-43l-19 -123h-154l114 720h154l-19 -123h43q114 0 179.5 -52t65.5 -148q0 -129 -88.5 -201.5t-232.5 -72.5zM353 467h-47l-34 -214h30q23 0 34 1q55 2 88 35t33 89q0 43 -28 66t-76 23z" />
<glyph unicode="&#xdf;" horiz-adv-x="656" d="M217 0h-147l77 488q16 99 98 172.5t215 73.5q86 0 140.5 -44t54.5 -113q0 -39 -19.5 -73t-46.5 -56.5t-54.5 -40.5t-47 -34.5t-19.5 -30.5t13 -23t49 -24q71 -32 102 -59.5t31 -77.5q0 -81 -62 -126.5t-165 -45.5q-91 0 -153 33l21 131q31 -19 73 -32.5t75 -13.5 q30 0 51 10.5t21 32.5q0 11 -9 20t-19.5 14t-36.5 16q-5 2 -7 3q-63 26 -92 50.5t-29 70.5q0 33 18 61t44.5 48t52.5 38t44 39.5t18 44.5q0 26 -18.5 41t-51.5 15q-58 0 -97 -34.5t-48 -93.5z" />
<glyph unicode="&#xe0;" horiz-adv-x="641" d="M649 500l-79 -500h-136l4 46q0 9 2 17t4 12l2 4h-2q-24 -39 -74.5 -66t-105.5 -27q-85 0 -139.5 59t-54.5 159q0 138 82.5 224t195.5 86q54 0 96 -26t54 -64h2q-2 14 4 34l9 42h136zM356 388q-60 0 -101.5 -46t-41.5 -116q0 -51 27 -82.5t73 -31.5q57 0 101 43.5 t44 118.5q0 55 -29 84.5t-73 29.5zM401 734l57 -173h-130l-116 173h189z" />
<glyph unicode="&#xe1;" horiz-adv-x="641" d="M649 500l-79 -500h-136l4 46q0 9 2 17t4 12l2 4h-2q-24 -39 -74.5 -66t-105.5 -27q-85 0 -139.5 59t-54.5 159q0 138 82.5 224t195.5 86q54 0 96 -26t54 -64h2q-2 14 4 34l9 42h136zM356 388q-60 0 -101.5 -46t-41.5 -116q0 -51 27 -82.5t73 -31.5q57 0 101 43.5 t44 118.5q0 55 -29 84.5t-73 29.5zM296 561l112 173h189l-170 -173h-131z" />
<glyph unicode="&#xe2;" horiz-adv-x="641" d="M649 500l-79 -500h-136l4 46q0 9 2 17t4 12l2 4h-2q-24 -39 -74.5 -66t-105.5 -27q-85 0 -139.5 59t-54.5 159q0 138 82.5 224t195.5 86q54 0 96 -26t54 -64h2q-2 14 4 34l9 42h136zM356 388q-60 0 -101.5 -46t-41.5 -116q0 -51 27 -82.5t73 -31.5q57 0 101 43.5 t44 118.5q0 55 -29 84.5t-73 29.5zM208 561l123 173h153l68 -173h-125l-32 95l-62 -95h-125z" />
<glyph unicode="&#xe3;" horiz-adv-x="641" d="M649 500l-79 -500h-136l4 46q0 9 2 17t4 12l2 4h-2q-24 -39 -74.5 -66t-105.5 -27q-85 0 -139.5 59t-54.5 159q0 138 82.5 224t195.5 86q54 0 96 -26t54 -64h2q-2 14 4 34l9 42h136zM356 388q-60 0 -101.5 -46t-41.5 -116q0 -51 27 -82.5t73 -31.5q57 0 101 43.5 t44 118.5q0 55 -29 84.5t-73 29.5zM324 719q28 0 76.5 -16.5t74.5 -16.5q54 0 99 38l-18 -110q-14 -15 -42.5 -27t-58.5 -12q-29 0 -77.5 17t-74.5 17q-52 0 -98 -39l18 111q14 15 42 26.5t59 11.5z" />
<glyph unicode="&#xe4;" horiz-adv-x="641" d="M649 500l-79 -500h-136l4 46q0 9 2 17t4 12l2 4h-2q-24 -39 -74.5 -66t-105.5 -27q-85 0 -139.5 59t-54.5 159q0 138 82.5 224t195.5 86q54 0 96 -26t54 -64h2q-2 14 4 34l9 42h136zM356 388q-60 0 -101.5 -46t-41.5 -116q0 -51 27 -82.5t73 -31.5q57 0 101 43.5 t44 118.5q0 55 -29 84.5t-73 29.5zM194 630q0 42 27 68t70 26q33 0 52 -18t19 -50q0 -41 -27.5 -67t-69.5 -26q-33 0 -52 18.5t-19 48.5zM417 630q0 42 26.5 68t69.5 26q33 0 52 -18t19 -49q0 -42 -27 -68t-70 -26q-33 0 -51.5 18.5t-18.5 48.5z" />
<glyph unicode="&#xe5;" horiz-adv-x="641" d="M649 500l-79 -500h-136l4 46q0 9 2 17t4 12l2 4h-2q-24 -39 -74.5 -66t-105.5 -27q-85 0 -139.5 59t-54.5 159q0 138 82.5 224t195.5 86q54 0 96 -26t54 -64h2q-2 14 4 34l9 42h136zM356 388q-60 0 -101.5 -46t-41.5 -116q0 -51 27 -82.5t73 -31.5q57 0 101 43.5 t44 118.5q0 55 -29 84.5t-73 29.5zM270 628q0 55 40 86.5t99 31.5q48 0 76.5 -23t28.5 -65q0 -54 -39 -85.5t-98 -31.5q-48 0 -77.5 23t-29.5 64zM355 638q0 -13 8.5 -21t23.5 -8q19 0 31 11t12 28q0 30 -32 30q-19 0 -31 -11.5t-12 -28.5z" />
<glyph unicode="&#xe6;" horiz-adv-x="817" d="M122 346l21 134q63 28 157 32q30 2 62 0q85 -7 122 -55q73 57 162 57q93 0 141.5 -55.5t48.5 -140.5q0 -22 -3.5 -43t-8.5 -37t-5 -19h-319q-4 -51 27 -79t90 -28q48 0 99 11.5t76 25.5l-21 -127q-74 -36 -187 -36q-135 0 -196 91q-91 -91 -200 -91q-61 0 -100.5 33.5 t-39.5 94.5q0 101 92.5 150.5t236.5 31.5q3 16 13 31q0 62 -100 62q-92 0 -168 -43zM245 100q36 0 66.5 21.5t46.5 56.5q0 21 4 40q-84 11 -126.5 -11t-42.5 -62q0 -20 14 -32.5t38 -12.5zM692 296q8 43 -10.5 71.5t-60.5 28.5t-71 -28.5t-39 -71.5h181z" />
<glyph unicode="&#xe7;" horiz-adv-x="485" d="M220 229q0 -51 31.5 -81.5t85.5 -30.5q73 0 139 41l-21 -135q-73 -35 -150 -37l-17 -33q33 -3 58.5 -23.5t25.5 -57.5q0 -51 -41.5 -78.5t-107.5 -27.5q-47 0 -68 9l14 85q17 -7 42 -7q19 0 35 8.5t16 24.5q0 18 -21 24t-52 2l46 80q-79 16 -123 75t-44 143 q0 129 89 216.5t222 87.5q77 0 145 -36l-22 -136q-51 41 -123 41q-68 0 -113.5 -43t-45.5 -111z" />
<glyph unicode="&#xe8;" horiz-adv-x="549" d="M367 514q97 0 148.5 -56.5t51.5 -141.5q0 -33 -17 -97h-328q-4 -51 28.5 -79t93.5 -28q49 0 101 11.5t78 25.5l-21 -127q-74 -36 -192 -36q-113 0 -177.5 62.5t-64.5 162.5q0 126 89.5 214.5t209.5 88.5zM423 296q8 43 -11.5 71.5t-63.5 28.5q-43 0 -74 -28.5t-40 -71.5 h189zM404 734l58 -173h-131l-116 173h189z" />
<glyph unicode="&#xe9;" horiz-adv-x="549" d="M367 514q97 0 148.5 -56.5t51.5 -141.5q0 -33 -17 -97h-328q-4 -51 28.5 -79t93.5 -28q49 0 101 11.5t78 25.5l-21 -127q-74 -36 -192 -36q-113 0 -177.5 62.5t-64.5 162.5q0 126 89.5 214.5t209.5 88.5zM423 296q8 43 -11.5 71.5t-63.5 28.5q-43 0 -74 -28.5t-40 -71.5 h189zM292 561l111 173h190l-170 -173h-131z" />
<glyph unicode="&#xea;" horiz-adv-x="549" d="M367 514q97 0 148.5 -56.5t51.5 -141.5q0 -33 -17 -97h-328q-4 -51 28.5 -79t93.5 -28q49 0 101 11.5t78 25.5l-21 -127q-74 -36 -192 -36q-113 0 -177.5 62.5t-64.5 162.5q0 126 89.5 214.5t209.5 88.5zM423 296q8 43 -11.5 71.5t-63.5 28.5q-43 0 -74 -28.5t-40 -71.5 h189zM201 561l123 173h153l68 -173h-125l-32 95l-62 -95h-125z" />
<glyph unicode="&#xeb;" horiz-adv-x="549" d="M367 514q97 0 148.5 -56.5t51.5 -141.5q0 -33 -17 -97h-328q-4 -51 28.5 -79t93.5 -28q49 0 101 11.5t78 25.5l-21 -127q-74 -36 -192 -36q-113 0 -177.5 62.5t-64.5 162.5q0 126 89.5 214.5t209.5 88.5zM423 296q8 43 -11.5 71.5t-63.5 28.5q-43 0 -74 -28.5t-40 -71.5 h189zM188 630q0 42 27 68t70 26q33 0 52 -18t19 -50q0 -41 -27.5 -67t-69.5 -26q-33 0 -52 18.5t-19 48.5zM411 630q0 42 27 68t70 26q33 0 52 -18t19 -50q0 -41 -27.5 -67t-69.5 -26q-33 0 -52 18.5t-19 48.5z" />
<glyph unicode="&#xec;" horiz-adv-x="290" d="M246 734l58 -173h-131l-116 173h189zM149 500h150l-79 -500h-150z" />
<glyph unicode="&#xed;" horiz-adv-x="290" d="M164 561l111 173h190l-170 -173h-131zM149 500h150l-79 -500h-150z" />
<glyph unicode="&#xee;" horiz-adv-x="290" d="M149 500h150l-79 -500h-150zM62 561l122 173h154l68 -173h-125l-32 95l-62 -95h-125z" />
<glyph unicode="&#xef;" horiz-adv-x="290" d="M51 631q0 42 27 67.5t70 25.5q33 0 52 -18t19 -49q0 -42 -27 -68t-70 -26q-33 0 -52 18.5t-19 49.5zM274 631q0 42 27 67.5t70 25.5q33 0 52 -18t19 -49q0 -42 -27 -68t-70 -26q-33 0 -52 18.5t-19 49.5zM149 500h150l-79 -500h-150z" />
<glyph unicode="&#xf0;" horiz-adv-x="584" d="M520 759l29 -58l-90 -48q60 -73 100 -163t40 -181q0 -134 -90 -228.5t-219 -94.5q-101 0 -161.5 64t-60.5 162q0 108 73.5 194.5t181.5 100.5q38 3 62 -6q-27 48 -57 82l-92 -50l-27 58l81 44q-46 55 -75 85h186l16 -16zM210 226q0 -50 27 -82t73 -32q60 0 102.5 50 t42.5 117q0 46 -28 78t-73 32q-61 0 -102.5 -47.5t-41.5 -115.5z" />
<glyph unicode="&#xf1;" horiz-adv-x="615" d="M149 500h137l-5 -57q-1 -8 -3 -15.5t-4 -13t-2 -6.5h2q24 40 76.5 73t111.5 33q85 0 121.5 -51t21.5 -150l-50 -313h-150l46 288q13 90 -54 90q-52 0 -90.5 -36t-47.5 -93l-39 -249h-150zM358 719q28 0 77 -16.5t74 -16.5q54 0 99 38l-18 -110q-14 -15 -42.5 -27 t-58.5 -12q-29 0 -77 17t-74 17q-53 0 -99 -39l18 111q14 15 42 26.5t59 11.5z" />
<glyph unicode="&#xf2;" horiz-adv-x="596" d="M379 514q103 0 166 -63.5t63 -162.5q0 -127 -91.5 -214.5t-220.5 -87.5q-102 0 -165 63.5t-63 162.5q0 127 91.5 214.5t219.5 87.5zM316 112q61 0 105.5 45.5t44.5 114.5q0 52 -29.5 84t-77.5 32q-61 0 -105 -45.5t-44 -115.5q0 -52 29.5 -83.5t76.5 -31.5zM411 734 l58 -173h-131l-116 173h189z" />
<glyph unicode="&#xf3;" horiz-adv-x="596" d="M379 514q103 0 166 -63.5t63 -162.5q0 -127 -91.5 -214.5t-220.5 -87.5q-102 0 -165 63.5t-63 162.5q0 127 91.5 214.5t219.5 87.5zM316 112q61 0 105.5 45.5t44.5 114.5q0 52 -29.5 84t-77.5 32q-61 0 -105 -45.5t-44 -115.5q0 -52 29.5 -83.5t76.5 -31.5zM311 561 l111 173h190l-170 -173h-131z" />
<glyph unicode="&#xf4;" horiz-adv-x="596" d="M379 514q103 0 166 -63.5t63 -162.5q0 -127 -91.5 -214.5t-220.5 -87.5q-102 0 -165 63.5t-63 162.5q0 127 91.5 214.5t219.5 87.5zM316 112q61 0 105.5 45.5t44.5 114.5q0 52 -29.5 84t-77.5 32q-61 0 -105 -45.5t-44 -115.5q0 -52 29.5 -83.5t76.5 -31.5zM215 561 l123 173h153l68 -173h-125l-32 95l-62 -95h-125z" />
<glyph unicode="&#xf5;" horiz-adv-x="596" d="M379 514q103 0 166 -63.5t63 -162.5q0 -127 -91.5 -214.5t-220.5 -87.5q-102 0 -165 63.5t-63 162.5q0 127 91.5 214.5t219.5 87.5zM316 112q61 0 105.5 45.5t44.5 114.5q0 52 -29.5 84t-77.5 32q-61 0 -105 -45.5t-44 -115.5q0 -52 29.5 -83.5t76.5 -31.5zM335 719 q29 0 77 -16.5t74 -16.5q54 0 99 38l-18 -110q-14 -15 -42.5 -27t-58.5 -12q-28 0 -77 17t-74 17q-53 0 -99 -39l18 111q14 15 42 26.5t59 11.5z" />
<glyph unicode="&#xf6;" horiz-adv-x="596" d="M379 514q103 0 166 -63.5t63 -162.5q0 -127 -91.5 -214.5t-220.5 -87.5q-102 0 -165 63.5t-63 162.5q0 127 91.5 214.5t219.5 87.5zM316 112q61 0 105.5 45.5t44.5 114.5q0 52 -29.5 84t-77.5 32q-61 0 -105 -45.5t-44 -115.5q0 -52 29.5 -83.5t76.5 -31.5zM205 630 q0 42 27 68t70 26q33 0 52 -18t19 -50q0 -41 -27.5 -67t-69.5 -26q-33 0 -52 18.5t-19 48.5zM428 630q0 42 27 68t70 26q33 0 52 -18t19 -50q0 -41 -27.5 -67t-69.5 -26q-33 0 -52 18.5t-19 48.5z" />
<glyph unicode="&#xf7;" horiz-adv-x="625" d="M317 553q0 42 27.5 67.5t69.5 25.5q34 0 53 -18t19 -49q0 -43 -26.5 -68t-70.5 -25q-33 0 -52.5 18t-19.5 49zM131 302l18 116h458l-18 -116h-458zM252 141q0 42 27 67.5t70 25.5q34 0 53 -18t19 -49q0 -42 -27 -67.5t-70 -25.5q-34 0 -53 18t-19 49z" />
<glyph unicode="&#xf8;" horiz-adv-x="596" d="M379 514q59 0 109 -22l61 78h89l-92 -117q62 -62 62 -166q0 -126 -91.5 -213.5t-220.5 -87.5q-55 0 -103 19l-59 -75h-89l89 113q-66 60 -66 169q0 127 91.5 214.5t219.5 87.5zM210 227q0 -41 16 -68l174 222q-21 7 -41 7q-61 0 -105 -45.5t-44 -115.5zM316 112 q61 0 105.5 45.5t44.5 114.5q0 35 -13 63l-172 -218q17 -5 35 -5z" />
<glyph unicode="&#xf9;" horiz-adv-x="614" d="M543 0h-136l5 57q2 22 10 35h-2q-25 -40 -77.5 -73t-109.5 -33q-85 0 -121.5 51t-20.5 150l49 313h150l-45 -288q-14 -90 53 -90q51 0 89 36.5t47 92.5l39 249h149zM411 734l58 -173h-131l-116 173h189z" />
<glyph unicode="&#xfa;" horiz-adv-x="614" d="M543 0h-136l5 57q2 22 10 35h-2q-25 -40 -77.5 -73t-109.5 -33q-85 0 -121.5 51t-20.5 150l49 313h150l-45 -288q-14 -90 53 -90q51 0 89 36.5t47 92.5l39 249h149zM316 561l111 173h190l-170 -173h-131z" />
<glyph unicode="&#xfb;" horiz-adv-x="614" d="M543 0h-136l5 57q2 22 10 35h-2q-25 -40 -77.5 -73t-109.5 -33q-85 0 -121.5 51t-20.5 150l49 313h150l-45 -288q-14 -90 53 -90q51 0 89 36.5t47 92.5l39 249h149zM222 561l123 173h153l68 -173h-125l-32 95l-62 -95h-125z" />
<glyph unicode="&#xfc;" horiz-adv-x="614" d="M543 0h-136l5 57q2 22 10 35h-2q-25 -40 -77.5 -73t-109.5 -33q-85 0 -121.5 51t-20.5 150l49 313h150l-45 -288q-14 -90 53 -90q51 0 89 36.5t47 92.5l39 249h149zM208 630q0 42 27 68t70 26q33 0 52 -18t19 -50q0 -41 -27.5 -67t-69.5 -26q-33 0 -52 18.5t-19 48.5z M431 630q0 42 27 68t70 26q33 0 52 -18t19 -50q0 -41 -27.5 -67t-69.5 -26q-33 0 -52 18.5t-19 48.5z" />
<glyph unicode="&#xfd;" horiz-adv-x="548" d="M-22 -222l21 131q20 -10 57 -10q46 0 79 26t64 75l-127 500h164l31 -174q22 -120 29 -186q10 15 46 93t44 93l85 174h162l-272 -496q-118 -216 -274 -234q-34 -4 -64 -1q-36 4 -45 9zM293 561l111 173h190l-170 -173h-131z" />
<glyph unicode="&#xfe;" horiz-adv-x="640" d="M35 -220l149 940h150l-38 -238l-10 -41h2q25 32 70 52.5t97 20.5q85 0 139.5 -59t54.5 -159q0 -137 -82.5 -223.5t-193.5 -86.5q-52 0 -90.5 22t-53.5 55h-2v-3q0 -4 -1 -12t-2 -17t-2.5 -20t-3.5 -22l-33 -209h-150zM363 112q60 0 101.5 46t41.5 116q0 51 -27 82.5 t-73 31.5q-56 0 -100.5 -43.5t-44.5 -118.5q0 -54 29.5 -84t72.5 -30z" />
<glyph unicode="&#xff;" horiz-adv-x="548" d="M-22 -222l21 131q20 -10 57 -10q46 0 79 26t64 75l-127 500h164l31 -174q22 -120 29 -186q10 15 46 93t44 93l85 174h162l-272 -496q-118 -216 -274 -234q-34 -4 -64 -1q-36 4 -45 9zM181 630q0 42 27 68t70 26q33 0 52 -18t19 -50q0 -41 -27.5 -67t-69.5 -26 q-33 0 -52 18.5t-19 48.5zM404 630q0 42 27 68t70 26q33 0 52 -18t19 -50q0 -41 -27.5 -67t-69.5 -26q-33 0 -52 18.5t-19 48.5z" />
<glyph unicode="&#x100;" horiz-adv-x="695" d="M-5 0l465 731h6l234 -731h-161l-38 127h-269l-76 -127h-161zM296 235h176q-38 137 -53 214q-4 -7 -51.5 -90.5t-71.5 -123.5zM305 821l18 112h345l-18 -112h-345z" />
<glyph unicode="&#x101;" horiz-adv-x="641" d="M649 500l-79 -500h-136l4 46q0 9 2 17t4 12l2 4h-2q-24 -39 -74.5 -66t-105.5 -27q-85 0 -139.5 59t-54.5 159q0 138 82.5 224t195.5 86q54 0 96 -26t54 -64h2q-2 14 4 34l9 42h136zM356 388q-60 0 -101.5 -46t-41.5 -116q0 -51 27 -82.5t73 -31.5q57 0 101 43.5 t44 118.5q0 55 -29 84.5t-73 29.5zM210 589l18 109h329l-18 -109h-329z" />
<glyph unicode="&#x102;" horiz-adv-x="695" d="M-5 0l465 731h6l234 -731h-161l-38 127h-269l-76 -127h-161zM296 235h176q-38 137 -53 214q-4 -7 -51.5 -90.5t-71.5 -123.5zM548 957h109q-12 -78 -59.5 -122.5t-125.5 -44.5t-111.5 44.5t-19.5 122.5h109q-13 -66 38 -66q24 0 39.5 17.5t20.5 48.5z" />
<glyph unicode="&#x103;" horiz-adv-x="641" d="M649 500l-79 -500h-136l4 46q0 9 2 17t4 12l2 4h-2q-24 -39 -74.5 -66t-105.5 -27q-85 0 -139.5 59t-54.5 159q0 138 82.5 224t195.5 86q54 0 96 -26t54 -64h2q-2 14 4 34l9 42h136zM356 388q-60 0 -101.5 -46t-41.5 -116q0 -51 27 -82.5t73 -31.5q57 0 101 43.5 t44 118.5q0 55 -29 84.5t-73 29.5zM442 728h108q-10 -76 -55.5 -118.5t-122.5 -42.5t-109 42.5t-19 118.5h108q-5 -28 4.5 -44.5t31.5 -16.5t36 16t18 45z" />
<glyph unicode="&#x104;" horiz-adv-x="695" d="M-5 0l465 731h6l234 -731h-1q-45 -27 -70 -56.5t-25 -55.5q0 -31 35 -31q21 0 47 8l-14 -89q-30 -10 -68 -10q-53 0 -85.5 22t-32.5 64q0 86 139 148h-86l-38 127h-269l-76 -127h-161zM296 235h176q-38 137 -53 214q-4 -7 -51.5 -90.5t-71.5 -123.5z" />
<glyph unicode="&#x105;" horiz-adv-x="641" d="M649 500l-79 -500q-45 -27 -70 -56.5t-25 -55.5q0 -31 36 -31q20 0 46 8l-14 -89q-30 -10 -68 -10q-53 0 -85.5 22t-32.5 65q0 85 139 147h-62l4 46q0 9 2 17t4 12l2 4h-2q-24 -39 -74.5 -66t-105.5 -27q-85 0 -139.5 59t-54.5 159q0 138 82.5 224t195.5 86q54 0 96 -26 t54 -64h2q-2 14 4 34l9 42h136zM356 388q-60 0 -101.5 -46t-41.5 -116q0 -51 27 -82.5t73 -31.5q57 0 101 43.5t44 118.5q0 55 -29 84.5t-73 29.5z" />
<glyph unicode="&#x106;" horiz-adv-x="659" d="M731 684l-22 -141q-91 50 -191 50q-119 0 -198.5 -79t-79.5 -188q0 -86 53.5 -142.5t145.5 -56.5q110 0 217 50l-23 -143q-96 -48 -227 -48q-144 0 -233 91.5t-89 230.5q0 115 59.5 213t162.5 155.5t223 57.5q119 0 202 -50zM442 781l123 203h184l-186 -203h-121z" />
<glyph unicode="&#x107;" horiz-adv-x="485" d="M220 229q0 -51 31.5 -81.5t85.5 -30.5q73 0 139 41l-21 -135q-81 -37 -159 -37q-105 0 -166.5 62.5t-61.5 161.5q0 129 89 216.5t222 87.5q77 0 145 -36l-22 -136q-51 41 -123 41q-68 0 -113.5 -43t-45.5 -111zM305 561l111 173h190l-170 -173h-131z" />
<glyph unicode="&#x108;" horiz-adv-x="659" d="M731 684l-22 -141q-91 50 -191 50q-119 0 -198.5 -79t-79.5 -188q0 -86 53.5 -142.5t145.5 -56.5q110 0 217 50l-23 -143q-96 -48 -227 -48q-144 0 -233 91.5t-89 230.5q0 115 59.5 213t162.5 155.5t223 57.5q119 0 202 -50zM331 783l142 199h150l79 -199h-128l-40 114 l-76 -114h-127z" />
<glyph unicode="&#x109;" horiz-adv-x="485" d="M220 229q0 -51 31.5 -81.5t85.5 -30.5q73 0 139 41l-21 -135q-81 -37 -159 -37q-105 0 -166.5 62.5t-61.5 161.5q0 129 89 216.5t222 87.5q77 0 145 -36l-22 -136q-51 41 -123 41q-68 0 -113.5 -43t-45.5 -111zM192 561l123 173h153l68 -173h-125l-32 95l-62 -95h-125z " />
<glyph unicode="&#x10a;" horiz-adv-x="659" d="M731 684l-22 -141q-91 50 -191 50q-119 0 -198.5 -79t-79.5 -188q0 -86 53.5 -142.5t145.5 -56.5q110 0 217 50l-23 -143q-96 -48 -227 -48q-144 0 -233 91.5t-89 230.5q0 115 59.5 213t162.5 155.5t223 57.5q119 0 202 -50zM454 864q0 42 26.5 67.5t70.5 25.5 q33 0 52 -18t19 -49q0 -42 -27.5 -67.5t-69.5 -25.5q-33 0 -52 18t-19 49z" />
<glyph unicode="&#x10b;" horiz-adv-x="485" d="M220 229q0 -51 31.5 -81.5t85.5 -30.5q73 0 139 41l-21 -135q-81 -37 -159 -37q-105 0 -166.5 62.5t-61.5 161.5q0 129 89 216.5t222 87.5q77 0 145 -36l-22 -136q-51 41 -123 41q-68 0 -113.5 -43t-45.5 -111zM309 630q0 42 27 68t70 26q33 0 52 -18t19 -50 q0 -41 -27.5 -67t-69.5 -26q-33 0 -52 18.5t-19 48.5z" />
<glyph unicode="&#x10c;" horiz-adv-x="659" d="M731 684l-22 -141q-91 50 -191 50q-119 0 -198.5 -79t-79.5 -188q0 -86 53.5 -142.5t145.5 -56.5q110 0 217 50l-23 -143q-96 -48 -227 -48q-144 0 -233 91.5t-89 230.5q0 115 59.5 213t162.5 155.5t223 57.5q119 0 202 -50zM739 982l-143 -199h-150l-78 199h127l39 -115 l77 115h128z" />
<glyph unicode="&#x10d;" horiz-adv-x="485" d="M220 229q0 -51 31.5 -81.5t85.5 -30.5q73 0 139 41l-21 -135q-81 -37 -159 -37q-105 0 -166.5 62.5t-61.5 161.5q0 129 89 216.5t222 87.5q77 0 145 -36l-22 -136q-51 41 -123 41q-68 0 -113.5 -43t-45.5 -111zM565 734l-122 -173h-153l-69 173h125l32 -95l62 95h125z " />
<glyph unicode="&#x10e;" horiz-adv-x="741" d="M310 0h-232l114 720h230q162 0 255 -85t93 -223q0 -178 -129 -295t-331 -117zM400 591h-74l-74 -462h76q127 0 206 76.5t79 188.5q0 87 -56 142t-157 55zM669 982l-143 -199h-150l-78 199h127l39 -115l77 115h128z" />
<glyph unicode="&#x10f;" horiz-adv-x="774" d="M680 720l-114 -720h-136l4 42q1 9 3 17.5t3 12.5l1 4h-2q-24 -38 -73.5 -64t-102.5 -26q-87 0 -141.5 59.5t-54.5 159.5q0 137 82 223t193 86q52 0 91 -22t54 -55h2q-1 14 4 42l38 241h149zM353 388q-60 0 -101.5 -46t-41.5 -116q0 -51 27 -82.5t73 -31.5q55 0 99.5 43.5 t44.5 118.5q0 54 -29 84t-72 30zM700 411l48 305h136l-48 -305h-136z" />
<glyph unicode="&#x110;" horiz-adv-x="761" d="M73 312l16 96h74l49 312h230q162 0 255 -85t93 -223q0 -178 -129 -295t-331 -117h-232l49 312h-74zM420 591h-74l-29 -183h158l-16 -96h-158l-29 -183h76q127 0 206 76.5t79 188.5q0 87 -56 142t-157 55z" />
<glyph unicode="&#x111;" horiz-adv-x="637" d="M680 720l-10 -63h69l-15 -95h-69l-89 -562h-136l4 42q1 9 3 17.5t3 12.5l1 4h-2q-24 -38 -73.5 -64t-102.5 -26q-87 0 -141.5 59.5t-54.5 159.5q0 137 82 223t193 86q52 0 91 -22t54 -55h2q-1 14 4 42l13 83h-145l15 95h145l10 63h149zM353 388q-60 0 -101.5 -46 t-41.5 -116q0 -51 27 -82.5t73 -31.5q55 0 99.5 43.5t44.5 118.5q0 54 -29 84t-72 30z" />
<glyph unicode="&#x112;" horiz-adv-x="588" d="M556 0h-478l114 720h463l-20 -129h-309l-26 -164h262l-20 -124h-262l-28 -174h324zM266 821l18 112h345l-18 -112h-345z" />
<glyph unicode="&#x113;" horiz-adv-x="549" d="M367 514q97 0 148.5 -56.5t51.5 -141.5q0 -33 -17 -97h-328q-4 -51 28.5 -79t93.5 -28q49 0 101 11.5t78 25.5l-21 -127q-74 -36 -192 -36q-113 0 -177.5 62.5t-64.5 162.5q0 126 89.5 214.5t209.5 88.5zM423 296q8 43 -11.5 71.5t-63.5 28.5q-43 0 -74 -28.5t-40 -71.5 h189zM212 589l18 109h328l-18 -109h-328z" />
<glyph unicode="&#x114;" horiz-adv-x="588" d="M556 0h-478l114 720h463l-20 -129h-309l-26 -164h262l-20 -124h-262l-28 -174h324zM510 957h109q-12 -78 -59.5 -122.5t-125.5 -44.5t-111.5 44.5t-19.5 122.5h109q-13 -66 38 -66q24 0 39.5 17.5t20.5 48.5z" />
<glyph unicode="&#x115;" horiz-adv-x="549" d="M367 514q97 0 148.5 -56.5t51.5 -141.5q0 -33 -17 -97h-328q-4 -51 28.5 -79t93.5 -28q49 0 101 11.5t78 25.5l-21 -127q-74 -36 -192 -36q-113 0 -177.5 62.5t-64.5 162.5q0 126 89.5 214.5t209.5 88.5zM423 296q8 43 -11.5 71.5t-63.5 28.5q-43 0 -74 -28.5t-40 -71.5 h189zM443 728h109q-11 -76 -56.5 -118.5t-122.5 -42.5t-109 42.5t-19 118.5h109q-5 -29 4 -45t31 -16q46 0 54 61z" />
<glyph unicode="&#x116;" horiz-adv-x="588" d="M556 0h-478l114 720h463l-20 -129h-309l-26 -164h262l-20 -124h-262l-28 -174h324zM363 864q0 42 26.5 67.5t70.5 25.5q33 0 52 -18t19 -49q0 -42 -27.5 -67.5t-69.5 -25.5q-33 0 -52 18t-19 49z" />
<glyph unicode="&#x117;" horiz-adv-x="549" d="M367 514q97 0 148.5 -56.5t51.5 -141.5q0 -33 -17 -97h-328q-4 -51 28.5 -79t93.5 -28q49 0 101 11.5t78 25.5l-21 -127q-74 -36 -192 -36q-113 0 -177.5 62.5t-64.5 162.5q0 126 89.5 214.5t209.5 88.5zM423 296q8 43 -11.5 71.5t-63.5 28.5q-43 0 -74 -28.5t-40 -71.5 h189zM304 630q0 42 27 68t70 26q33 0 52 -18t19 -50q0 -41 -27.5 -67t-69.5 -26q-33 0 -52 18.5t-19 48.5z" />
<glyph unicode="&#x118;" horiz-adv-x="588" d="M556 0h-5q-45 -27 -70 -56.5t-25 -55.5q0 -31 35 -31q21 0 47 8l-14 -89q-30 -10 -68 -10q-53 0 -85.5 22t-32.5 64q0 86 139 148h-399l114 720h463l-20 -129h-309l-26 -164h262l-20 -124h-262l-28 -174h324z" />
<glyph unicode="&#x119;" horiz-adv-x="549" d="M367 514q97 0 148.5 -56.5t51.5 -141.5q0 -33 -17 -97h-328q-4 -51 28.5 -79t93.5 -28q49 0 101 11.5t78 25.5l-21 -127q-31 -15 -66 -22q-45 -27 -70 -56.5t-25 -55.5q0 -31 35 -31q21 0 47 8l-14 -89q-30 -10 -68 -10q-53 0 -85.5 22t-32.5 64q0 74 112 135 q-8 -1 -25 -1q-113 0 -177.5 62.5t-64.5 162.5q0 126 89.5 214.5t209.5 88.5zM423 296q8 43 -11.5 71.5t-63.5 28.5q-43 0 -74 -28.5t-40 -71.5h189z" />
<glyph unicode="&#x11a;" horiz-adv-x="588" d="M556 0h-478l114 720h463l-20 -129h-309l-26 -164h262l-20 -124h-262l-28 -174h324zM651 982l-143 -199h-150l-78 199h127l39 -115l77 115h128z" />
<glyph unicode="&#x11b;" horiz-adv-x="549" d="M367 514q97 0 148.5 -56.5t51.5 -141.5q0 -33 -17 -97h-328q-4 -51 28.5 -79t93.5 -28q49 0 101 11.5t78 25.5l-21 -127q-74 -36 -192 -36q-113 0 -177.5 62.5t-64.5 162.5q0 126 89.5 214.5t209.5 88.5zM423 296q8 43 -11.5 71.5t-63.5 28.5q-43 0 -74 -28.5t-40 -71.5 h189zM569 734l-122 -173h-153l-69 173h125l32 -95l62 95h125z" />
<glyph unicode="&#x11c;" horiz-adv-x="710" d="M670 41q-115 -55 -253 -55q-151 0 -242 91t-91 231q0 176 131.5 301t316.5 125q123 0 218 -49l-22 -142q-100 50 -208 50q-122 0 -200.5 -78.5t-78.5 -189.5q0 -87 53 -143t145 -56q55 0 100 14l31 192h147zM340 783l142 199h150l79 -199h-128l-40 114l-76 -114h-127z " />
<glyph unicode="&#x11d;" horiz-adv-x="638" d="M57 -194l21 134q72 -43 164 -43q77 0 126.5 33t58.5 92q1 4 2.5 11.5t2 12t2 9t2.5 6.5v2h-2q-28 -34 -74 -55.5t-100 -21.5q-84 0 -138 59t-54 159q0 137 83 223.5t196 86.5q53 0 94.5 -26t53.5 -64h2v4q0 4 1 12.5t3 17.5l9 42h136l-70 -443q-5 -38 -11 -59 q-26 -114 -111.5 -173t-211.5 -59q-124 0 -185 40zM311 112q55 0 99.5 43.5t44.5 118.5q0 54 -29 84t-72 30q-59 0 -101 -46t-42 -116q0 -52 27 -83t73 -31zM202 561l123 173h154l68 -173h-125l-32 95l-62 -95h-126z" />
<glyph unicode="&#x11e;" horiz-adv-x="710" d="M670 41q-115 -55 -253 -55q-151 0 -242 91t-91 231q0 176 131.5 301t316.5 125q123 0 218 -49l-22 -142q-100 50 -208 50q-122 0 -200.5 -78.5t-78.5 -189.5q0 -87 53 -143t145 -56q55 0 100 14l31 192h147zM607 957h109q-12 -78 -59.5 -122.5t-125.5 -44.5t-111.5 44.5 t-19.5 122.5h109q-13 -66 38 -66q24 0 39.5 17.5t20.5 48.5z" />
<glyph unicode="&#x11f;" horiz-adv-x="638" d="M57 -194l21 134q72 -43 164 -43q77 0 126.5 33t58.5 92q1 4 2.5 11.5t2 12t2 9t2.5 6.5v2h-2q-28 -34 -74 -55.5t-100 -21.5q-84 0 -138 59t-54 159q0 137 83 223.5t196 86.5q53 0 94.5 -26t53.5 -64h2v4q0 4 1 12.5t3 17.5l9 42h136l-70 -443q-5 -38 -11 -59 q-26 -114 -111.5 -173t-211.5 -59q-124 0 -185 40zM311 112q55 0 99.5 43.5t44.5 118.5q0 54 -29 84t-72 30q-59 0 -101 -46t-42 -116q0 -52 27 -83t73 -31zM440 728h109q-10 -76 -55.5 -118.5t-122.5 -42.5q-76 0 -108.5 42.5t-20.5 118.5h109q-5 -28 4.5 -44.5t31.5 -16.5 q45 0 53 61z" />
<glyph unicode="&#x120;" horiz-adv-x="710" d="M670 41q-115 -55 -253 -55q-151 0 -242 91t-91 231q0 176 131.5 301t316.5 125q123 0 218 -49l-22 -142q-100 50 -208 50q-122 0 -200.5 -78.5t-78.5 -189.5q0 -87 53 -143t145 -56q55 0 100 14l31 192h147zM455 864q0 42 26.5 67.5t70.5 25.5q33 0 52 -18t19 -49 q0 -42 -27.5 -67.5t-69.5 -25.5q-33 0 -52 18t-19 49z" />
<glyph unicode="&#x121;" horiz-adv-x="638" d="M57 -194l21 134q72 -43 164 -43q77 0 126.5 33t58.5 92q1 4 2.5 11.5t2 12t2 9t2.5 6.5v2h-2q-28 -34 -74 -55.5t-100 -21.5q-84 0 -138 59t-54 159q0 137 83 223.5t196 86.5q53 0 94.5 -26t53.5 -64h2v4q0 4 1 12.5t3 17.5l9 42h136l-70 -443q-5 -38 -11 -59 q-26 -114 -111.5 -173t-211.5 -59q-124 0 -185 40zM311 112q55 0 99.5 43.5t44.5 118.5q0 54 -29 84t-72 30q-59 0 -101 -46t-42 -116q0 -52 27 -83t73 -31zM310 630q0 42 27 68t70 26q33 0 52 -18t19 -50q0 -41 -27.5 -67t-69.5 -26q-33 0 -52 18.5t-19 48.5z" />
<glyph unicode="&#x122;" horiz-adv-x="710" d="M670 41q-115 -55 -253 -55q-151 0 -242 91t-91 231q0 176 131.5 301t316.5 125q123 0 218 -49l-22 -142q-100 50 -208 50q-122 0 -200.5 -78.5t-78.5 -189.5q0 -87 53 -143t145 -56q55 0 100 14l31 192h147zM375 -234l101 180h-151l-65 -180h115z" />
<glyph unicode="&#x123;" horiz-adv-x="638" d="M57 -194l21 134q72 -43 164 -43q77 0 126.5 33t58.5 92q1 4 2.5 11.5t2 12t2 9t2.5 6.5v2h-2q-28 -34 -74 -55.5t-100 -21.5q-84 0 -138 59t-54 159q0 137 83 223.5t196 86.5q53 0 94.5 -26t53.5 -64h2v4q0 4 1 12.5t3 17.5l9 42h136l-70 -443q-5 -38 -11 -59 q-26 -114 -111.5 -173t-211.5 -59q-124 0 -185 40zM311 112q55 0 99.5 43.5t44.5 118.5q0 54 -29 84t-72 30q-59 0 -101 -46t-42 -116q0 -52 27 -83t73 -31zM289 557l102 180h116l-66 -180h-152z" />
<glyph unicode="&#x124;" horiz-adv-x="760" d="M689 0h-154l48 301h-297l-48 -301h-154l114 720h154l-46 -291h297l46 291h154zM317 783l142 199h150l79 -199h-128l-40 114l-76 -114h-127z" />
<glyph unicode="&#x125;" horiz-adv-x="615" d="M184 720h147l-39 -248l-11 -55q31 38 78.5 67.5t102.5 29.5q85 0 121.5 -51t21.5 -150l-50 -313h-150l46 288q13 90 -54 90q-52 0 -90.5 -36t-47.5 -93l-39 -249h-150zM92 765l124 173h153l67 -173h-125l-32 95l-62 -95h-125z" />
<glyph unicode="&#x126;" horiz-adv-x="819" d="M109 530l15 96h88l15 94h154l-15 -94h297l15 94h154l-15 -94h76l-15 -96h-76l-84 -530h-154l48 301h-297l-48 -301h-154l84 530h-88zM335 429h297l16 101h-297z" />
<glyph unicode="&#x127;" horiz-adv-x="615" d="M184 720h147l-10 -63h135l-15 -95h-135l-14 -90l-11 -55q31 38 78.5 67.5t102.5 29.5q85 0 121.5 -51t21.5 -150l-50 -313h-150l46 288q13 90 -54 90q-52 0 -90.5 -36t-47.5 -93l-39 -249h-150l89 562h-69l15 95h69z" />
<glyph unicode="&#x128;" horiz-adv-x="310" d="M232 0h-154l114 720h154zM227 951q28 0 77.5 -16.5t75.5 -16.5q57 0 98 38l-18 -114q-13 -15 -41 -26.5t-59 -11.5q-28 0 -78 16.5t-75 16.5q-56 0 -99 -38l17 113q14 15 42.5 27t59.5 12z" />
<glyph unicode="&#x129;" horiz-adv-x="290" d="M182 719q29 0 77.5 -16.5t73.5 -16.5q54 0 99 38l-18 -110q-14 -15 -42.5 -27t-58.5 -12q-29 0 -77 17t-74 17q-53 0 -99 -39l18 111q14 15 42 26.5t59 11.5zM149 500h150l-79 -500h-150z" />
<glyph unicode="&#x12a;" horiz-adv-x="310" d="M232 0h-154l114 720h154zM113 821l18 112h345l-18 -112h-345z" />
<glyph unicode="&#x12b;" horiz-adv-x="290" d="M74 589l18 109h328l-18 -109h-328zM149 500h150l-79 -500h-150z" />
<glyph unicode="&#x12c;" horiz-adv-x="310" d="M232 0h-154l114 720h154zM356 957h109q-12 -78 -59.5 -122.5t-125.5 -44.5t-111.5 44.5t-19.5 122.5h109q-13 -66 38 -66q24 0 39.5 17.5t20.5 48.5z" />
<glyph unicode="&#x12d;" horiz-adv-x="290" d="M304 728h109q-11 -76 -56.5 -118.5t-121.5 -42.5t-108.5 42.5t-20.5 118.5h109q-11 -61 36 -61q45 0 53 61zM149 500h150l-79 -500h-150z" />
<glyph unicode="&#x12e;" horiz-adv-x="310" d="M232 0q-45 -27 -70 -56.5t-25 -55.5q0 -31 35 -31q21 0 47 8l-14 -89q-30 -10 -68 -10q-53 0 -85.5 22t-32.5 64q0 86 139 148h-80l114 720h154z" />
<glyph unicode="&#x12f;" horiz-adv-x="290" d="M149 500h150l-79 -500q-45 -27 -70 -56.5t-25 -55.5q0 -31 35 -31q21 0 47 8l-14 -89q-30 -10 -68 -10q-53 0 -85.5 22t-32.5 64q0 86 139 148h-76zM163 630q0 42 27 68t70 26q33 0 52 -18t19 -50q0 -41 -27.5 -67t-69.5 -26q-33 0 -52 18.5t-19 48.5z" />
<glyph unicode="&#x130;" horiz-adv-x="310" d="M232 0h-154l114 720h154zM209 864q0 42 26.5 67.5t70.5 25.5q33 0 52 -18t19 -49q0 -42 -27.5 -67.5t-69.5 -25.5q-33 0 -52 18t-19 49z" />
<glyph unicode="&#x131;" horiz-adv-x="290" d="M149 500h150l-79 -500h-150z" />
<glyph unicode="&#x132;" horiz-adv-x="716" d="M232 0h-154l114 720h154zM751 720l-82 -515q-34 -219 -245 -219q-63 0 -97 19l20 130q30 -18 73 -18q82 0 94 81l83 522h154z" />
<glyph unicode="&#x133;" horiz-adv-x="580" d="M149 500h150l-79 -500h-150zM588 500l-87 -550q-14 -89 -70 -136.5t-145 -47.5q-48 0 -70 11l20 129q18 -5 36 -5q72 0 84 76l83 523h149zM163 630q0 42 27 68t70 26q33 0 52 -18t19 -50q0 -41 -27.5 -67t-69.5 -26q-33 0 -52 18.5t-19 48.5zM452 631q0 42 27 67.5 t70 25.5q33 0 52 -18t19 -49q0 -42 -27 -68t-70 -26q-33 0 -52 18.5t-19 49.5z" />
<glyph unicode="&#x134;" horiz-adv-x="406" d="M441 720l-82 -515q-34 -219 -245 -219q-63 0 -97 19l20 130q30 -18 73 -18q82 0 94 81l83 522h154zM189 783l142 199h150l79 -199h-128l-40 114l-76 -114h-127z" />
<glyph unicode="&#x135;" horiz-adv-x="290" d="M299 500l-87 -550q-14 -89 -70 -136.5t-146 -47.5q-48 0 -70 11l20 129q17 -5 36 -5q72 0 84 76l83 523h150zM62 561l123 173h153l68 -173h-125l-32 95l-62 -95h-125z" />
<glyph unicode="&#x136;" horiz-adv-x="717" d="M346 720l-54 -340l334 340h182l-299 -297l65 -182q16 -44 24 -61.5t25 -35t40 -19.5q24 -4 56 2l-21 -132q-32 -9 -72 -9q-67 0 -105.5 36t-70.5 125l-65 173l-121 -117l-32 -203h-154l114 720h154zM433 -54l-101 -180h-115l65 180h151z" />
<glyph unicode="&#x137;" horiz-adv-x="583" d="M641 500l-216 -220l55 -118q12 -27 25.5 -37.5t36.5 -10.5q21 0 48 8l-19 -120q-32 -16 -86 -16q-55 0 -85 24t-54 82l-46 105l-62 -65l-21 -132h-147l114 720h150l-66 -418l195 198h178zM376 -54l-101 -180h-115l65 180h151z" />
<glyph unicode="&#x138;" horiz-adv-x="583" d="M638 500l-203 -213l135 -287h-169l-92 211l-70 -69l-22 -142h-147l79 500h150l-33 -207l199 207h173z" />
<glyph unicode="&#x139;" horiz-adv-x="527" d="M509 0h-431l114 720h154l-94 -591h277zM215 781l123 203h184l-186 -203h-121z" />
<glyph unicode="&#x13a;" horiz-adv-x="334" d="M90 143l91 577h149l-86 -544q-9 -62 40 -62q27 0 52 10l-20 -123q-35 -15 -97 -15q-69 0 -105.5 38t-23.5 119zM193 765l112 173h190l-171 -173h-131z" />
<glyph unicode="&#x13b;" horiz-adv-x="527" d="M509 0h-431l114 720h154l-94 -591h277zM267 -234l101 180h-151l-65 -180h115z" />
<glyph unicode="&#x13c;" horiz-adv-x="334" d="M90 143l91 577h149l-86 -544q-9 -62 40 -62q27 0 52 10l-20 -123q-35 -15 -97 -15q-69 0 -105.5 38t-23.5 119zM162 -234l101 180h-151l-65 -180h115z" />
<glyph unicode="&#x13d;" horiz-adv-x="527" d="M509 0h-431l114 720h154l-94 -591h277zM405 464l49 305h136l-49 -305h-136z" />
<glyph unicode="&#x13e;" horiz-adv-x="437" d="M91 143l91 577h149l-86 -544q-9 -62 40 -62q27 0 52 10l-20 -123q-35 -15 -97 -15q-69 0 -105.5 38t-23.5 119zM357 411l48 305h136l-48 -305h-136z" />
<glyph unicode="&#x13f;" horiz-adv-x="531" d="M509 0h-431l114 720h154l-94 -591h277zM382 340q0 42 27 68t70 26q33 0 52 -18t19 -50q0 -41 -27.5 -67t-69.5 -26q-33 0 -52 18.5t-19 48.5z" />
<glyph unicode="&#x140;" horiz-adv-x="442" d="M90 143l91 577h149l-86 -544q-9 -62 40 -62q27 0 52 10l-20 -123q-35 -15 -97 -15q-69 0 -105.5 38t-23.5 119zM335 340q0 42 27 68t70 26q33 0 52 -18t19 -50q0 -41 -27.5 -67t-69.5 -26q-33 0 -52 18.5t-19 48.5z" />
<glyph unicode="&#x141;" horiz-adv-x="538" d="M45 224l14 84l88 54l57 358h154l-40 -253l114 70l-13 -84l-114 -70l-41 -254h277l-20 -129h-431l44 278z" />
<glyph unicode="&#x142;" horiz-adv-x="349" d="M39 232l13 85l84 50l56 353h149l-40 -254l83 50l-14 -85l-83 -50l-32 -205q-9 -62 40 -62q27 0 52 10l-20 -123q-35 -15 -97 -15q-69 0 -105.5 38t-23.5 119l22 139z" />
<glyph unicode="&#x143;" horiz-adv-x="753" d="M674 -11h-5l-335 379l-40 41l-65 -409h-151l116 731h6l334 -379l39 -41l65 409h152zM411 781l123 203h184l-186 -203h-121z" />
<glyph unicode="&#x144;" horiz-adv-x="615" d="M149 500h137l-5 -57q-1 -8 -3 -15.5t-4 -13t-2 -6.5h2q24 40 76.5 73t111.5 33q85 0 121.5 -51t21.5 -150l-50 -313h-150l46 288q13 90 -54 90q-52 0 -90.5 -36t-47.5 -93l-39 -249h-150zM334 561l111 173h190l-170 -173h-131z" />
<glyph unicode="&#x145;" horiz-adv-x="753" d="M674 -11h-5l-335 379l-40 41l-65 -409h-151l116 731h6l334 -379l39 -41l65 409h152zM367 -234l101 180h-151l-65 -180h115z" />
<glyph unicode="&#x146;" horiz-adv-x="615" d="M149 500h137l-5 -57q-1 -8 -3 -15.5t-4 -13t-2 -6.5h2q24 40 76.5 73t111.5 33q85 0 121.5 -51t21.5 -150l-50 -313h-150l46 288q13 90 -54 90q-52 0 -90.5 -36t-47.5 -93l-39 -249h-150zM283 -234l101 180h-151l-65 -180h115z" />
<glyph unicode="&#x147;" horiz-adv-x="753" d="M674 -11h-5l-335 379l-40 41l-65 -409h-151l116 731h6l334 -379l39 -41l65 409h152zM720 982l-143 -199h-150l-78 199h127l39 -115l77 115h128z" />
<glyph unicode="&#x148;" horiz-adv-x="615" d="M149 500h137l-5 -57q-1 -8 -3 -15.5t-4 -13t-2 -6.5h2q24 40 76.5 73t111.5 33q85 0 121.5 -51t21.5 -150l-50 -313h-150l46 288q13 90 -54 90q-52 0 -90.5 -36t-47.5 -93l-39 -249h-150zM612 734l-122 -173h-153l-69 173h125l32 -95l62 95h125z" />
<glyph unicode="&#x14c;" horiz-adv-x="819" d="M84 308q0 173 130.5 299.5t310.5 126.5q144 0 233.5 -92.5t89.5 -230.5q0 -114 -59.5 -212.5t-161 -155.5t-220.5 -57q-145 0 -234 91.5t-89 230.5zM241 326q0 -85 51.5 -142t136.5 -57q108 0 185 79t77 187q0 85 -51.5 142.5t-136.5 57.5q-107 0 -184.5 -79.5 t-77.5 -187.5zM367 821l18 112h345l-18 -112h-345z" />
<glyph unicode="&#x14d;" horiz-adv-x="596" d="M379 514q103 0 166 -63.5t63 -162.5q0 -127 -91.5 -214.5t-220.5 -87.5q-102 0 -165 63.5t-63 162.5q0 127 91.5 214.5t219.5 87.5zM316 112q61 0 105.5 45.5t44.5 114.5q0 52 -29.5 84t-77.5 32q-61 0 -105 -45.5t-44 -115.5q0 -52 29.5 -83.5t76.5 -31.5zM227 589 l18 109h328l-18 -109h-328z" />
<glyph unicode="&#x14e;" horiz-adv-x="819" d="M84 308q0 173 130.5 299.5t310.5 126.5q144 0 233.5 -92.5t89.5 -230.5q0 -114 -59.5 -212.5t-161 -155.5t-220.5 -57q-145 0 -234 91.5t-89 230.5zM241 326q0 -85 51.5 -142t136.5 -57q108 0 185 79t77 187q0 85 -51.5 142.5t-136.5 57.5q-107 0 -184.5 -79.5 t-77.5 -187.5zM610 957h109q-12 -78 -59.5 -122.5t-125.5 -44.5t-111.5 44.5t-19.5 122.5h109q-13 -66 38 -66q24 0 39.5 17.5t20.5 48.5z" />
<glyph unicode="&#x14f;" horiz-adv-x="596" d="M379 514q103 0 166 -63.5t63 -162.5q0 -127 -91.5 -214.5t-220.5 -87.5q-102 0 -165 63.5t-63 162.5q0 127 91.5 214.5t219.5 87.5zM316 112q61 0 105.5 45.5t44.5 114.5q0 52 -29.5 84t-77.5 32q-61 0 -105 -45.5t-44 -115.5q0 -52 29.5 -83.5t76.5 -31.5zM458 728h109 q-11 -76 -56.5 -118.5t-122.5 -42.5t-109 42.5t-19 118.5h109q-5 -29 4 -45t31 -16q46 0 54 61z" />
<glyph unicode="&#x150;" horiz-adv-x="819" d="M84 308q0 173 130.5 299.5t310.5 126.5q144 0 233.5 -92.5t89.5 -230.5q0 -114 -59.5 -212.5t-161 -155.5t-220.5 -57q-145 0 -234 91.5t-89 230.5zM241 326q0 -85 51.5 -142t136.5 -57q108 0 185 79t77 187q0 85 -51.5 142.5t-136.5 57.5q-107 0 -184.5 -79.5 t-77.5 -187.5zM372 781l94 192h163l-134 -192h-123zM565 781l133 192h172l-180 -192h-125z" />
<glyph unicode="&#x151;" horiz-adv-x="596" d="M379 514q103 0 166 -63.5t63 -162.5q0 -127 -91.5 -214.5t-220.5 -87.5q-102 0 -165 63.5t-63 162.5q0 127 91.5 214.5t219.5 87.5zM316 112q61 0 105.5 45.5t44.5 114.5q0 52 -29.5 84t-77.5 32q-61 0 -105 -45.5t-44 -115.5q0 -52 29.5 -83.5t76.5 -31.5zM221 561 l91 173h163l-131 -173h-123zM414 561l130 173h172l-177 -173h-125z" />
<glyph unicode="&#x152;" horiz-adv-x="1022" d="M678 720h413l-20 -129h-261l-26 -164h210l-20 -124h-210l-28 -174h276l-20 -129h-428l6 35q-82 -49 -178 -49q-137 0 -222.5 91.5t-85.5 229.5q0 114 58.5 212.5t156.5 156.5t211 58q97 0 162 -49zM423 127q104 0 172 71l51 322q-45 73 -149 73t-180.5 -78.5 t-76.5 -190.5q0 -86 50.5 -141.5t132.5 -55.5z" />
<glyph unicode="&#x153;" horiz-adv-x="836" d="M661 514q94 0 143.5 -56t49.5 -141q0 -21 -3.5 -42t-8.5 -37t-5 -19h-316q-4 -51 27 -79t89 -28q48 0 98.5 11.5t74.5 25.5l-21 -127q-72 -36 -185 -36q-90 0 -153 47q-72 -47 -158 -47q-101 0 -163 63.5t-62 162.5q0 127 90.5 214.5t217.5 87.5q83 0 140 -46 q70 46 145 46zM313 112q36 0 67 20q-12 41 -12 84q0 78 49 151q-26 21 -61 21q-59 0 -102.5 -45.5t-43.5 -115.5q0 -52 28.5 -83.5t74.5 -31.5zM711 296q7 43 -10.5 71.5t-58.5 28.5q-42 0 -71 -28.5t-38 -71.5h178z" />
<glyph unicode="&#x154;" horiz-adv-x="645" d="M368 252h-99l-40 -252h-151l114 720h250q115 0 181 -52t66 -148q0 -91 -50 -154t-130 -91l28 -104q16 -59 71 -59q6 0 30 3l-19 -120q-27 -9 -67 -9q-59 0 -92 34t-57 116zM426 591h-103l-34 -215h107q62 0 99 32t37 93q0 43 -28.5 66.5t-77.5 23.5zM343 781l123 203h184 l-186 -203h-121z" />
<glyph unicode="&#x155;" horiz-adv-x="403" d="M67 0l79 500h136l-5 -49q-4 -30 -4 -33q71 96 163 96q26 0 32 -3l-23 -146q-12 6 -32 6q-58 0 -105.5 -45.5t-57.5 -112.5l-34 -213h-149zM244 561l111 173h190l-170 -173h-131z" />
<glyph unicode="&#x156;" horiz-adv-x="645" d="M368 252h-99l-40 -252h-151l114 720h250q115 0 181 -52t66 -148q0 -91 -50 -154t-130 -91l28 -104q16 -59 71 -59q6 0 30 3l-19 -120q-27 -9 -67 -9q-59 0 -92 34t-57 116zM426 591h-103l-34 -215h107q62 0 99 32t37 93q0 43 -28.5 66.5t-77.5 23.5zM400 -54l-101 -180 h-115l65 180h151z" />
<glyph unicode="&#x157;" horiz-adv-x="403" d="M67 0l79 500h136l-5 -49q-4 -30 -4 -33q71 96 163 96q26 0 32 -3l-23 -146q-12 6 -32 6q-58 0 -105.5 -45.5t-57.5 -112.5l-34 -213h-149zM110 -234l101 180h-151l-65 -180h115z" />
<glyph unicode="&#x158;" horiz-adv-x="645" d="M368 252h-99l-40 -252h-151l114 720h250q115 0 181 -52t66 -148q0 -91 -50 -154t-130 -91l28 -104q16 -59 71 -59q6 0 30 3l-19 -120q-27 -9 -67 -9q-59 0 -92 34t-57 116zM426 591h-103l-34 -215h107q62 0 99 32t37 93q0 43 -28.5 66.5t-77.5 23.5zM643 982l-142 -199 h-150l-78 199h127l39 -115l77 115h127z" />
<glyph unicode="&#x159;" horiz-adv-x="403" d="M67 0l79 500h136l-5 -49q-4 -30 -4 -33q71 96 163 96q26 0 32 -3l-23 -146q-12 6 -32 6q-58 0 -105.5 -45.5t-57.5 -112.5l-34 -213h-149zM514 734l-122 -173h-153l-69 173h125l32 -95l62 95h125z" />
<glyph unicode="&#x15a;" horiz-adv-x="549" d="M254 -14q-121 0 -208 41l24 148q82 -46 172 -52q37 -2 65 4q98 14 98 73q0 30 -29 52t-96 48q-85 33 -127 76t-42 114q0 110 84 177t214 67q107 0 183 -36l-23 -142q-67 44 -169 44q-60 0 -97.5 -23t-37.5 -60q0 -28 28 -51t93 -49q87 -36 129.5 -79t42.5 -113 q0 -111 -81.5 -175t-222.5 -64zM319 781l123 203h184l-186 -203h-121z" />
<glyph unicode="&#x15b;" horiz-adv-x="456" d="M308 148q0 17 -17.5 27t-60.5 24q-66 19 -101 50.5t-35 87.5q0 80 60 128.5t156 48.5q93 0 157 -31l-20 -128q-54 31 -121 37q-28 2 -46 -2q-48 -8 -48 -40q0 -28 70 -50q75 -22 109.5 -53.5t34.5 -84.5q0 -82 -63 -129t-169 -47q-97 0 -165 33l21 131q33 -19 78.5 -32.5 t81.5 -13.5q78 0 78 44zM240 561l111 173h190l-170 -173h-131z" />
<glyph unicode="&#x15c;" horiz-adv-x="549" d="M254 -14q-121 0 -208 41l24 148q82 -46 172 -52q37 -2 65 4q98 14 98 73q0 30 -29 52t-96 48q-85 33 -127 76t-42 114q0 110 84 177t214 67q107 0 183 -36l-23 -142q-67 44 -169 44q-60 0 -97.5 -23t-37.5 -60q0 -28 28 -51t93 -49q87 -36 129.5 -79t42.5 -113 q0 -111 -81.5 -175t-222.5 -64zM211 783l142 199h150l79 -199h-128l-40 114l-76 -114h-127z" />
<glyph unicode="&#x15d;" horiz-adv-x="456" d="M308 148q0 17 -17.5 27t-60.5 24q-66 19 -101 50.5t-35 87.5q0 80 60 128.5t156 48.5q93 0 157 -31l-20 -128q-54 31 -121 37q-28 2 -46 -2q-48 -8 -48 -40q0 -28 70 -50q75 -22 109.5 -53.5t34.5 -84.5q0 -82 -63 -129t-169 -47q-97 0 -165 33l21 131q33 -19 78.5 -32.5 t81.5 -13.5q78 0 78 44zM149 561l123 173h153l68 -173h-125l-32 95l-62 -95h-125z" />
<glyph unicode="&#x15e;" horiz-adv-x="549" d="M558 225q0 -101 -70 -164t-193 -73l-18 -35q33 -3 58.5 -23.5t25.5 -57.5q0 -51 -41.5 -78.5t-107.5 -27.5q-47 0 -68 9l14 85q17 -7 42 -7q19 0 35 8.5t16 24.5q0 18 -21 24t-52 2l43 75q-104 6 -175 40l24 148q82 -46 172 -52q37 -2 65 4q98 14 98 73q0 30 -29 52 t-96 48q-85 33 -127 76t-42 114q0 110 84 177t214 67q107 0 183 -36l-23 -142q-67 44 -169 44q-60 0 -97.5 -23t-37.5 -60q0 -28 28 -51t93 -49q87 -36 129.5 -79t42.5 -113z" />
<glyph unicode="&#x15f;" horiz-adv-x="456" d="M308 148q0 17 -17.5 27t-60.5 24q-66 19 -101 50.5t-35 87.5q0 80 60 128.5t156 48.5q93 0 157 -31l-20 -128q-54 31 -121 37q-28 2 -46 -2q-48 -8 -48 -40q0 -28 70 -50q75 -22 109.5 -53.5t34.5 -84.5q0 -74 -52 -120t-142 -54l-18 -35q33 -3 58.5 -23.5t25.5 -57.5 q0 -51 -41.5 -78.5t-107.5 -27.5q-47 0 -68 9l14 85q17 -7 42 -7q19 0 35 8.5t16 24.5q0 18 -21 24t-52 2l43 75q-76 5 -129 32l21 131q33 -19 78.5 -32.5t81.5 -13.5q78 0 78 44z" />
<glyph unicode="&#x160;" horiz-adv-x="549" d="M254 -14q-121 0 -208 41l24 148q82 -46 172 -52q37 -2 65 4q98 14 98 73q0 30 -29 52t-96 48q-85 33 -127 76t-42 114q0 110 84 177t214 67q107 0 183 -36l-23 -142q-67 44 -169 44q-60 0 -97.5 -23t-37.5 -60q0 -28 28 -51t93 -49q87 -36 129.5 -79t42.5 -113 q0 -111 -81.5 -175t-222.5 -64zM617 982l-143 -199h-150l-78 199h127l39 -115l77 115h128z" />
<glyph unicode="&#x161;" horiz-adv-x="456" d="M308 148q0 17 -17.5 27t-60.5 24q-66 19 -101 50.5t-35 87.5q0 80 60 128.5t156 48.5q93 0 157 -31l-20 -128q-54 31 -121 37q-28 2 -46 -2q-48 -8 -48 -40q0 -28 70 -50q75 -22 109.5 -53.5t34.5 -84.5q0 -82 -63 -129t-169 -47q-97 0 -165 33l21 131q33 -19 78.5 -32.5 t81.5 -13.5q78 0 78 44zM516 734l-122 -173h-153l-69 173h125l32 -95l62 95h125z" />
<glyph unicode="&#x162;" horiz-adv-x="577" d="M661 591h-202l-94 -591h-42l-24 -47q33 -3 58.5 -23.5t25.5 -57.5q0 -51 -41.5 -78.5t-107.5 -27.5q-47 0 -68 9l14 85q18 -7 42 -7q19 0 35 8.5t16 24.5q0 18 -21 24t-52 2l51 88h-40l94 591h-201l20 129h557z" />
<glyph unicode="&#x163;" horiz-adv-x="386" d="M88 500h72l24 150h145l-24 -150h133l-18 -117h-133l-32 -201q-6 -37 9.5 -54t43.5 -17q42 0 88 21l-20 -123q-44 -20 -119 -23l-17 -33q33 -3 58.5 -23.5t25.5 -57.5q0 -51 -41.5 -78.5t-107.5 -27.5q-47 0 -68 9l14 85q17 -7 42 -7q19 0 35 8.5t16 24.5q0 18 -21 24 t-52 2l47 82q-92 26 -87 134q1 6 2 23.5t3 27.5l33 204h-69z" />
<glyph unicode="&#x164;" horiz-adv-x="577" d="M661 591h-202l-94 -591h-154l94 591h-201l20 129h557zM630 982l-143 -199h-150l-78 199h127l39 -115l77 115h128z" />
<glyph unicode="&#x165;" horiz-adv-x="428" d="M364 551l47 296h137l-47 -296h-137zM88 500h72l24 150h145l-24 -150h133l-18 -117h-133l-32 -201q-6 -37 9.5 -54t43.5 -17q42 0 88 21l-20 -123q-48 -23 -130 -23q-66 0 -107 34.5t-38 107.5q1 6 2 23.5t3 27.5l33 204h-69z" />
<glyph unicode="&#x166;" horiz-adv-x="577" d="M661 591h-202l-26 -161h117l-15 -96h-117l-53 -334h-154l53 334h-117l15 96h117l26 161h-201l20 129h557z" />
<glyph unicode="&#x167;" horiz-adv-x="386" d="M88 500h72l24 150h145l-24 -150h133l-18 -117h-133l-12 -71h126l-15 -95h-126l-5 -35q-6 -37 9.5 -54t43.5 -17q42 0 88 21l-20 -123q-48 -23 -130 -23q-66 0 -107 34.5t-38 107.5q1 6 2 23.5t3 27.5l6 38h-63l15 95h63l12 71h-69z" />
<glyph unicode="&#x168;" horiz-adv-x="738" d="M784 720l-73 -458q-20 -127 -111.5 -201.5t-232.5 -74.5t-209.5 74.5t-48.5 201.5l73 458h154l-70 -443q-11 -71 21 -110.5t102 -39.5q71 0 115.5 39.5t55.5 110.5l70 443h154zM442 951q28 0 77.5 -16.5t75.5 -16.5q57 0 98 38l-18 -114q-13 -15 -41 -26.5t-59 -11.5 q-29 0 -78 16.5t-75 16.5q-56 0 -99 -38l17 113q14 15 42.5 27t59.5 12z" />
<glyph unicode="&#x169;" horiz-adv-x="614" d="M543 0h-136l5 57q2 22 10 35h-2q-25 -40 -77.5 -73t-109.5 -33q-85 0 -121.5 51t-20.5 150l49 313h150l-45 -288q-14 -90 53 -90q51 0 89 36.5t47 92.5l39 249h149zM341 719q28 0 76.5 -16.5t74.5 -16.5q54 0 99 38l-18 -110q-14 -15 -42.5 -27t-58.5 -12q-29 0 -77.5 17 t-73.5 17q-53 0 -99 -39l18 111q14 15 42 26.5t59 11.5z" />
<glyph unicode="&#x16a;" horiz-adv-x="738" d="M784 720l-73 -458q-20 -127 -111.5 -201.5t-232.5 -74.5t-209.5 74.5t-48.5 201.5l73 458h154l-70 -443q-11 -71 21 -110.5t102 -39.5q71 0 115.5 39.5t55.5 110.5l70 443h154zM327 821l18 112h345l-18 -112h-345z" />
<glyph unicode="&#x16b;" horiz-adv-x="614" d="M543 0h-136l5 57q2 22 10 35h-2q-25 -40 -77.5 -73t-109.5 -33q-85 0 -121.5 51t-20.5 150l49 313h150l-45 -288q-14 -90 53 -90q51 0 89 36.5t47 92.5l39 249h149zM235 589l18 109h328l-18 -109h-328z" />
<glyph unicode="&#x16c;" horiz-adv-x="738" d="M784 720l-73 -458q-20 -127 -111.5 -201.5t-232.5 -74.5t-209.5 74.5t-48.5 201.5l73 458h154l-70 -443q-11 -71 21 -110.5t102 -39.5q71 0 115.5 39.5t55.5 110.5l70 443h154zM571 957h109q-12 -78 -59.5 -122.5t-125.5 -44.5t-111.5 44.5t-19.5 122.5h109 q-13 -66 38 -66q24 0 39.5 17.5t20.5 48.5z" />
<glyph unicode="&#x16d;" horiz-adv-x="614" d="M543 0h-136l5 57q2 22 10 35h-2q-25 -40 -77.5 -73t-109.5 -33q-85 0 -121.5 51t-20.5 150l49 313h150l-45 -288q-14 -90 53 -90q51 0 89 36.5t47 92.5l39 249h149zM460 728h109q-11 -76 -56.5 -118.5t-122.5 -42.5t-109 42.5t-19 118.5h109q-5 -29 4 -45t31 -16 q46 0 54 61z" />
<glyph unicode="&#x16e;" horiz-adv-x="738" d="M784 720l-73 -458q-20 -127 -111.5 -201.5t-232.5 -74.5t-209.5 74.5t-48.5 201.5l73 458h154l-70 -443q-11 -71 21 -110.5t102 -39.5q71 0 115.5 39.5t55.5 110.5l70 443h154zM386 863q0 54 41 86.5t99 32.5q45 0 74.5 -24.5t29.5 -66.5q0 -54 -40.5 -86.5t-97.5 -32.5 q-47 0 -76.5 24.5t-29.5 66.5zM471 871q0 -13 8.5 -21.5t23.5 -8.5q19 0 31 12t12 29q0 13 -8.5 21.5t-23.5 8.5q-19 0 -31 -12t-12 -29z" />
<glyph unicode="&#x16f;" horiz-adv-x="614" d="M543 0h-136l5 57q2 22 10 35h-2q-25 -40 -77.5 -73t-109.5 -33q-85 0 -121.5 51t-20.5 150l49 313h150l-45 -288q-14 -90 53 -90q51 0 89 36.5t47 92.5l39 249h149zM279 628q0 55 40 86.5t99 31.5q48 0 76.5 -23t28.5 -65q0 -54 -39 -85.5t-98 -31.5q-48 0 -77.5 23 t-29.5 64zM364 638q0 -13 8.5 -21t23.5 -8q19 0 31 11t12 28q0 30 -32 30q-19 0 -31 -11.5t-12 -28.5z" />
<glyph unicode="&#x170;" horiz-adv-x="738" d="M784 720l-73 -458q-20 -127 -111.5 -201.5t-232.5 -74.5t-209.5 74.5t-48.5 201.5l73 458h154l-70 -443q-11 -71 21 -110.5t102 -39.5q71 0 115.5 39.5t55.5 110.5l70 443h154zM323 781l94 192h163l-134 -192h-123zM516 781l133 192h172l-180 -192h-125z" />
<glyph unicode="&#x171;" horiz-adv-x="614" d="M543 0h-136l5 57q2 22 10 35h-2q-25 -40 -77.5 -73t-109.5 -33q-85 0 -121.5 51t-20.5 150l49 313h150l-45 -288q-14 -90 53 -90q51 0 89 36.5t47 92.5l39 249h149zM226 561l91 173h163l-131 -173h-123zM419 561l130 173h172l-177 -173h-125z" />
<glyph unicode="&#x172;" horiz-adv-x="738" d="M784 720l-73 -458q-16 -100 -76.5 -168.5t-156.5 -93.5q-45 -27 -70 -56.5t-25 -55.5q0 -31 35 -31q21 0 47 8l-14 -89q-30 -10 -68 -10q-53 0 -85.5 22t-32.5 64q0 73 111 134h-9q-141 0 -209.5 74.5t-48.5 201.5l73 458h154l-70 -443q-11 -71 21 -110.5t102 -39.5 q71 0 115.5 39.5t55.5 110.5l70 443h154z" />
<glyph unicode="&#x173;" horiz-adv-x="614" d="M622 500l-79 -499l1 -1q-45 -27 -70 -56.5t-25 -55.5q0 -31 35 -31q21 0 47 8l-14 -89q-30 -10 -68 -10q-53 0 -85.5 22t-32.5 64q0 86 139 148h-63l5 57q2 22 10 35h-2q-25 -40 -77.5 -73t-109.5 -33q-85 0 -121.5 51t-20.5 150l49 313h150l-45 -288q-14 -90 53 -90 q51 0 89 36.5t47 92.5l39 249h149z" />
<glyph unicode="&#x174;" horiz-adv-x="1014" d="M114 720h171l59 -245q23 -94 34 -163q8 13 33.5 58.5t38.5 67.5l55 91l112 186h6q94 -323 110 -403q71 124 224 408h172l-439 -731h-7l-90 322q-18 64 -23 86q-35 -62 -50 -86l-193 -322h-7zM446 783l142 199h150l79 -199h-128l-40 114l-76 -114h-127z" />
<glyph unicode="&#x175;" horiz-adv-x="784" d="M515 497l31 -165q6 -32 20 -142q10 16 36 71t35 72l83 167h156l-289 -506h-97l-56 274l-141 -274h-98l-129 506h156q54 -299 55 -310l150 307h88zM310 561l123 173h153l68 -173h-125l-32 95l-62 -95h-125z" />
<glyph unicode="&#x176;" horiz-adv-x="630" d="M91 720h173l118 -295l212 295h174l-332 -441l-44 -279h-154l44 279zM254 783l142 199h150l79 -199h-128l-40 114l-76 -114h-127z" />
<glyph unicode="&#x177;" horiz-adv-x="548" d="M-22 -222l21 131q20 -10 57 -10q46 0 79 26t64 75l-127 500h164l31 -174q22 -120 29 -186q10 15 46 93t44 93l85 174h162l-272 -496q-118 -216 -274 -234q-34 -4 -64 -1q-36 4 -45 9zM191 561l123 173h153l68 -173h-125l-32 95l-62 -95h-125z" />
<glyph unicode="&#x178;" horiz-adv-x="630" d="M91 720h173l118 -295l212 295h174l-332 -441l-44 -279h-154l44 279zM258 864q0 42 26.5 67.5t70.5 25.5q33 0 52 -18t19 -49q0 -42 -27.5 -67.5t-69.5 -25.5q-33 0 -52 18t-19 49zM482 864q0 42 26.5 67.5t70.5 25.5q33 0 52 -18t19 -49q0 -42 -27.5 -67.5t-69.5 -25.5 q-33 0 -52 18t-19 49z" />
<glyph unicode="&#x179;" horiz-adv-x="634" d="M25 0l442 591h-317l20 129h551l-442 -591h337l-20 -129h-571zM360 781l123 203h184l-186 -203h-121z" />
<glyph unicode="&#x17a;" horiz-adv-x="482" d="M476 118l-19 -118h-440l289 382h-208l18 118h423l-287 -382h224zM259 561l111 173h190l-170 -173h-131z" />
<glyph unicode="&#x17b;" horiz-adv-x="634" d="M25 0l442 591h-317l20 129h551l-442 -591h337l-20 -129h-571zM374 864q0 42 26.5 67.5t70.5 25.5q33 0 52 -18t19 -49q0 -42 -27.5 -67.5t-69.5 -25.5q-33 0 -52 18t-19 49z" />
<glyph unicode="&#x17c;" horiz-adv-x="482" d="M476 118l-19 -118h-440l289 382h-208l18 118h423l-287 -382h224zM261 630q0 42 27 68t70 26q33 0 52 -18t19 -50q0 -41 -27.5 -67t-69.5 -26q-33 0 -52 18.5t-19 48.5z" />
<glyph unicode="&#x17d;" horiz-adv-x="634" d="M25 0l442 591h-317l20 129h551l-442 -591h337l-20 -129h-571zM665 982l-143 -199h-150l-78 199h127l39 -115l77 115h128z" />
<glyph unicode="&#x17e;" horiz-adv-x="482" d="M476 118l-19 -118h-440l289 382h-208l18 118h423l-287 -382h224zM531 734l-122 -173h-153l-69 173h125l32 -95l62 95h125z" />
<glyph unicode="&#x192;" horiz-adv-x="523" d="M137 425h103q24 81 45 137q32 81 97 126.5t157 45.5q30 0 65 -7l-19 -124q-20 5 -56 5q-81 0 -108 -83l-31 -100h111l-18 -115h-128l-91 -298q-12 -39 -37 -96q-34 -72 -96 -111t-140 -39q-39 0 -65 7l20 124q17 -5 55 -5q36 0 63 22t39 61l102 335h-86z" />
<glyph unicode="&#x1fa;" horiz-adv-x="695" d="M-5 0l465 731h6l234 -731h-161l-38 127h-269l-76 -127h-161zM296 235h176q-38 137 -53 214q-4 -7 -51.5 -90.5t-71.5 -123.5zM364 843q0 53 39 83.5t96 30.5q46 0 74 -22.5t28 -62.5q0 -53 -38 -83.5t-96 -30.5q-46 0 -74.5 22.5t-28.5 62.5zM449 853q0 -27 29 -27 q18 0 28 10t10 26q0 26 -28 26q-18 0 -28.5 -10t-10.5 -25zM521 1119h181l-140 -139h-131z" />
<glyph unicode="&#x1fb;" horiz-adv-x="641" d="M649 500l-79 -500h-136l4 46q0 9 2 17t4 12l2 4h-2q-24 -39 -74.5 -66t-105.5 -27q-85 0 -139.5 59t-54.5 159q0 138 82.5 224t195.5 86q54 0 96 -26t54 -64h2q-2 14 4 34l9 42h136zM356 388q-60 0 -101.5 -46t-41.5 -116q0 -51 27 -82.5t73 -31.5q57 0 101 43.5 t44 118.5q0 55 -29 84.5t-73 29.5zM275 623q0 53 38.5 83.5t95.5 30.5q46 0 74.5 -22.5t28.5 -62.5q0 -53 -38.5 -83.5t-96.5 -30.5q-46 0 -74 22.5t-28 62.5zM360 633q0 -27 28 -27q18 0 28.5 10.5t10.5 25.5q0 26 -29 26q-18 0 -28 -9.5t-10 -25.5zM430 899h180l-140 -140 h-130z" />
<glyph unicode="&#x1fc;" horiz-adv-x="894" d="M532 0l-24 132h-265l-86 -132h-160l494 720h449l-20 -129h-354l31 -164h279l-20 -124h-235l32 -174h238l-20 -129h-339zM654 781l123 203h184l-186 -203h-121zM451 456l-139 -217h177l-37 217h-1z" />
<glyph unicode="&#x1fd;" horiz-adv-x="817" d="M122 346l21 134q63 28 157 32q30 2 62 0q85 -7 122 -55q73 57 162 57q93 0 141.5 -55.5t48.5 -140.5q0 -22 -3.5 -43t-8.5 -37t-5 -19h-319q-4 -51 27 -79t90 -28q48 0 99 11.5t76 25.5l-21 -127q-74 -36 -187 -36q-135 0 -196 91q-91 -91 -200 -91q-61 0 -100.5 33.5 t-39.5 94.5q0 101 92.5 150.5t236.5 31.5q3 16 13 31q0 62 -100 62q-92 0 -168 -43zM245 100q36 0 66.5 21.5t46.5 56.5q0 21 4 40q-84 11 -126.5 -11t-42.5 -62q0 -20 14 -32.5t38 -12.5zM692 296q8 43 -10.5 71.5t-60.5 28.5t-71 -28.5t-39 -71.5h181zM409 561l111 173 h190l-170 -173h-131z" />
<glyph unicode="&#x1fe;" horiz-adv-x="819" d="M84 308q0 173 130.5 299.5t310.5 126.5q92 0 167 -40l78 96h88l-109 -135q47 -42 73 -107t26 -138q0 -174 -130 -299t-311 -125q-95 0 -168 39l-77 -95h-87l108 134q-47 42 -73 106t-26 138zM241 326q0 -85 44 -137l309 383q-39 21 -91 21q-107 0 -184.5 -79.5 t-77.5 -187.5zM691 393q0 85 -44 137l-310 -383q40 -20 92 -20q108 0 185 79t77 187zM452 781l123 203h184l-186 -203h-121z" />
<glyph unicode="&#x1ff;" horiz-adv-x="596" d="M379 514q59 0 109 -22l61 78h89l-92 -117q62 -62 62 -166q0 -126 -91.5 -213.5t-220.5 -87.5q-55 0 -103 19l-59 -75h-89l89 113q-66 60 -66 169q0 127 91.5 214.5t219.5 87.5zM311 561l111 173h190l-170 -173h-131zM210 227q0 -41 16 -68l174 222q-21 7 -41 7 q-61 0 -105 -45.5t-44 -115.5zM316 112q61 0 105.5 45.5t44.5 114.5q0 35 -13 63l-172 -218q17 -5 35 -5z" />
<glyph unicode="&#x218;" horiz-adv-x="549" d="M254 -14q-121 0 -208 41l24 148q82 -46 172 -52q37 -2 65 4q98 14 98 73q0 30 -29 52t-96 48q-85 33 -127 76t-42 114q0 110 84 177t214 67q107 0 183 -36l-23 -142q-67 44 -169 44q-60 0 -97.5 -23t-37.5 -60q0 -28 28 -51t93 -49q87 -36 129.5 -79t42.5 -113 q0 -111 -81.5 -175t-222.5 -64zM243 -234l101 180h-151l-65 -180h115z" />
<glyph unicode="&#x219;" horiz-adv-x="456" d="M308 148q0 17 -17.5 27t-60.5 24q-66 19 -101 50.5t-35 87.5q0 80 60 128.5t156 48.5q93 0 157 -31l-20 -128q-54 31 -121 37q-28 2 -46 -2q-48 -8 -48 -40q0 -28 70 -50q75 -22 109.5 -53.5t34.5 -84.5q0 -82 -63 -129t-169 -47q-97 0 -165 33l21 131q33 -19 78.5 -32.5 t81.5 -13.5q78 0 78 44zM192 -234l101 180h-151l-65 -180h115z" />
<glyph unicode="&#x21a;" horiz-adv-x="577" d="M661 591h-202l-94 -591h-154l94 591h-201l20 129h557zM253 -234l101 180h-151l-65 -180h115z" />
<glyph unicode="&#x21b;" horiz-adv-x="386" d="M88 500h72l24 150h145l-24 -150h133l-18 -117h-133l-32 -201q-6 -37 9.5 -54t43.5 -17q42 0 88 21l-20 -123q-48 -23 -130 -23q-66 0 -107 34.5t-38 107.5q1 6 2 23.5t3 27.5l33 204h-69zM198 -234l101 180h-151l-65 -180h115z" />
<glyph unicode="&#x237;" horiz-adv-x="290" d="M299 500l-87 -550q-14 -89 -70 -136.5t-146 -47.5q-48 0 -70 11l20 129q17 -5 36 -5q72 0 84 76l83 523h150z" />
<glyph unicode="&#x2c6;" horiz-adv-x="424" d="M129 561l123 173h153l68 -173h-125l-32 95l-62 -95h-125z" />
<glyph unicode="&#x2c7;" horiz-adv-x="424" d="M500 734l-122 -173h-153l-69 173h125l32 -95l62 95h125z" />
<glyph unicode="&#x2d8;" horiz-adv-x="388" d="M354 728h109q-11 -76 -56.5 -118.5t-122.5 -42.5t-109 42.5t-19 118.5h109q-5 -29 4 -45t31 -16q46 0 54 61z" />
<glyph unicode="&#x2d9;" horiz-adv-x="246" d="M141 630q0 42 27 68t70 26q33 0 52 -18t19 -50q0 -41 -27.5 -67t-69.5 -26q-33 0 -52 18.5t-19 48.5z" />
<glyph unicode="&#x2da;" horiz-adv-x="321" d="M140 628q0 55 40 86.5t99 31.5q48 0 76.5 -23t28.5 -65q0 -54 -39 -85.5t-98 -31.5q-48 0 -77.5 23t-29.5 64zM225 638q0 -13 8.5 -21t23.5 -8q19 0 31 11t12 28q0 30 -32 30q-19 0 -31 -11.5t-12 -28.5z" />
<glyph unicode="&#x2db;" horiz-adv-x="278" d="M218 24l12 -24q-45 -27 -70 -56.5t-25 -55.5q0 -31 35 -31q21 0 47 8l-14 -89q-30 -10 -68 -10q-53 0 -85.5 22t-32.5 64q0 57 60 101.5t141 70.5z" />
<glyph unicode="&#x2dc;" horiz-adv-x="424" d="M249 719q29 0 77 -16.5t74 -16.5q54 0 99 38l-18 -110q-14 -15 -42.5 -27t-58.5 -12q-28 0 -77 17t-74 17q-53 0 -99 -39l18 111q14 15 42 26.5t59 11.5z" />
<glyph unicode="&#x2dd;" horiz-adv-x="548" d="M129 561l91 173h163l-131 -173h-123zM322 561l130 173h172l-177 -173h-125z" />
<glyph unicode="&#x301;" horiz-adv-x="352" d="M225 706h181l-140 -139h-131z" />
<glyph unicode="&#x3c0;" horiz-adv-x="768" d="M130 380l19 120h625l-19 -120h-96l-33 -209q-10 -64 51 -64q21 0 39 6l-18 -116q-26 -11 -74 -11q-92 0 -121 52.5t-14 152.5l30 189h-152l-60 -380h-140l60 380h-97z" />
<glyph unicode="&#x1e80;" horiz-adv-x="1014" d="M114 720h171l59 -245q23 -94 34 -163q8 13 33.5 58.5t38.5 67.5l55 91l112 186h6q94 -323 110 -403q71 124 224 408h172l-439 -731h-7l-90 322q-18 64 -23 86q-35 -62 -50 -86l-193 -322h-7zM630 984l59 -203h-121l-122 203h184z" />
<glyph unicode="&#x1e81;" horiz-adv-x="784" d="M515 497l31 -165q6 -32 20 -142q10 16 36 71t35 72l83 167h156l-289 -506h-97l-56 274l-141 -274h-98l-129 506h156q54 -299 55 -310l150 307h88zM485 734l58 -173h-131l-116 173h189z" />
<glyph unicode="&#x1e82;" horiz-adv-x="1014" d="M114 720h171l59 -245q23 -94 34 -163q8 13 33.5 58.5t38.5 67.5l55 91l112 186h6q94 -323 110 -403q71 124 224 408h172l-439 -731h-7l-90 322q-18 64 -23 86q-35 -62 -50 -86l-193 -322h-7zM558 781l123 203h184l-186 -203h-121z" />
<glyph unicode="&#x1e83;" horiz-adv-x="784" d="M515 497l31 -165q6 -32 20 -142q10 16 36 71t35 72l83 167h156l-289 -506h-97l-56 274l-141 -274h-98l-129 506h156q54 -299 55 -310l150 307h88zM415 561l111 173h190l-170 -173h-131z" />
<glyph unicode="&#x1e84;" horiz-adv-x="1014" d="M114 720h171l59 -245q23 -94 34 -163q8 13 33.5 58.5t38.5 67.5l55 91l112 186h6q94 -323 110 -403q71 124 224 408h172l-439 -731h-7l-90 322q-18 64 -23 86q-35 -62 -50 -86l-193 -322h-7zM674 864q0 42 26.5 67.5t70.5 25.5q33 0 52 -18t19 -49q0 -42 -27.5 -67.5 t-69.5 -25.5q-33 0 -52 18t-19 49zM450 864q0 42 26.5 67.5t70.5 25.5q33 0 52 -18t19 -49q0 -42 -27.5 -67.5t-69.5 -25.5q-33 0 -52 18t-19 49z" />
<glyph unicode="&#x1e85;" horiz-adv-x="784" d="M515 497l31 -165q6 -32 20 -142q10 16 36 71t35 72l83 167h156l-289 -506h-97l-56 274l-141 -274h-98l-129 506h156q54 -299 55 -310l150 307h88zM522 630q0 42 27 68t70 26q33 0 52 -18t19 -50q0 -41 -27.5 -67t-69.5 -26q-33 0 -52 18.5t-19 48.5zM299 630q0 42 27 68 t70 26q33 0 52 -18t19 -50q0 -41 -27.5 -67t-69.5 -26q-33 0 -52 18.5t-19 48.5z" />
<glyph unicode="&#x1e9e;" horiz-adv-x="685" d="M214 0h-149l76 478q17 108 106 182t228 74q91 0 160.5 -36t104.5 -76l-213 -246l36 -16q136 -61 136 -166q0 -94 -69 -151t-192 -57q-90 0 -152 31l20 129q55 -32 121 -38q35 -3 63 3q67 13 67 66q0 31 -30 54t-86 46l-100 41l212 253q-35 29 -102 29q-61 0 -107 -35.5 t-56 -99.5z" />
<glyph unicode="&#x1ef2;" horiz-adv-x="630" d="M91 720h173l118 -295l212 295h174l-332 -441l-44 -279h-154l44 279zM434 984l59 -203h-121l-122 203h184z" />
<glyph unicode="&#x1ef3;" horiz-adv-x="548" d="M-22 -222l21 131q20 -10 57 -10q46 0 79 26t64 75l-127 500h164l31 -174q22 -120 29 -186q10 15 46 93t44 93l85 174h162l-272 -496q-118 -216 -274 -234q-34 -4 -64 -1q-36 4 -45 9zM371 734l58 -173h-131l-116 173h189z" />
<glyph unicode="&#x2000;" horiz-adv-x="559" />
<glyph unicode="&#x2001;" horiz-adv-x="1119" />
<glyph unicode="&#x2002;" horiz-adv-x="559" />
<glyph unicode="&#x2003;" horiz-adv-x="1119" />
<glyph unicode="&#x2004;" horiz-adv-x="373" />
<glyph unicode="&#x2005;" horiz-adv-x="279" />
<glyph unicode="&#x2006;" horiz-adv-x="186" />
<glyph unicode="&#x2007;" horiz-adv-x="186" />
<glyph unicode="&#x2008;" horiz-adv-x="139" />
<glyph unicode="&#x2009;" horiz-adv-x="223" />
<glyph unicode="&#x200a;" horiz-adv-x="62" />
<glyph unicode="&#x2010;" horiz-adv-x="402" d="M75 224l19 117h322l-19 -117h-322z" />
<glyph unicode="&#x2011;" horiz-adv-x="402" d="M75 224l19 117h322l-19 -117h-322z" />
<glyph unicode="&#x2012;" horiz-adv-x="402" d="M75 224l19 117h322l-19 -117h-322z" />
<glyph unicode="&#x2013;" horiz-adv-x="589" d="M75 224l19 117h509l-19 -117h-509z" />
<glyph unicode="&#x2014;" horiz-adv-x="822" d="M75 224l19 117h743l-19 -117h-743z" />
<glyph unicode="&#x2018;" horiz-adv-x="235" d="M84 499l155 292h121l-124 -292h-152z" />
<glyph unicode="&#x2019;" horiz-adv-x="235" d="M360 791l-155 -292h-121l124 292h152z" />
<glyph unicode="&#x201a;" horiz-adv-x="235" d="M257 142l-155 -292h-121l124 292h152z" />
<glyph unicode="&#x201c;" horiz-adv-x="437" d="M286 499l155 292h121l-123 -292h-153zM84 499l155 292h121l-124 -292h-152z" />
<glyph unicode="&#x201d;" horiz-adv-x="438" d="M564 791l-155 -292h-121l123 292h153zM360 791l-155 -292h-121l124 292h152z" />
<glyph unicode="&#x201e;" horiz-adv-x="438" d="M461 142l-155 -292h-121l123 292h153zM257 142l-155 -292h-121l124 292h152z" />
<glyph unicode="&#x2020;" horiz-adv-x="588" d="M206 -67l77 481h-184l20 132h184l39 241h150l-39 -241h188l-20 -132h-188l-77 -481h-150z" />
<glyph unicode="&#x2021;" horiz-adv-x="568" d="M250 253l34 214h-177l21 133h177l30 187h144l-30 -187h181l-21 -133h-181l-34 -214h181l-21 -133h-181l-30 -187h-144l30 187h-177l21 133h177z" />
<glyph unicode="&#x2022;" horiz-adv-x="309" d="M95 342q0 57 37 92.5t96 35.5q47 0 73.5 -25t26.5 -67q0 -57 -37.5 -92.5t-96.5 -35.5q-46 0 -72.5 25t-26.5 67z" />
<glyph unicode="&#x2026;" horiz-adv-x="751" d="M49 53q0 42 27 68t70 26q34 0 53 -18t19 -50q0 -41 -27.5 -67t-69.5 -26q-34 0 -53 18t-19 49zM301 53q0 42 27 68t70 26q34 0 53 -18t19 -49q0 -42 -27 -68t-70 -26q-34 0 -53 18t-19 49zM555 53q0 42 27 68t70 26q34 0 53 -18t19 -50q0 -41 -27.5 -67t-69.5 -26 q-34 0 -53 18t-19 49z" />
<glyph unicode="&#x202f;" horiz-adv-x="223" />
<glyph unicode="&#x2030;" horiz-adv-x="1075" d="M463 138q0 81 61.5 140.5t145.5 59.5q79 0 119 -64q61 64 141 64q66 0 108 -44t42 -109q0 -81 -61.5 -140t-144.5 -59q-80 0 -120 63q-61 -63 -140 -63q-67 0 -109 43.5t-42 108.5zM132 534q0 81 61.5 140.5t145.5 59.5q67 0 109 -44t42 -109q0 -81 -61.5 -140 t-144.5 -59q-67 0 -109.5 43.5t-42.5 108.5zM558 146q0 -34 19 -54.5t50 -20.5q40 0 69.5 30t29.5 75q0 35 -19.5 56t-50.5 21q-40 0 -69 -30t-29 -77zM227 542q0 -34 19.5 -54.5t50.5 -20.5q39 0 68.5 30t29.5 75q0 35 -19.5 56t-49.5 21q-41 0 -70 -30t-29 -77zM818 146 q0 -34 19 -54.5t50 -20.5q40 0 69.5 30t29.5 75q0 35 -19.5 56t-50.5 21q-40 0 -69 -30t-29 -77zM116 0l627 720h89l-627 -720h-89z" />
<glyph unicode="&#x2039;" horiz-adv-x="408" d="M448 500l-205 -250l126 -250h-161l-118 250l197 250h161z" />
<glyph unicode="&#x203a;" horiz-adv-x="408" d="M55 0l205 250l-126 250h161l119 -250l-198 -250h-161z" />
<glyph unicode="&#x2044;" horiz-adv-x="632" d="M15 0l627 720h89l-627 -720h-89z" />
<glyph unicode="&#x205f;" horiz-adv-x="279" />
<glyph unicode="&#x2070;" horiz-adv-x="405" d="M108 494q0 98 60.5 169t150.5 71q68 0 106.5 -47.5t38.5 -121.5q0 -99 -59.5 -169.5t-150.5 -70.5q-68 0 -107 47.5t-39 121.5zM216 503q0 -37 14.5 -58t39.5 -21q39 0 63.5 37t24.5 95q0 37 -14.5 58.5t-39.5 21.5q-38 0 -63 -37.5t-25 -95.5z" />
<glyph unicode="&#x2074;" horiz-adv-x="351" d="M346 337h-91l12 73h-197l188 316h100l-140 -234h70l14 90h83l-14 -90h48l-14 -85h-48z" />
<glyph unicode="&#x20a4;" horiz-adv-x="631" d="M524 248h-194l-3 -22q-11 -67 -45 -102h294l-20 -124h-491q87 93 110 203q4 17 8 45h-87l13 80h87l10 64h-82l13 81h82l5 32q18 111 93.5 170t193.5 59q87 0 145 -23l-21 -132q-52 26 -125 26q-58 0 -95.5 -30t-45.5 -85l-3 -17h199l-13 -81h-199l-10 -64h194z" />
<glyph unicode="&#x20ac;" horiz-adv-x="795" d="M676 392h-326q-4 -13 -7 -32q-1 -5 -1.5 -10.5t-1 -12t-0.5 -9.5h316l-13 -80h-291q18 -55 65.5 -88t115.5 -33q109 0 213 50l-23 -143q-96 -48 -222 -48q-129 0 -214 72t-101 190h-112l13 80h98q2 20 4 32q5 30 6 32h-88l13 81h103q53 116 161.5 188.5t239.5 72.5 q114 0 197 -50l-22 -141q-89 50 -186 50q-70 0 -129 -32.5t-94 -87.5h299z" />
<glyph unicode="&#x2122;" horiz-adv-x="663" d="M644 593l-93 -94l-63 95l-28 -175h-86l48 301h78l67 -114l105 114h77l-48 -301h-85zM376 638h-78l-35 -219h-93l35 219h-77l13 82h248z" />
<glyph unicode="&#x212e;" horiz-adv-x="1026" d="M980 342h-669q-5 0 -7 -5l-30 -191q-2 -14 5 -25q82 -94 239 -94q168 0 283 106h60q-67 -67 -158 -106t-192 -39q-158 0 -258.5 93.5t-100.5 232.5q0 84 40 161.5t105.5 133.5t152.5 89.5t179 33.5q112 0 199 -51t128.5 -138.5t25.5 -188.5zM835 385l30 190q2 13 -5 25 q-81 93 -236 93q-156 0 -268 -93q-13 -14 -14 -28l-30 -187q-1 -7 5 -7h514q3 0 4 7z" />
<glyph unicode="&#x2153;" horiz-adv-x="823" d="M170 720h168l-48 -303h76l-13 -81h-249l13 81h77l35 221h-72zM712 279q0 34 -57 34q-43 0 -91 -19l13 82q54 21 105 21q61 0 95.5 -27t34.5 -71q0 -68 -82 -102q59 -23 59 -80q0 -59 -49 -94.5t-123 -35.5q-64 0 -104 22l13 81q45 -19 97 -19q51 0 63 31q6 16 -8 25 q-2 34 -64 34h-20l12 72h24q34 0 58 13t24 33zM100 0l627 720h89l-627 -720h-89z" />
<glyph unicode="&#x2154;" horiz-adv-x="879" d="M172 622l13 87q42 25 103 25q62 0 96.5 -32t34.5 -86q0 -17 -3.5 -33t-13 -33t-16 -28.5t-23 -29t-23.5 -24.5t-26.5 -26t-24.5 -24h118l-13 -82h-290q127 120 157 154q60 67 60 107q0 24 -15.5 37.5t-42.5 13.5q-48 0 -91 -26zM768 279q0 34 -57 34q-42 0 -90 -19l13 82 q54 21 105 21q61 0 95.5 -27t34.5 -71q0 -68 -82 -102q59 -23 59 -80q0 -59 -49 -94.5t-123 -35.5q-63 0 -105 22l13 81q45 -19 98 -19q51 0 63 31q6 16 -8 25q-2 34 -64 34h-21l12 72h24q35 0 58.5 12.5t23.5 33.5zM156 0l627 720h89l-627 -720h-89z" />
<glyph unicode="&#x2212;" horiz-adv-x="612" d="M131 302l18 116h445l-18 -116h-445z" />
<glyph unicode="&#x2215;" horiz-adv-x="632" d="M15 0l627 720h89l-627 -720h-89z" />
<glyph unicode="&#x2219;" horiz-adv-x="246" d="M95 343q0 42 27 68t70 26q34 0 53 -18t19 -50q0 -41 -27.5 -67t-69.5 -26q-34 0 -53 18t-19 49z" />
<glyph unicode="&#x2248;" horiz-adv-x="597" d="M143 381l18 110q19 16 55 27.5t75 11.5q32 0 89 -16.5t90 -16.5q71 0 128 38l-18 -110q-19 -16 -55 -27.5t-75 -11.5q-33 0 -90 16.5t-90 16.5q-68 0 -127 -38zM114 186l18 110q19 16 55 27.5t74 11.5q33 0 90 -16.5t90 -16.5q71 0 127 37l-18 -109q-19 -17 -55 -28.5 t-74 -11.5q-33 0 -90 17t-90 17q-68 0 -127 -38z" />
<glyph unicode="&#x2260;" horiz-adv-x="612" d="M147 406l19 118h267l100 163h50l-100 -163h128l-19 -118h-177l-56 -92h219l-19 -118h-267l-99 -163h-50l100 163h-129l19 118h176l57 92h-219z" />
<glyph unicode="&#x2264;" horiz-adv-x="607" d="M82 24l12 74h443l-12 -74h-443zM121 429l513 287l-24 -154l-247 -133l205 -131l-24 -154z" />
<glyph unicode="&#x2265;" horiz-adv-x="607" d="M200 716l422 -287l-512 -285l24 154l247 131l-205 133zM546 98l-12 -74h-443l12 74h443z" />
<glyph unicode="&#x25fc;" horiz-adv-x="500" d="M0 500h500v-500h-500v500z" />
<glyph unicode="&#xf6c3;" horiz-adv-x="268" d="M219 -54l-101 -180h-115l65 180h151z" />
<glyph horiz-adv-x="333" />
<glyph horiz-adv-x="708" d="M-3 0l403 720h136l174 -720h-161l-32 149h-278l-80 -149h-162zM303 270h188q-19 83 -53 261h-1q-88 -178 -134 -261z" />
<glyph horiz-adv-x="708" d="M-3 0l403 720h136l174 -720h-161l-32 149h-278l-80 -149h-162zM423 781l123 203h184l-186 -203h-121zM303 270h188q-19 83 -53 261h-1q-88 -178 -134 -261z" />
<glyph horiz-adv-x="708" d="M-3 0l403 720h136l174 -720h-161l-32 149h-278l-80 -149h-162zM556 957h109q-12 -78 -59.5 -122.5t-125.5 -44.5t-111.5 44.5t-19.5 122.5h109q-13 -66 38 -66q24 0 39.5 17.5t20.5 48.5zM303 270h188q-19 83 -53 261h-1q-88 -178 -134 -261z" />
<glyph horiz-adv-x="708" d="M-3 0l403 720h136l174 -720h-161l-32 149h-278l-80 -149h-162zM293 783l142 199h150l78 -199h-127l-40 114l-76 -114h-127zM303 270h188q-19 83 -53 261h-1q-88 -178 -134 -261z" />
<glyph horiz-adv-x="708" d="M-3 0l403 720h136l174 -720h-161l-32 149h-278l-80 -149h-162zM303 270h188q-19 83 -53 261h-1q-88 -178 -134 -261zM298 864q0 42 26.5 67.5t70.5 25.5q33 0 52 -18t19 -49q0 -42 -27.5 -67.5t-69.5 -25.5q-33 0 -52 18t-19 49zM522 864q0 42 26.5 67.5t70.5 25.5 q33 0 52 -18t19 -49q0 -42 -27.5 -67.5t-69.5 -25.5q-33 0 -52 18t-19 49z" />
<glyph horiz-adv-x="708" d="M-3 0l403 720h136l174 -720h-161l-32 149h-278l-80 -149h-162zM483 984l58 -203h-120l-123 203h185zM303 270h188q-19 83 -53 261h-1q-88 -178 -134 -261z" />
<glyph horiz-adv-x="708" d="M-3 0l403 720h136l174 -720h-161l-32 149h-278l-80 -149h-162zM313 821l18 112h344l-18 -112h-344zM303 270h188q-19 83 -53 261h-1q-88 -178 -134 -261z" />
<glyph horiz-adv-x="708" d="M-3 0l403 720h136l174 -720h-5q-95 -57 -95 -112q0 -31 36 -31q20 0 46 8l-14 -89q-30 -10 -67 -10q-53 0 -85.5 22t-32.5 64q0 86 138 148h-82l-32 149h-278l-80 -149h-162zM303 270h188q-19 83 -53 261h-1q-88 -178 -134 -261z" />
<glyph horiz-adv-x="708" d="M-3 0l403 720h136l174 -720h-161l-32 149h-278l-80 -149h-162zM371 862q0 54 40.5 87t98.5 33q46 0 75.5 -24.5t29.5 -66.5q0 -54 -40.5 -86.5t-98.5 -32.5q-46 0 -75.5 24.5t-29.5 65.5zM303 270h188q-19 83 -53 261h-1q-88 -178 -134 -261zM456 871q0 -30 31 -30 q19 0 31 11.5t12 29.5q0 30 -32 30q-18 0 -30 -12t-12 -29z" />
<glyph horiz-adv-x="708" d="M-3 0l403 720h136l174 -720h-161l-32 149h-278l-80 -149h-162zM371 841q0 53 38.5 83.5t95.5 30.5q47 0 75 -22.5t28 -62.5q0 -53 -38 -83.5t-96 -30.5q-46 0 -74.5 22.5t-28.5 62.5zM303 270h188q-19 83 -53 261h-1q-88 -178 -134 -261zM530 1115h180l-140 -139h-130z M456 851q0 -27 29 -27q16 0 27 10.5t11 25.5q0 11 -8 18.5t-21 7.5q-17 0 -27.5 -10t-10.5 -25z" />
<glyph horiz-adv-x="708" d="M-3 0l403 720h136l174 -720h-161l-32 149h-278l-80 -149h-162zM427 951q28 0 77.5 -16.5t75.5 -16.5q57 0 98 38l-18 -114q-13 -15 -41 -26.5t-59 -11.5q-29 0 -78.5 16.5t-75.5 16.5q-55 0 -98 -38l17 113q14 15 42.5 27t59.5 12zM303 270h188q-19 83 -53 261h-1 q-88 -178 -134 -261z" />
<glyph horiz-adv-x="310" d="M346 720l-115 -727q-34 -219 -246 -219q-66 0 -98 19l21 129q26 -17 72 -17q83 0 96 84l116 731h154z" />
<glyph horiz-adv-x="310" d="M346 720l-115 -727q-34 -219 -246 -219q-66 0 -98 19l21 129q26 -17 72 -17q83 0 96 84l116 731h154zM93 783l143 199h149l79 -199h-127l-40 114l-76 -114h-128z" />
<glyph horiz-adv-x="695" d="M346 720l-54 -340l334 340h182l-303 -301l193 -419h-172l-140 320l-122 -117l-32 -203h-154l114 720h154z" />
<glyph horiz-adv-x="666" d="M346 720l-54 -341l334 341h182l-299 -298q69 -307 215 -451.5t353 -144.5q85 0 157 14l-22 -135q-62 -21 -159 -21q-519 0 -668 634l-122 -120l-31 -198h-154l114 720h154z" />
<glyph horiz-adv-x="641" d="M346 720l-54 -340l334 340h182l-300 -297l32 -137q53 -219 147 -313t242 -94q86 0 152 17l-21 -131q-60 -23 -157 -23q-192 0 -315.5 108.5t-183.5 362.5l-24 101l-116 -111l-32 -203h-154l114 720h154z" />
<glyph horiz-adv-x="695" d="M346 720l-54 -340l334 340h182l-303 -301l193 -419h-172l-140 320l-122 -117l-32 -203h-154l114 720h154zM337 -234l101 180h-151l-65 -180h115z" />
<glyph horiz-adv-x="630" d="M346 720l-54 -341l334 341h182l-299 -298q69 -307 215 -451.5t353 -144.5q85 0 157 14l-22 -135q-62 -21 -159 -21q-519 0 -668 634l-122 -120l-31 -198h-154l114 720h154zM396 -54l-101 -180h-116l65 180h152z" />
<glyph horiz-adv-x="606" d="M346 720l-54 -340l334 340h182l-300 -297l32 -137q53 -219 147 -313t242 -94q86 0 152 17l-21 -131q-60 -23 -157 -23q-192 0 -315.5 108.5t-183.5 362.5l-24 101l-116 -111l-32 -203h-154l114 720h154zM386 -54l-101 -180h-116l65 180h152z" />
<glyph horiz-adv-x="894" d="M473 162l-168 311l-75 -473h-152l114 720h142l174 -337l280 337h141l-114 -720h-152l75 473z" />
<glyph horiz-adv-x="789" d="M711 0h-136l-271 457l-72 -457h-154l114 720h136l269 -467l74 467h154z" />
<glyph horiz-adv-x="789" d="M711 0h-136l-271 457l-72 -457h-154l114 720h136l269 -467l74 467h154zM435 781l123 203h184l-186 -203h-121z" />
<glyph horiz-adv-x="789" d="M711 0h-136l-271 457l-72 -457h-154l114 720h136l269 -467l74 467h154zM727 982l-142 -199h-150l-78 199h127l39 -115l77 115h127z" />
<glyph horiz-adv-x="789" d="M711 0h-136l-271 457l-72 -457h-154l114 720h136l269 -467l74 467h154zM463 -54l-101 -180h-115l65 180h151z" />
<glyph horiz-adv-x="789" d="M711 0h-136l-271 457l-72 -457h-154l114 720h136l269 -467l74 467h154zM449 951q28 0 77.5 -16.5t75.5 -16.5q57 0 98 38l-18 -114q-13 -15 -41 -26.5t-59 -11.5q-28 0 -78 16.5t-76 16.5q-55 0 -98 -38l17 113q14 15 42.5 27t59.5 12z" />
<glyph horiz-adv-x="833" d="M84 308q0 173 130.5 299.5t310.5 126.5q144 0 233.5 -92.5t89.5 -230.5q0 -106 -53 -196.5t-144 -150.5q225 -255 544 -255q159 0 288 58l-22 -138q-39 -23 -129 -41t-161 -18q-195 0 -357.5 82t-307.5 246q-55 -12 -99 -12q-145 0 -234 91.5t-89 230.5zM241 326 q0 -85 51.5 -142t136.5 -57q108 0 185 79t77 187q0 85 -51.5 142.5t-136.5 57.5q-107 0 -184.5 -79.5t-77.5 -187.5z" />
<glyph horiz-adv-x="826" d="M84 308q0 173 130.5 299.5t310.5 126.5q144 0 233.5 -92.5t89.5 -230.5q0 -111 -58 -205t-155 -153q141 -187 370 -187q119 0 215 43l-22 -138q-34 -18 -93.5 -31t-123.5 -13q-294 0 -495 267q-43 -8 -79 -8q-145 0 -234 91.5t-89 230.5zM241 326q0 -85 51.5 -142 t136.5 -57q108 0 185 79t77 187q0 85 -51.5 142.5t-136.5 57.5q-107 0 -184.5 -79.5t-77.5 -187.5z" />
<glyph horiz-adv-x="653" d="M192 720h253q114 0 179 -52t65 -148q0 -89 -48 -151t-125 -91l107 -278h-163l-87 252h-104l-40 -252h-151zM429 591h-106l-34 -215h110q60 0 96.5 32.5t36.5 92.5q0 44 -27.5 67t-75.5 23z" />
<glyph horiz-adv-x="649" d="M192 720h250q115 0 181 -52t66 -148q0 -87 -48.5 -150.5t-125.5 -91.5q17 -56 39 -112q70 -179 202.5 -261t323.5 -82q93 0 172 21l-21 -134q-69 -26 -181 -26q-486 0 -637 446q-26 80 -37 122h-107l-40 -252h-151zM429 591h-106l-34 -215h110q61 0 97 32.5t36 93.5 q0 44 -27 66.5t-76 22.5z" />
<glyph horiz-adv-x="632" d="M192 720h250q115 0 181 -52t66 -148q0 -86 -48.5 -148t-124.5 -92q16 -60 27 -97q95 -305 382 -305q82 0 156 19l-21 -131q-60 -25 -161 -25q-412 0 -509 446l-16 65h-105l-40 -252h-151zM429 591h-106l-34 -215h110q61 0 97 32.5t36 93.5q0 44 -27 66.5t-76 22.5z" />
<glyph horiz-adv-x="655" d="M192 720h253q114 0 179 -52t65 -148q0 -89 -48 -151t-125 -91l107 -278h-163l-87 252h-104l-40 -252h-151zM429 591h-106l-34 -215h110q60 0 96.5 32.5t36.5 92.5q0 44 -27.5 67t-75.5 23zM351 781l123 203h184l-186 -203h-121z" />
<glyph horiz-adv-x="651" d="M192 720h250q115 0 181 -52t66 -148q0 -87 -48.5 -150.5t-125.5 -91.5q17 -56 39 -112q70 -179 202.5 -261t323.5 -82q93 0 172 21l-21 -134q-69 -26 -181 -26q-486 0 -637 446q-26 80 -37 122h-107l-40 -252h-151zM429 591h-106l-34 -215h110q61 0 97 32.5t36 93.5 q0 44 -27 66.5t-76 22.5zM357 781l122 203h185l-186 -203h-121z" />
<glyph horiz-adv-x="632" d="M192 720h250q115 0 181 -52t66 -148q0 -86 -48.5 -148t-124.5 -92q16 -60 27 -97q95 -305 382 -305q82 0 156 19l-21 -131q-60 -25 -161 -25q-412 0 -509 446l-16 65h-105l-40 -252h-151zM429 591h-106l-34 -215h110q61 0 97 32.5t36 93.5q0 44 -27 66.5t-76 22.5z M357 781l122 203h185l-186 -203h-121z" />
<glyph horiz-adv-x="655" d="M192 720h253q114 0 179 -52t65 -148q0 -89 -48 -151t-125 -91l107 -278h-163l-87 252h-104l-40 -252h-151zM429 591h-106l-34 -215h110q60 0 96.5 32.5t36.5 92.5q0 44 -27.5 67t-75.5 23zM644 982l-143 -199h-150l-78 199h127l39 -115l77 115h128z" />
<glyph horiz-adv-x="651" d="M192 720h250q115 0 181 -52t66 -148q0 -87 -48.5 -150.5t-125.5 -91.5q17 -56 39 -112q70 -179 202.5 -261t323.5 -82q93 0 172 21l-21 -134q-69 -26 -181 -26q-486 0 -637 446q-26 80 -37 122h-107l-40 -252h-151zM429 591h-106l-34 -215h110q61 0 97 32.5t36 93.5 q0 44 -27 66.5t-76 22.5zM642 982l-143 -199h-149l-79 199h127l40 -115l77 115h127z" />
<glyph horiz-adv-x="632" d="M192 720h250q115 0 181 -52t66 -148q0 -86 -48.5 -148t-124.5 -92q16 -60 27 -97q95 -305 382 -305q82 0 156 19l-21 -131q-60 -25 -161 -25q-412 0 -509 446l-16 65h-105l-40 -252h-151zM429 591h-106l-34 -215h110q61 0 97 32.5t36 93.5q0 44 -27 66.5t-76 22.5z M642 982l-143 -199h-149l-79 199h127l40 -115l77 115h127z" />
<glyph horiz-adv-x="655" d="M192 720h253q114 0 179 -52t65 -148q0 -89 -48 -151t-125 -91l107 -278h-163l-87 252h-104l-40 -252h-151zM429 591h-106l-34 -215h110q60 0 96.5 32.5t36.5 92.5q0 44 -27.5 67t-75.5 23zM304 -234l101 180h-151l-65 -180h115z" />
<glyph horiz-adv-x="651" d="M192 720h250q115 0 181 -52t66 -148q0 -87 -48.5 -150.5t-125.5 -91.5q17 -56 39 -112q70 -179 202.5 -261t323.5 -82q93 0 172 21l-21 -134q-69 -26 -181 -26q-486 0 -637 446q-26 80 -37 122h-107l-40 -252h-151zM429 591h-106l-34 -215h110q61 0 97 32.5t36 93.5 q0 44 -27 66.5t-76 22.5zM371 -54l-101 -180h-116l65 180h152z" />
<glyph horiz-adv-x="632" d="M192 720h250q115 0 181 -52t66 -148q0 -86 -48.5 -148t-124.5 -92q16 -60 27 -97q95 -305 382 -305q82 0 156 19l-21 -131q-60 -25 -161 -25q-412 0 -509 446l-16 65h-105l-40 -252h-151zM429 591h-106l-34 -215h110q61 0 97 32.5t36 93.5q0 44 -27 66.5t-76 22.5z M360 -54l-101 -180h-115l65 180h151z" />
<glyph horiz-adv-x="708" d="M387 206l266 514h171l-403 -720h-134l-176 720h172l103 -514h1z" />
<glyph horiz-adv-x="1080" d="M792 224l233 496h171l-367 -720h-133l-87 452l-226 -452h-132l-140 720h172l75 -496h1l238 496h109l85 -496h1z" />
<glyph horiz-adv-x="1080" d="M792 224l233 496h171l-367 -720h-133l-87 452l-226 -452h-132l-140 720h172l75 -496h1l238 496h109l85 -496h1zM599 781l123 203h184l-186 -203h-121z" />
<glyph horiz-adv-x="1080" d="M792 224l233 496h171l-367 -720h-133l-87 452l-226 -452h-132l-140 720h172l75 -496h1l238 496h109l85 -496h1zM478 783l143 199h149l79 -199h-128l-40 114l-76 -114h-127z" />
<glyph horiz-adv-x="1080" d="M792 224l233 496h171l-367 -720h-133l-87 452l-226 -452h-132l-140 720h172l75 -496h1l238 496h109l85 -496h1zM707 864q0 42 26.5 67.5t70.5 25.5q33 0 52 -18t19 -49q0 -42 -27.5 -67.5t-69.5 -25.5q-33 0 -52 18t-19 49zM483 864q0 42 26.5 67.5t70.5 25.5 q33 0 52 -18t19 -49q0 -42 -27.5 -67.5t-69.5 -25.5q-33 0 -52 18t-19 49z" />
<glyph horiz-adv-x="1080" d="M792 224l233 496h171l-367 -720h-133l-87 452l-226 -452h-132l-140 720h172l75 -496h1l238 496h109l85 -496h1zM659 984l59 -203h-121l-122 203h184z" />
<glyph horiz-adv-x="585" d="M55 125l410 465h-318l21 130h483l-20 -125l-410 -465h355l-21 -130h-520z" />
<glyph horiz-adv-x="554" d="M1264 -132l-22 -139q-44 -26 -121 -42.5t-159 -16.5q-76 0 -146.5 16.5t-122 39.5t-108.5 62t-93 70t-90 78.5t-86 72.5q-33 28 -54.5 39.5t-48.5 13.5l-59 -76h-149l462 605h-317l20 129h551l-417 -544q57 -11 118 -61q31 -24 89 -76t99 -84t100.5 -69t128.5 -55.5 t147 -18.5q70 0 149.5 15.5t128.5 40.5z" />
<glyph horiz-adv-x="554" d="M1264 -131l-22 -139q-44 -26 -120.5 -42.5t-159.5 -16.5q-76 0 -146.5 16.5t-122 39.5t-108.5 61.5t-93 69.5t-90 78.5t-86 72.5q-33 28 -54.5 39.5t-48.5 13.5l-59 -76h-149l479 604h-335l21 130h497l-19 -123l-344 -421q57 -11 118 -61q31 -24 89 -76t99 -84 t100.5 -68.5t128.5 -55t147 -18.5q71 0 150 15t128 41z" />
<glyph horiz-adv-x="531" d="M1036 -88l-20 -135q-41 -22 -104 -36t-124 -14q-60 0 -117.5 15t-98.5 34.5t-88 55t-71.5 59t-66 64.5t-55.5 55q-47 43 -79 50l-58 -74h-149l462 605h-317l20 129h551l-417 -545q39 -8 87 -51q21 -19 61 -62t70.5 -71.5t74.5 -60.5t98 -48.5t116 -16.5q59 0 122 13 t103 34z" />
<glyph horiz-adv-x="531" d="M1036 -88l-20 -135q-41 -22 -104 -36t-124 -14q-60 0 -117.5 15t-98.5 34.5t-88 55t-71.5 59t-66 64.5t-55.5 55q-47 43 -79 50l-58 -74h-149l479 604h-335l21 130h497l-19 -123l-344 -422q39 -8 87 -51q21 -19 61 -62t70.5 -71.5t74.5 -60.5t98 -48.5t116 -16.5 q59 0 122 13t103 34z" />
<glyph horiz-adv-x="595" d="M55 125l410 465h-318l21 130h483l-20 -125l-410 -465h355l-21 -130h-520zM353 781l123 203h184l-186 -203h-121z" />
<glyph horiz-adv-x="523" d="M1264 -132l-22 -139q-44 -26 -121 -42.5t-159 -16.5q-76 0 -146.5 16.5t-122 39t-109 62t-93 70t-90 78.5t-85.5 73q-34 28 -54.5 39.5t-48.5 13.5l-59 -76h-149l462 605h-317l20 129h551l-417 -544q57 -11 118 -61q31 -24 89 -76t99 -84t100.5 -69t128.5 -55.5 t147 -18.5q70 0 149.5 15.5t128.5 40.5zM367 781l123 203h184l-186 -203h-121z" />
<glyph horiz-adv-x="523" d="M1264 -131l-22 -139q-44 -26 -120.5 -42.5t-159.5 -16.5q-76 0 -146.5 16.5t-121.5 39t-109 62t-93.5 69.5t-90.5 78t-85 73q-34 28 -54.5 39.5t-48.5 13.5l-59 -76h-149l479 604h-335l21 130h497l-19 -123l-344 -421q57 -11 118 -61q31 -24 89 -76t99 -84t100.5 -68.5 t128.5 -55t147 -18.5q71 0 150 15t128 41zM357 781l123 203h184l-186 -203h-121z" />
<glyph d="M1036 -88q-4 -22 -10 -67t-10 -68q-41 -22 -104 -36t-124 -14q-52 0 -100.5 9.5t-91 29.5t-76 39.5t-70 51t-58 52t-55 54.5t-46.5 47q-47 43 -79 50l-58 -74h-149l462 605h-317l20 129h551l-417 -545q39 -8 87 -51q20 -19 60 -62t70.5 -71.5t75 -60.5t98.5 -48.5 t116 -16.5q59 0 122 13t103 34zM367 781l123 203h184l-186 -203h-121z" />
<glyph d="M1036 -88q-4 -22 -10 -67t-10 -68q-41 -22 -104 -36t-124 -14q-52 0 -100.5 9.5t-91 29.5t-76 39.5t-70 51t-58 52t-55 54.5t-46.5 47q-47 43 -79 50l-58 -74h-149l479 604h-335l21 130h497l-19 -123l-344 -422q39 -8 87 -51q20 -19 60 -62t70.5 -71.5t75 -60.5 t98.5 -48.5t116 -16.5q59 0 122 13t103 34zM357 781l123 203h184l-186 -203h-121z" />
<glyph horiz-adv-x="590" d="M55 125l410 465h-318l21 130h483l-20 -125l-410 -465h355l-21 -130h-520zM642 982l-143 -199h-149l-79 199h128l39 -115l77 115h127z" />
<glyph horiz-adv-x="523" d="M1264 -132l-22 -139q-44 -26 -121 -42.5t-159 -16.5q-76 0 -146.5 16.5t-122 39t-109 62t-93 70t-90 78.5t-85.5 73q-34 28 -54.5 39.5t-48.5 13.5l-59 -76h-149l462 605h-317l20 129h551l-417 -544q57 -11 118 -61q31 -24 89 -76t99 -84t100.5 -69t128.5 -55.5 t147 -18.5q70 0 149.5 15.5t128.5 40.5zM663 982l-143 -199h-150l-78 199h127l39 -115l77 115h128z" />
<glyph horiz-adv-x="523" d="M1264 -131l-22 -139q-44 -26 -120.5 -42.5t-159.5 -16.5q-76 0 -146.5 16.5t-121.5 39t-109 62t-93.5 69.5t-90.5 78t-85 73q-34 28 -54.5 39.5t-48.5 13.5l-59 -76h-149l479 604h-335l21 130h497l-19 -123l-344 -421q57 -11 118 -61q31 -24 89 -76t99 -84t100.5 -68.5 t128.5 -55t147 -18.5q71 0 150 15t128 41zM652 982l-142 -199h-150l-78 199h127l39 -115l77 115h127z" />
<glyph d="M1036 -88q-4 -22 -10 -67t-10 -68q-41 -22 -104 -36t-124 -14q-52 0 -100.5 9.5t-91 29.5t-76 39.5t-70 51t-58 52t-55 54.5t-46.5 47q-47 43 -79 50l-58 -74h-149l462 605h-317l20 129h551l-417 -545q39 -8 87 -51q20 -19 60 -62t70.5 -71.5t75 -60.5t98.5 -48.5 t116 -16.5q59 0 122 13t103 34zM663 982l-143 -199h-150l-78 199h127l39 -115l77 115h128z" />
<glyph d="M1036 -88q-4 -22 -10 -67t-10 -68q-41 -22 -104 -36t-124 -14q-52 0 -100.5 9.5t-91 29.5t-76 39.5t-70 51t-58 52t-55 54.5t-46.5 47q-47 43 -79 50l-58 -74h-149l479 604h-335l21 130h497l-19 -123l-344 -422q39 -8 87 -51q20 -19 60 -62t70.5 -71.5t75 -60.5 t98.5 -48.5t116 -16.5q59 0 122 13t103 34zM652 982l-142 -199h-150l-78 199h127l39 -115l77 115h127z" />
<glyph horiz-adv-x="585" d="M55 125l410 465h-318l21 130h483l-20 -125l-410 -465h355l-21 -130h-520zM350 864q0 42 26.5 67.5t70.5 25.5q33 0 52 -18t19 -49q0 -42 -26.5 -67.5t-70.5 -25.5q-33 0 -52 18t-19 49z" />
<glyph horiz-adv-x="523" d="M1264 -132l-22 -139q-44 -26 -121 -42.5t-159 -16.5q-76 0 -146.5 16.5t-122 39.5t-108.5 62t-93 70t-90 78.5t-86 72.5q-33 28 -54.5 39.5t-48.5 13.5l-59 -76h-149l462 605h-317l20 129h551l-417 -544q57 -11 118 -61q31 -24 89 -76t99 -84t100.5 -69t128.5 -55.5 t147 -18.5q70 0 149.5 15.5t128.5 40.5zM382 864q0 42 27 67.5t70 25.5q33 0 52 -18t19 -49q0 -42 -26.5 -67.5t-70.5 -25.5q-33 0 -52 18t-19 49z" />
<glyph horiz-adv-x="523" d="M1264 -131l-22 -139q-44 -26 -120.5 -42.5t-159.5 -16.5q-76 0 -146.5 16.5t-122 39.5t-108.5 61.5t-93 69.5t-90 78.5t-86 72.5q-33 28 -54.5 39.5t-48.5 13.5l-59 -76h-149l479 604h-335l21 130h497l-19 -123l-344 -421q57 -11 118 -61q31 -24 89 -76t99 -84 t100.5 -68.5t128.5 -55t147 -18.5q71 0 150 15t128 41zM367 864q0 42 26.5 67.5t70.5 25.5q33 0 52 -18t19 -49q0 -42 -27.5 -67.5t-69.5 -25.5q-33 0 -52 18t-19 49z" />
<glyph d="M1036 -88l-20 -135q-41 -22 -104 -36t-124 -14q-60 0 -117.5 15t-98.5 34.5t-88 55t-71.5 59t-66 64.5t-55.5 55q-47 43 -79 50l-58 -74h-149l462 605h-317l20 129h551l-417 -545q39 -8 87 -51q21 -19 61 -62t70.5 -71.5t74.5 -60.5t98 -48.5t116 -16.5q59 0 122 13 t103 34zM382 864q0 42 27 67.5t70 25.5q33 0 52 -18t19 -49q0 -42 -26.5 -67.5t-70.5 -25.5q-33 0 -52 18t-19 49z" />
<glyph d="M1036 -88l-20 -135q-41 -22 -104 -36t-124 -14q-60 0 -117.5 15t-98.5 34.5t-88 55t-71.5 59t-66 64.5t-55.5 55q-47 43 -79 50l-58 -74h-149l479 604h-335l21 130h497l-19 -123l-344 -422q39 -8 87 -51q21 -19 61 -62t70.5 -71.5t74.5 -60.5t98 -48.5t116 -16.5 q59 0 122 13t103 34zM367 864q0 42 26.5 67.5t70.5 25.5q33 0 52 -18t19 -49q0 -42 -27.5 -67.5t-69.5 -25.5q-33 0 -52 18t-19 49z" />
<glyph d="M122 346l21 134q78 34 188 34q114 0 164.5 -52t35.5 -147l-50 -315h-135l4 46l8 35h-2q-19 -32 -64 -63.5t-106 -31.5q-60 0 -99 33t-39 94q0 103 93.5 153t238.5 29l2 12q7 43 -17.5 62.5t-76.5 19.5q-92 0 -166 -43zM243 100q43 0 77.5 34.5t42.5 82.5 q-83 14 -126.5 -8.5t-43.5 -63.5q0 -20 13.5 -32.5t36.5 -12.5z" />
<glyph d="M122 346l21 134q78 34 188 34q114 0 164.5 -52t35.5 -147l-50 -315h-135l4 46l8 35h-2q-19 -32 -64 -63.5t-106 -31.5q-60 0 -99 33t-39 94q0 103 93.5 153t238.5 29l2 12q7 43 -17.5 62.5t-76.5 19.5q-92 0 -166 -43zM243 100q43 0 77.5 34.5t42.5 82.5 q-83 14 -126.5 -8.5t-43.5 -63.5q0 -20 13.5 -32.5t36.5 -12.5zM269 561l111 173h190l-170 -173h-131z" />
<glyph d="M122 346l21 134q78 34 188 34q114 0 164.5 -52t35.5 -147l-50 -315h-135l4 46l8 35h-2q-19 -32 -64 -63.5t-106 -31.5q-60 0 -99 33t-39 94q0 103 93.5 153t238.5 29l2 12q7 43 -17.5 62.5t-76.5 19.5q-92 0 -166 -43zM243 100q43 0 77.5 34.5t42.5 82.5 q-83 14 -126.5 -8.5t-43.5 -63.5q0 -20 13.5 -32.5t36.5 -12.5zM415 728h109q-11 -76 -56.5 -118.5t-122.5 -42.5t-109 42.5t-19 118.5h109q-5 -29 4 -45t31 -16q46 0 54 61z" />
<glyph d="M122 346l21 134q78 34 188 34q114 0 164.5 -52t35.5 -147l-50 -315h-135l4 46l8 35h-2q-19 -32 -64 -63.5t-106 -31.5q-60 0 -99 33t-39 94q0 103 93.5 153t238.5 29l2 12q7 43 -17.5 62.5t-76.5 19.5q-92 0 -166 -43zM243 100q43 0 77.5 34.5t42.5 82.5 q-83 14 -126.5 -8.5t-43.5 -63.5q0 -20 13.5 -32.5t36.5 -12.5zM175 561l123 173h153l68 -173h-125l-32 95l-62 -95h-125z" />
<glyph horiz-adv-x="355" d="M129 561l123 203h184l-186 -203h-121z" />
<glyph horiz-adv-x="343" d="M222 706h181l-140 -139h-131z" />
<glyph d="M122 346l21 134q78 34 188 34q114 0 164.5 -52t35.5 -147l-50 -315h-135l4 46l8 35h-2q-19 -32 -64 -63.5t-106 -31.5q-60 0 -99 33t-39 94q0 103 93.5 153t238.5 29l2 12q7 43 -17.5 62.5t-76.5 19.5q-92 0 -166 -43zM243 100q43 0 77.5 34.5t42.5 82.5 q-83 14 -126.5 -8.5t-43.5 -63.5q0 -20 13.5 -32.5t36.5 -12.5zM162 630q0 42 27 68t70 26q33 0 52 -18t19 -50q0 -41 -27.5 -67t-69.5 -26q-33 0 -52 18.5t-19 48.5zM385 630q0 42 27 68t70 26q33 0 52 -18t19 -50q0 -41 -27.5 -67t-69.5 -26q-33 0 -52 18.5t-19 48.5z" />
<glyph d="M122 346l21 134q78 34 188 34q114 0 164.5 -52t35.5 -147l-50 -315h-135l4 46l8 35h-2q-19 -32 -64 -63.5t-106 -31.5q-60 0 -99 33t-39 94q0 103 93.5 153t238.5 29l2 12q7 43 -17.5 62.5t-76.5 19.5q-92 0 -166 -43zM243 100q43 0 77.5 34.5t42.5 82.5 q-83 14 -126.5 -8.5t-43.5 -63.5q0 -20 13.5 -32.5t36.5 -12.5zM372 734l58 -173h-131l-116 173h189z" />
<glyph d="M122 346l21 134q78 34 188 34q114 0 164.5 -52t35.5 -147l-50 -315h-135l4 46l8 35h-2q-19 -32 -64 -63.5t-106 -31.5q-60 0 -99 33t-39 94q0 103 93.5 153t238.5 29l2 12q7 43 -17.5 62.5t-76.5 19.5q-92 0 -166 -43zM243 100q43 0 77.5 34.5t42.5 82.5 q-83 14 -126.5 -8.5t-43.5 -63.5q0 -20 13.5 -32.5t36.5 -12.5zM184 589l18 109h328l-18 -109h-328z" />
<glyph horiz-adv-x="725" d="M556 372h128q-8 -134 -86 -230q34 -34 86 -36q27 -2 50 6l-19 -116q-28 -10 -70 -10q-80 0 -145 62q-90 -62 -205 -62q-117 0 -179 50t-62 127q0 129 173 215q-51 68 -51 140q0 81 60 141.5t146 70.5q27 4 57 -1q65 -7 107.5 -51.5t42.5 -102.5q0 -140 -179 -219 l102 -125q39 70 44 141zM421 138l-131 162q-92 -46 -92 -111q0 -38 31 -61.5t85 -23.5q58 0 107 34zM305 529q0 -39 41 -93q112 55 112 117q0 27 -18 45t-46 18q-35 0 -62 -25t-27 -62z" />
<glyph d="M122 346l21 134q78 34 188 34q114 0 164.5 -52t35.5 -147l-50 -314l1 -1q-45 -27 -70 -56.5t-25 -55.5q0 -31 35 -31q21 0 47 8l-14 -89q-30 -10 -68 -10q-53 0 -85.5 22t-32.5 64q0 86 139 148h-62l4 46l8 35h-2q-19 -32 -64 -63.5t-106 -31.5q-60 0 -99 33t-39 94 q0 103 93.5 153t238.5 29l2 12q7 43 -17.5 62.5t-76.5 19.5q-92 0 -166 -43zM243 100q43 0 77.5 34.5t42.5 82.5q-83 14 -126.5 -8.5t-43.5 -63.5q0 -20 13.5 -32.5t36.5 -12.5z" />
<glyph d="M122 346l21 134q78 34 188 34q114 0 164.5 -52t35.5 -147l-50 -315h-135l4 46l8 35h-2q-19 -32 -64 -63.5t-106 -31.5q-60 0 -99 33t-39 94q0 103 93.5 153t238.5 29l2 12q7 43 -17.5 62.5t-76.5 19.5q-92 0 -166 -43zM243 100q43 0 77.5 34.5t42.5 82.5 q-83 14 -126.5 -8.5t-43.5 -63.5q0 -20 13.5 -32.5t36.5 -12.5zM236 628q0 55 40 86.5t99 31.5q48 0 76.5 -23t28.5 -65q0 -54 -39 -85.5t-98 -31.5q-48 0 -77.5 23t-29.5 64zM321 638q0 -13 8.5 -21t23.5 -8q19 0 31 11t12 28q0 30 -32 30q-19 0 -31 -11.5t-12 -28.5z" />
<glyph d="M122 346l21 134q78 34 188 34q114 0 164.5 -52t35.5 -147l-50 -315h-135l4 46l8 35h-2q-19 -32 -64 -63.5t-106 -31.5q-60 0 -99 33t-39 94q0 103 93.5 153t238.5 29l2 12q7 43 -17.5 62.5t-76.5 19.5q-92 0 -166 -43zM243 100q43 0 77.5 34.5t42.5 82.5 q-83 14 -126.5 -8.5t-43.5 -63.5q0 -20 13.5 -32.5t36.5 -12.5zM238 623q0 53 38.5 83.5t96.5 30.5q46 0 74 -22.5t28 -62.5q0 -53 -38.5 -83.5t-95.5 -30.5q-46 0 -74.5 22.5t-28.5 62.5zM323 633q0 -27 29 -27q16 0 27 10.5t11 25.5q0 26 -28 26q-18 0 -28.5 -10 t-10.5 -25zM396 899h181l-140 -139h-131z" />
<glyph horiz-adv-x="635" d="M632 295h-156l-69 269l-154 -270h-156l260 432h151z" />
<glyph d="M122 346l21 134q78 34 188 34q114 0 164.5 -52t35.5 -147l-50 -315h-135l4 46l8 35h-2q-19 -32 -64 -63.5t-106 -31.5q-60 0 -99 33t-39 94q0 103 93.5 153t238.5 29l2 12q7 43 -17.5 62.5t-76.5 19.5q-92 0 -166 -43zM243 100q43 0 77.5 34.5t42.5 82.5 q-83 14 -126.5 -8.5t-43.5 -63.5q0 -20 13.5 -32.5t36.5 -12.5zM295 719q29 0 77 -16.5t74 -16.5q54 0 99 38l-18 -110q-14 -15 -42.5 -27t-58.5 -12q-28 0 -77 17t-74 17q-53 0 -99 -39l18 111q14 15 42 26.5t59 11.5z" />
<glyph horiz-adv-x="412" d="M372 737h109q-11 -78 -59 -122.5t-126 -44.5t-111 44.5t-20 122.5h109q-13 -66 38 -66q24 0 39.5 17.5t20.5 48.5z" />
<glyph horiz-adv-x="450" d="M532 762l-143 -199h-150l-78 199h127l39 -115l77 115h128z" />
<glyph horiz-adv-x="450" d="M129 563l142 199h150l79 -199h-128l-40 114l-76 -114h-127z" />
<glyph horiz-adv-x="470" d="M143 644q0 42 26.5 67.5t70.5 25.5q33 0 52 -18t19 -49q0 -42 -27 -67.5t-70 -25.5q-33 0 -52 18t-19 49zM367 644q0 42 26.5 67.5t70.5 25.5q33 0 52 -18t19 -49q0 -42 -27 -67.5t-70 -25.5q-33 0 -52 18t-19 49z" />
<glyph horiz-adv-x="246" d="M143 644q0 42 26.5 67.5t70.5 25.5q33 0 52 -18t19 -49q0 -42 -27 -67.5t-70 -25.5q-33 0 -52 18t-19 49z" />
<glyph horiz-adv-x="359" d="M99 500h71l7 45q14 87 76 138t161 51q41 0 65 -6l-20 -127q-16 7 -50 7q-39 0 -64.5 -21t-31.5 -59l-5 -28h117l-18 -117h-111l-61 -383h-149l61 383h-66z" />
<glyph horiz-adv-x="1128" d="M334 267l27 170h32l2 -11l5 3q11 11 30 11q42 0 42 -50q0 -35 -20 -56.5t-51 -21.5q-11 0 -19 5l-8 -50h-40zM822 267l27 170h32l2 -11l4 3q14 11 32 11q20 0 30.5 -14t10.5 -36q0 -35 -20 -56.5t-51 -21.5q-10 0 -20 5l-8 -50h-39zM561 440q26 0 40 -14t14 -38 q0 -33 -21 -54.5t-55 -21.5q-25 0 -38.5 14t-13.5 38q0 33 20.5 54.5t53.5 21.5zM730 322l-26 115h44l12 -84h1l33 84h43l-59 -125q-25 -50 -69 -50q-16 0 -28 7l9 28q1 0 4 -0.5t8 -1.5t10 -1q15 0 20 15zM173 461l6 35h144l-6 -35h-55l-23 -147h-39l23 147h-50zM601 461 l6 35h139l-6 -35h-50l-23 -147h-39l23 147h-50zM1082 368h-68q0 -24 23 -24q15 0 36 7l3 -29q-20 -10 -48 -10q-26 0 -40 14t-14 38q0 33 20.5 54.5t54.5 21.5q20 0 31 -11t11 -28t-9 -33zM271 314l19 123h40l-19 -123h-40zM909 176q0 15 9.5 25t24.5 10q25 0 25 -25 q0 -15 -10 -25.5t-25 -10.5q-11 0 -17.5 7.5t-6.5 18.5zM563 176q0 15 9.5 25t24.5 10q24 0 24 -25q0 -15 -9.5 -25.5t-24.5 -10.5q-10 0 -17 7.5t-7 18.5zM556 412q-29 0 -29 -46q0 -26 18 -26q29 0 29 46q0 26 -18 26zM883 403l-9 -57q6 -4 15 -4q13 0 21 12t8 30 q0 25 -18 25q-9 0 -17 -6zM396 403l-9 -57q2 -4 14 -4q29 0 29 42q0 25 -17 25q-11 0 -17 -6zM962 185q0 22 -20 22q-12 0 -20 -8t-8 -22q0 -22 21 -22q11 0 19 8.5t8 21.5zM616 185q0 22 -20 22q-12 0 -19.5 -8t-7.5 -23q0 -21 20 -21q11 0 19 8t8 22zM517 152h-5l9 58h18 q19 0 19 -14q0 -21 -25 -21h-12zM734 152h-5l9 58h18q19 0 19 -15q0 -20 -24 -20h-13zM192 208h4l11 -50l26 52h6l-30 -58h-6l-10 49l-27 -49h-5l-12 58h6l10 -52zM375 208h5l10 -50l27 52h5l-30 -58h-6l-10 49l-26 -49h-5l-12 58h6l10 -52zM977 152l9 58h7l18 -44l30 44h8 l-9 -58h-5l8 53l-31 -45h-4l-17 45l-8 -53h-6zM283 208h5l11 -50l25 52h6l-30 -58h-5l-11 49l-25 -49h-5l-12 58h4l11 -52zM538 207h-12l-5 -28h13q19 0 19 15q0 13 -15 13zM756 207h-13l-5 -28h13q18 0 18 15q0 13 -13 13zM1018 389h34q4 10 0.5 16.5t-11.5 6.5 q-17 0 -23 -23zM824 210v-3h-30l-4 -24h29l-1 -4h-29l-3 -23h31l-1 -4h-36l9 58h35zM890 211q8 0 13 -3q0 -1 -2 -3q-4 2 -12 2q-28 0 -28 -31q0 -21 23 -21q8 0 12 2l1 -4q-12 -3 -15 -3q-12 0 -19.5 7.5t-7.5 19.5q0 15 9.5 24.5t25.5 9.5zM690 152l4 22l-17 36h5l15 -32 l25 32h5l-28 -36l-4 -22h-5zM441 207v3h44v-3h-19l-9 -55h-5l9 55h-20zM630 207v3h44v-3h-19l-9 -55h-5l9 55h-20zM487 152l9 58h6l-9 -58h-6zM835 159q4 0 4 -4q0 -5 -5 -5q-4 0 -4 4q0 5 5 5zM421 159q2 0 2 -2q0 -7 -4 -7t-4 4q0 5 6 5z" />
<glyph horiz-adv-x="590" d="M480 0h-134l22 141h-324l19 120l292 459h158l-292 -452h170l29 182h131l-29 -182h90l-20 -127h-90z" />
<glyph horiz-adv-x="346" d="M341 337h-91l11 68h-182l12 72l161 249h101l-151 -239h79l15 95h84l-15 -95h48l-13 -85h-48z" />
<glyph d="M234 120q0 -13 22.5 -20t77.5 -15q92 -12 135 -41t43 -85q0 -86 -81.5 -136t-209.5 -50q-100 0 -160 31t-60 88q0 46 41.5 81.5t103.5 48.5q-28 4 -45 20t-17 40q0 27 24.5 50.5t68.5 37.5q-44 18 -69 54.5t-25 83.5q0 90 73.5 148t174.5 58q47 0 84 -14h185l-17 -106 h-58q-9 0 -15 1.5t-7 1.5q14 -22 14 -52q0 -73 -58 -125.5t-144 -63.5q-81 -13 -81 -36zM289 248q42 0 69 26.5t27 65.5q0 31 -19 50t-51 19q-41 0 -68 -27t-27 -66q0 -30 18.5 -49t50.5 -19zM240 -133q52 0 86.5 18.5t34.5 48.5q0 54 -108 54q-45 0 -75.5 -20t-30.5 -48 q0 -26 25.5 -39.5t67.5 -13.5z" />
<glyph d="M234 120q0 -13 22.5 -20t77.5 -15q92 -12 135 -41t43 -85q0 -86 -81.5 -136t-209.5 -50q-100 0 -160 31t-60 88q0 46 41.5 81.5t103.5 48.5q-28 4 -45 20t-17 40q0 27 24.5 50.5t68.5 37.5q-44 18 -69 54.5t-25 83.5q0 90 73.5 148t174.5 58q47 0 84 -14h185l-17 -106 h-58q-9 0 -15 1.5t-7 1.5q14 -22 14 -52q0 -73 -58 -125.5t-144 -63.5q-81 -13 -81 -36zM289 248q42 0 69 26.5t27 65.5q0 31 -19 50t-51 19q-41 0 -68 -27t-27 -66q0 -30 18.5 -49t50.5 -19zM240 -133q52 0 86.5 18.5t34.5 48.5q0 54 -108 54q-45 0 -75.5 -20t-30.5 -48 q0 -26 25.5 -39.5t67.5 -13.5zM415 728h109q-11 -76 -56.5 -118.5t-122.5 -42.5t-109 42.5t-19 118.5h109q-5 -29 4 -45t31 -16q46 0 54 61z" />
<glyph d="M234 120q0 -13 22.5 -20t77.5 -15q92 -12 135 -41t43 -85q0 -86 -81.5 -136t-209.5 -50q-100 0 -160 31t-60 88q0 46 41.5 81.5t103.5 48.5q-28 4 -45 20t-17 40q0 27 24.5 50.5t68.5 37.5q-44 18 -69 54.5t-25 83.5q0 90 73.5 148t174.5 58q47 0 84 -14h185l-17 -106 h-58q-9 0 -15 1.5t-7 1.5q14 -22 14 -52q0 -73 -58 -125.5t-144 -63.5q-81 -13 -81 -36zM289 248q42 0 69 26.5t27 65.5q0 31 -19 50t-51 19q-41 0 -68 -27t-27 -66q0 -30 18.5 -49t50.5 -19zM240 -133q52 0 86.5 18.5t34.5 48.5q0 54 -108 54q-45 0 -75.5 -20t-30.5 -48 q0 -26 25.5 -39.5t67.5 -13.5zM173 561l123 173h153l68 -173h-125l-32 95l-62 -95h-125z" />
<glyph d="M234 120q0 -13 22.5 -20t77.5 -15q92 -12 135 -41t43 -85q0 -86 -81.5 -136t-209.5 -50q-100 0 -160 31t-60 88q0 46 41.5 81.5t103.5 48.5q-28 4 -45 20t-17 40q0 27 24.5 50.5t68.5 37.5q-44 18 -69 54.5t-25 83.5q0 90 73.5 148t174.5 58q47 0 84 -14h185l-17 -106 h-58q-9 0 -15 1.5t-7 1.5q14 -22 14 -52q0 -73 -58 -125.5t-144 -63.5q-81 -13 -81 -36zM289 248q42 0 69 26.5t27 65.5q0 31 -19 50t-51 19q-41 0 -68 -27t-27 -66q0 -30 18.5 -49t50.5 -19zM240 -133q52 0 86.5 18.5t34.5 48.5q0 54 -108 54q-45 0 -75.5 -20t-30.5 -48 q0 -26 25.5 -39.5t67.5 -13.5zM258 557l102 180h115l-66 -180h-151z" />
<glyph d="M234 120q0 -13 22.5 -20t77.5 -15q92 -12 135 -41t43 -85q0 -86 -81.5 -136t-209.5 -50q-100 0 -160 31t-60 88q0 46 41.5 81.5t103.5 48.5q-28 4 -45 20t-17 40q0 27 24.5 50.5t68.5 37.5q-44 18 -69 54.5t-25 83.5q0 90 73.5 148t174.5 58q47 0 84 -14h185l-17 -106 h-58q-9 0 -15 1.5t-7 1.5q14 -22 14 -52q0 -73 -58 -125.5t-144 -63.5q-81 -13 -81 -36zM289 248q42 0 69 26.5t27 65.5q0 31 -19 50t-51 19q-41 0 -68 -27t-27 -66q0 -30 18.5 -49t50.5 -19zM240 -133q52 0 86.5 18.5t34.5 48.5q0 54 -108 54q-45 0 -75.5 -20t-30.5 -48 q0 -26 25.5 -39.5t67.5 -13.5zM274 630q0 42 27 68t70 26q33 0 52 -18t19 -50q0 -41 -27.5 -67t-69.5 -26q-33 0 -52 18.5t-19 48.5z" />
<glyph horiz-adv-x="656" d="M182 -220h-147l112 708q16 99 98 172.5t215 73.5q86 0 140.5 -44t54.5 -113q0 -39 -19.5 -73t-46.5 -56.5t-54.5 -40.5t-47 -34.5t-19.5 -30.5t13 -23t49 -24q71 -32 102 -59.5t31 -77.5q0 -81 -62 -126.5t-165 -45.5q-91 0 -153 33l21 131q31 -19 73 -32.5t75 -13.5 q30 0 51 10.5t21 32.5q0 11 -9 20t-19.5 14t-36.5 16q-5 2 -7 3q-63 26 -92 50.5t-29 70.5q0 33 18 61t44.5 48t52.5 38t44 39.5t18 44.5q0 26 -18.5 41t-51.5 15q-58 0 -97 -34.5t-48 -93.5z" />
<glyph horiz-adv-x="355" d="M345 764l59 -203h-121l-122 203h184z" />
<glyph horiz-adv-x="548" d="M129 561l94 192h163l-134 -192h-123zM322 561l133 192h172l-180 -192h-125z" />
<glyph horiz-adv-x="290" d="M149 500h150l-79 -500h-150zM163 630q0 42 27 68t70 26q33 0 52 -18t19 -50q0 -41 -27.5 -67t-69.5 -26q-33 0 -52 18.5t-19 48.5z" />
<glyph horiz-adv-x="290" d="M149 500h150l-114 -720h-150zM163 630q0 42 27 68t70 26q33 0 52 -18t19 -50q0 -41 -27.5 -67t-69.5 -26q-33 0 -52 18.5t-19 48.5z" />
<glyph horiz-adv-x="290" d="M149 500h150l-114 -720h-150zM62 561l122 173h154l68 -173h-125l-32 95l-62 -95h-125z" />
<glyph horiz-adv-x="581" d="M646 500l-217 -247l138 -253h-170l-126 253l205 247h170zM184 720h150l-114 -720h-150z" />
<glyph horiz-adv-x="559" d="M646 500l-177 -208l-42 -41q28 -87 62.5 -153.5t83.5 -119.5t116 -80.5t150 -27.5q67 0 148 19l-20 -130q-79 -27 -167 -27q-102 0 -183.5 33t-145 101t-111.5 162t-89 225l205 247h170zM184 720h150l-114 -720h-150z" />
<glyph horiz-adv-x="583" d="M638 500l-203 -213l135 -287h-169l-92 211l-70 -69l-22 -142h-147l114 720h150l-68 -427l199 207h173z" />
<glyph horiz-adv-x="578" d="M643 500l-204 -207q25 -82 50 -141.5t60.5 -115.5t77.5 -90.5t100.5 -55t130.5 -20.5q65 0 144 19l-20 -130q-79 -27 -168 -27q-368 0 -497 483l-79 -83l-21 -132h-147l114 720h147l-67 -424l202 204h177z" />
<glyph horiz-adv-x="578" d="M646 500l-217 -247l138 -253h-170l-126 253l205 247h170zM184 720h150l-114 -720h-150zM373 -54l-101 -180h-115l65 180h151z" />
<glyph horiz-adv-x="583" d="M638 500l-203 -213l135 -287h-169l-92 211l-70 -69l-22 -142h-147l114 720h150l-68 -427l199 207h173zM275 -234l101 180h-151l-65 -180h115z" />
<glyph horiz-adv-x="552" d="M643 500l-204 -207q25 -82 50 -141.5t60.5 -115.5t77.5 -90.5t100.5 -55t130.5 -20.5q65 0 144 19l-20 -130q-79 -27 -168 -27q-368 0 -497 483l-79 -83l-21 -132h-147l114 720h147l-67 -424l202 204h177zM325 -54l-101 -180h-115l65 180h151z" />
<glyph horiz-adv-x="285" d="M182 720h149l-114 -720h-149z" />
<glyph horiz-adv-x="285" d="M182 720h149l-114 -720h-149zM196 765l112 173h189l-171 -173h-130z" />
<glyph horiz-adv-x="436" d="M182 720h149l-114 -720h-149zM357 412l48 304h136l-48 -304h-136z" />
<glyph horiz-adv-x="285" d="M182 720h149l-114 -720h-149zM210 -54l-101 -180h-116l65 180h152z" />
<glyph horiz-adv-x="442" d="M182 720h149l-114 -720h-149zM335 341q0 42 26.5 67.5t70.5 25.5q33 0 52 -18t19 -49q0 -42 -27 -67.5t-70 -25.5q-33 0 -52 18t-19 49z" />
<glyph horiz-adv-x="304" d="M192 720h149l-40 -254l83 50l-14 -85l-83 -50l-60 -381h-149l45 282l-84 -50l13 85l84 50z" />
<glyph horiz-adv-x="424" d="M135 601l18 112h345l-18 -112h-345z" />
<glyph horiz-adv-x="834" d="M170 720h168l-48 -303h76l-13 -81h-249l13 81h77l35 221h-72zM552 283l14 89q44 25 110 25q62 0 98.5 -31.5t36.5 -83.5q0 -95 -157 -196h144l-14 -86h-282l12 76q53 35 83.5 56t61.5 50t40 52q8 22 5 38q-3 18 -19 28t-40 10q-47 0 -93 -27zM100 0l627 720h89l-627 -720 h-89z" />
<glyph horiz-adv-x="790" d="M170 720h168l-48 -303h76l-13 -81h-249l13 81h77l35 221h-72zM697 0h-89l11 69h-181l11 69l163 251h99l-155 -240h83l15 97h82l-15 -97h48l-13 -80h-48zM100 0l627 720h89l-627 -720h-89z" />
<glyph horiz-adv-x="321" d="M143 643q0 54 40.5 86.5t98.5 32.5q46 0 75 -24.5t29 -66.5q0 -54 -40.5 -86.5t-97.5 -32.5q-46 0 -75.5 24.5t-29.5 66.5zM227 651q0 -13 8.5 -21.5t23.5 -8.5q19 0 31.5 12t12.5 29q0 13 -9 21.5t-23 8.5q-19 0 -31.5 -12t-12.5 -29z" />
<glyph horiz-adv-x="319" d="M142 626q0 53 38.5 83.5t96.5 30.5q46 0 74.5 -22.5t28.5 -62.5q0 -53 -38.5 -83.5t-95.5 -30.5q-47 0 -75.5 22.5t-28.5 62.5zM227 636q0 -27 29 -27q17 0 28 10.5t11 25.5q0 11 -8 18.5t-21 7.5q-18 0 -28.5 -10t-10.5 -25z" />
<glyph horiz-adv-x="314" d="M140 626q0 53 38.5 83.5t95.5 30.5q47 0 75 -22.5t28 -62.5q0 -53 -38 -83.5t-96 -30.5q-46 0 -74.5 22.5t-28.5 62.5zM225 636q0 -27 28 -27q18 0 28.5 10.5t10.5 25.5q0 26 -29 26q-17 0 -27.5 -10t-10.5 -25z" />
<glyph horiz-adv-x="520" d="M212 0h-157l366 590h-315l21 130h472l-19 -120z" />
<glyph horiz-adv-x="364" d="M89 500h95l27 170h149l-27 -170h102l-18 -117h-102l-61 -383h-149l61 383h-95z" />
<glyph horiz-adv-x="364" d="M89 500h95l27 170h149l-27 -170h102l-18 -117h-102l-13 -81h95l-15 -96h-95l-33 -206h-149l33 206h-88l15 96h88l13 81h-95z" />
<glyph horiz-adv-x="443" d="M393 551l47 296h137l-47 -296h-137zM89 500h95l27 170h149l-27 -170h102l-18 -117h-102l-61 -383h-149l61 383h-95z" />
<glyph horiz-adv-x="364" d="M89 500h95l27 170h149l-27 -170h102l-18 -117h-102l-61 -383h-149l61 383h-95zM247 -54l-101 -180h-115l65 180h151z" />
<glyph horiz-adv-x="814" d="M304 616q0 34 -57 34q-43 0 -90 -19l13 82q54 21 105 21q60 0 95 -27t35 -71q0 -66 -81 -102q58 -23 58 -81q0 -59 -48.5 -94t-123.5 -35q-64 0 -104 22l13 81q43 -19 98 -19q31 0 49 13t18 34q0 43 -76 43h-21l11 72h24q35 0 58.5 12.5t23.5 33.5zM702 0h-90l11 69h-181 l11 69l163 251h100l-155 -240h82l15 96h83l-15 -96h48l-13 -82h-48zM102 0l627 720h89l-627 -720h-89z" />
<glyph horiz-adv-x="426" d="M251 731q28 0 78 -16.5t76 -16.5q55 0 98 38l-18 -114q-13 -15 -41.5 -26.5t-59.5 -11.5q-28 0 -78 16.5t-75 16.5q-56 0 -99 -38l18 113q14 16 42 27.5t59 11.5z" />
<glyph horiz-adv-x="533" d="M121 551l23 143q70 40 175 40q111 0 173 -57.5t62 -152.5q0 -47 -20 -95t-46.5 -84t-73.5 -78.5t-80 -68t-87 -63.5h275l-21 -135h-479l19 122q21 16 61 46t57 42.5t48 36.5t44.5 36l36 32t33.5 33t24.5 30t21 32t13.5 32q14 40 10 72q-3 37 -32 58t-80 21 q-84 0 -157 -42z" />
<glyph horiz-adv-x="329" d="M123 613l15 94q44 27 111 27q63 0 98.5 -31t35.5 -83q0 -94 -148 -192h137l-15 -91h-283l13 81q62 39 93.5 61t62.5 54.5t31 58.5q0 23 -15.5 36t-41.5 13q-43 0 -94 -28z" />
<glyph horiz-adv-x="602" d="M621 500l-43 -274q-19 -115 -91 -177.5t-188 -62.5t-169.5 62.5t-34.5 177.5l43 274h150l-36 -227q-12 -80 1.5 -117t66.5 -37q52 0 77.5 37.5t37.5 116.5l36 227h150z" />
<glyph horiz-adv-x="602" d="M621 500l-43 -274q-19 -115 -91 -177.5t-188 -62.5t-169.5 62.5t-34.5 177.5l43 274h150l-36 -227q-12 -80 1.5 -117t66.5 -37q52 0 77.5 37.5t37.5 116.5l36 227h150zM309 561l111 173h190l-170 -173h-131z" />
<glyph horiz-adv-x="602" d="M621 500l-43 -274q-19 -115 -91 -177.5t-188 -62.5t-169.5 62.5t-34.5 177.5l43 274h150l-36 -227q-12 -80 1.5 -117t66.5 -37q52 0 77.5 37.5t37.5 116.5l36 227h150zM459 728h108q-10 -76 -55.5 -118.5t-122.5 -42.5t-109 42.5t-19 118.5h108q-5 -28 4.5 -44.5 t31.5 -16.5t36 16t18 45z" />
<glyph horiz-adv-x="602" d="M621 500l-43 -274q-19 -115 -91 -177.5t-188 -62.5t-169.5 62.5t-34.5 177.5l43 274h150l-36 -227q-12 -80 1.5 -117t66.5 -37q52 0 77.5 37.5t37.5 116.5l36 227h150zM219 561l122 173h154l68 -173h-125l-32 95l-62 -95h-125z" />
<glyph horiz-adv-x="602" d="M621 500l-43 -274q-19 -115 -91 -177.5t-188 -62.5t-169.5 62.5t-34.5 177.5l43 274h150l-36 -227q-12 -80 1.5 -117t66.5 -37q52 0 77.5 37.5t37.5 116.5l36 227h150zM209 630q0 42 27 68t70 26q33 0 52 -18t19 -50q0 -41 -27.5 -67t-69.5 -26q-33 0 -52 18.5t-19 48.5z M432 630q0 42 26.5 68t69.5 26q33 0 52 -18t19 -49q0 -42 -27 -68t-70 -26q-33 0 -51.5 18.5t-18.5 48.5z" />
<glyph horiz-adv-x="602" d="M621 500l-43 -274q-19 -115 -91 -177.5t-188 -62.5t-169.5 62.5t-34.5 177.5l43 274h150l-36 -227q-12 -80 1.5 -117t66.5 -37q52 0 77.5 37.5t37.5 116.5l36 227h150zM410 734l57 -173h-130l-116 173h189z" />
<glyph horiz-adv-x="614" d="M621 500l-43 -274q-19 -115 -91 -177.5t-188 -62.5t-169.5 62.5t-34.5 177.5l43 274h150l-36 -227q-12 -80 1.5 -117t66.5 -37q52 0 77.5 37.5t37.5 116.5l36 227h150zM224 561l92 173h162l-131 -173h-123zM417 561l130 173h172l-176 -173h-126z" />
<glyph horiz-adv-x="602" d="M621 500l-43 -274q-19 -115 -91 -177.5t-188 -62.5t-169.5 62.5t-34.5 177.5l43 274h150l-36 -227q-12 -80 1.5 -117t66.5 -37q52 0 77.5 37.5t37.5 116.5l36 227h150zM230 589l18 109h329l-18 -109h-329z" />
<glyph horiz-adv-x="364" d="M89 500h95l27 170h149l-27 -170h102l-18 -117h-102l-61 -383h-48l-24 -47q33 -3 58.5 -23.5t25.5 -57.5q0 -51 -41.5 -78.5t-107.5 -27.5q-44 0 -68 9l14 85q21 -7 42 -7q19 0 35 8.5t16 24.5q0 18 -21 24t-51 2l50 88h-29l61 383h-95z" />
<glyph horiz-adv-x="602" d="M621 500l-43 -274q-29 -179 -181 -226q-45 -27 -70 -56.5t-25 -55.5q0 -31 35 -31q21 0 47 8l-14 -89q-30 -10 -68 -10q-53 0 -85.5 22t-32.5 65q0 72 111 133q-114 2 -166 63.5t-34 176.5l43 274h150l-36 -227q-12 -80 1.5 -117t66.5 -37q52 0 77.5 37.5t37.5 116.5 l36 227h150z" />
<glyph horiz-adv-x="602" d="M621 500l-43 -274q-19 -115 -91 -177.5t-188 -62.5t-169.5 62.5t-34.5 177.5l43 274h150l-36 -227q-12 -80 1.5 -117t66.5 -37q52 0 77.5 37.5t37.5 116.5l36 227h150zM279 628q0 55 40 86.5t99 31.5q48 0 76.5 -23t28.5 -65q0 -54 -39 -85.5t-98 -31.5q-48 0 -77.5 23 t-29.5 64zM364 638q0 -13 8.5 -21t23.5 -8q19 0 30.5 11.5t11.5 28.5q0 29 -31 29q-19 0 -31 -11.5t-12 -28.5z" />
<glyph horiz-adv-x="602" d="M621 500l-43 -274q-19 -115 -91 -177.5t-188 -62.5t-169.5 62.5t-34.5 177.5l43 274h150l-36 -227q-12 -80 1.5 -117t66.5 -37q52 0 77.5 37.5t37.5 116.5l36 227h150zM339 719q29 0 77.5 -16.5t74.5 -16.5q53 0 98 38l-18 -110q-13 -15 -41.5 -27t-59.5 -12 q-28 0 -76.5 17t-74.5 17q-53 0 -99 -39l18 111q14 15 42 26.5t59 11.5z" />
<glyph horiz-adv-x="516" d="M454 500h155l-278 -506h-148l-118 506h155l31 -168q12 -49 32 -174q7 14 39 78.5t49 95.5z" />
<glyph horiz-adv-x="797" d="M733 500h153l-254 -506h-148q-27 202 -39 301q-26 -64 -134 -301h-147l-95 506h153l25 -158q13 -82 23 -189q13 30 72.5 171t75.5 176h119q4 -33 13.5 -111t15.5 -136.5t9 -99.5q6 12 37 84.5t46 104.5z" />
<glyph horiz-adv-x="797" d="M733 500h153l-254 -506h-148q-27 202 -39 301q-26 -64 -134 -301h-147l-95 506h153l25 -158q13 -82 23 -189q13 30 72.5 171t75.5 176h119q4 -33 13.5 -111t15.5 -136.5t9 -99.5q6 12 37 84.5t46 104.5zM421 561l111 173h189l-170 -173h-130z" />
<glyph horiz-adv-x="797" d="M314 561l123 173h153l68 -173h-125l-31 95l-63 -95h-125zM733 500h153l-254 -506h-148q-27 202 -39 301q-26 -64 -134 -301h-147l-95 506h153l25 -158q13 -82 23 -189q13 30 72.5 171t75.5 176h119q4 -33 13.5 -111t15.5 -136.5t9 -99.5q6 12 37 84.5t46 104.5z" />
<glyph horiz-adv-x="797" d="M305 630q0 42 27 68t70 26q33 0 52 -18t19 -50q0 -41 -27.5 -67t-69.5 -26q-33 0 -52 18.5t-19 48.5zM528 630q0 42 26.5 68t69.5 26q33 0 52 -18t19 -49q0 -42 -27 -68t-70 -26q-33 0 -51.5 18.5t-18.5 48.5zM733 500h153l-254 -506h-148q-27 202 -39 301 q-26 -64 -134 -301h-147l-95 506h153l25 -158q13 -82 23 -189q13 30 72.5 171t75.5 176h119q4 -33 13.5 -111t15.5 -136.5t9 -99.5q6 12 37 84.5t46 104.5z" />
<glyph horiz-adv-x="797" d="M492 734l57 -173h-130l-117 173h190zM733 500h153l-254 -506h-148q-27 202 -39 301q-26 -64 -134 -301h-147l-95 506h153l25 -158q13 -82 23 -189q13 30 72.5 171t75.5 176h119q4 -33 13.5 -111t15.5 -136.5t9 -99.5q6 12 37 84.5t46 104.5z" />
<glyph horiz-adv-x="533" d="M606 500l-184 -216l-29 -34q31 -72 58.5 -124t64.5 -103t77 -82.5t92.5 -51t114.5 -19.5q86 0 141 19l-21 -134q-58 -23 -146 -23q-90 0 -164.5 28t-133.5 83t-105 125.5t-90 167.5l-112 -136h-165l204 239l-120 261h167l60 -159l120 159h171z" />
<glyph horiz-adv-x="548" d="M238 -221h-151l116 212l-131 509h164l29 -169q25 -144 31 -191q10 19 44.5 94t46.5 97l84 169h162z" />
<glyph horiz-adv-x="523" d="M461 500h157l-276 -464l-41 -256h-150l41 256l-130 464h157l40 -161q5 -22 31 -158q6 10 37 71.5t45 86.5z" />
<glyph horiz-adv-x="548" d="M238 -221h-151l116 212l-131 509h164l29 -169q25 -144 31 -191q10 19 44.5 94t46.5 97l84 169h162zM292 561l112 173h189l-170 -173h-131z" />
<glyph horiz-adv-x="548" d="M238 -221h-151l116 212l-131 509h164l29 -169q25 -144 31 -191q10 19 44.5 94t46.5 97l84 169h162zM191 561l123 173h153l68 -173h-125l-32 95l-62 -95h-125z" />
<glyph horiz-adv-x="548" d="M238 -221h-151l116 212l-131 509h164l29 -169q25 -144 31 -191q10 19 44.5 94t46.5 97l84 169h162zM180 631q0 42 27 67.5t70 25.5q33 0 52 -18t19 -49q0 -42 -27 -68t-70 -26q-33 0 -52 18.5t-19 49.5zM404 630q0 42 26.5 68t69.5 26q33 0 52 -18t19 -49q0 -42 -27 -68 t-70 -26q-33 0 -51.5 18.5t-18.5 48.5z" />
<glyph horiz-adv-x="548" d="M238 -221h-151l116 212l-131 509h164l29 -169q25 -144 31 -191q10 19 44.5 94t46.5 97l84 169h162zM374 734l57 -173h-130l-117 173h190z" />
<glyph horiz-adv-x="459" d="M458 120l-19 -120h-404l18 114l269 266h-220l19 120h378l-18 -114l-270 -266h247z" />
<glyph horiz-adv-x="470" d="M149 -8h-140l305 390h-213l18 118h425l-264 -340q33 -8 57 -38q41 -47 68 -75.5t70 -66.5t81 -59t88 -36t103 -15q122 0 205 39l-22 -135q-73 -42 -200 -42q-146 0 -255 67t-219 202q-13 16 -20.5 24t-19.5 15t-24 7z" />
<glyph horiz-adv-x="468" d="M149 -8h-142l327 390h-233l18 118h385l-17 -110l-203 -230q35 -11 57 -38q53 -61 86.5 -95.5t86.5 -76t110.5 -61t122.5 -19.5q122 0 205 39l-22 -135q-73 -42 -200 -42q-146 0 -253 66.5t-218 202.5q-13 16 -20.5 24t-19.5 15t-24 7z" />
<glyph horiz-adv-x="464" d="M458 120l-19 -120h-404l18 114l269 266h-220l19 120h378l-18 -114l-270 -266h247zM242 561l112 173h189l-170 -173h-131z" />
<glyph horiz-adv-x="476" d="M149 -8h-140l305 390h-213l18 118h425l-264 -340q33 -8 57 -38q41 -47 68 -75.5t70 -66.5t81 -59t88 -36t103 -15q122 0 205 39l-22 -135q-73 -42 -200 -42q-146 0 -255 67t-219 202q-13 16 -20.5 24t-19.5 15t-24 7zM266 561l111 173h189l-169 -173h-131z" />
<glyph horiz-adv-x="476" d="M149 -8h-142l327 390h-233l18 118h385l-17 -110l-203 -230q35 -11 57 -38q53 -61 86.5 -95.5t86.5 -76t110.5 -61t122.5 -19.5q122 0 205 39l-22 -135q-73 -42 -200 -42q-146 0 -253 66.5t-218 202.5q-13 16 -20.5 24t-19.5 15t-24 7zM255 561l112 173h189l-170 -173 h-131z" />
<glyph horiz-adv-x="459" d="M520 734l-122 -173h-154l-68 173h125l32 -95l62 95h125zM458 120l-19 -120h-404l18 114l269 266h-220l19 120h378l-18 -114l-270 -266h247z" />
<glyph horiz-adv-x="476" d="M149 -8h-140l305 390h-213l18 118h425l-264 -340q33 -8 57 -38q41 -47 68 -75.5t70 -66.5t81 -59t88 -36t103 -15q122 0 205 39l-22 -135q-73 -42 -200 -42q-146 0 -255 67t-219 202q-13 16 -20.5 24t-19.5 15t-24 7zM537 734l-122 -173h-154l-68 173h125l32 -95l62 95 h125z" />
<glyph horiz-adv-x="476" d="M149 -8h-142l327 390h-233l18 118h385l-17 -110l-203 -230q35 -11 57 -38q53 -61 86.5 -95.5t86.5 -76t110.5 -61t122.5 -19.5q122 0 205 39l-22 -135q-73 -42 -200 -42q-146 0 -253 66.5t-218 202.5q-13 16 -20.5 24t-19.5 15t-24 7zM524 734l-122 -173h-153l-69 173 h125l32 -95l62 95h125z" />
<glyph horiz-adv-x="459" d="M248 630q0 42 27 68t70 26q33 0 52 -18t19 -50q0 -41 -27.5 -67t-69.5 -26q-33 0 -52 18.5t-19 48.5zM458 120l-19 -120h-404l18 114l269 266h-220l19 120h378l-18 -114l-270 -266h247z" />
<glyph horiz-adv-x="476" d="M149 -8h-140l305 390h-213l18 118h425l-264 -340q33 -8 57 -38q41 -47 68 -75.5t70 -66.5t81 -59t88 -36t103 -15q122 0 205 39l-22 -135q-73 -42 -200 -42q-146 0 -255 67t-219 202q-13 16 -20.5 24t-19.5 15t-24 7zM266 630q0 42 27 68t70 26q33 0 52 -18t19 -50 q0 -41 -27.5 -67t-69.5 -26q-33 0 -52 18.5t-19 48.5z" />
<glyph horiz-adv-x="476" d="M149 -8h-142l327 390h-233l18 118h385l-17 -110l-203 -230q35 -11 57 -38q53 -61 86.5 -95.5t86.5 -76t110.5 -61t122.5 -19.5q122 0 205 39l-22 -135q-73 -42 -200 -42q-146 0 -253 66.5t-218 202.5q-13 16 -20.5 24t-19.5 15t-24 7zM250 630q0 42 27 68t70 26 q33 0 52 -18t19 -50q0 -41 -27.5 -67t-69.5 -26q-33 0 -52 18.5t-19 48.5z" />
<glyph horiz-adv-x="662" d="M94 290q0 119 46 220.5t129 162.5t184 61q79 0 137 -42l79 108h84l-115 -157q55 -78 55 -214q0 -118 -46 -219.5t-129 -162.5t-183 -61q-85 0 -145 47l-83 -113h-83l120 164q-50 76 -50 206zM537 420q0 50 -6 78l-248 -338q28 -33 74 -33q79 0 129.5 85.5t50.5 207.5z M250 299q0 -45 4 -66l244 333q-27 27 -67 27q-79 0 -130 -85.5t-51 -208.5z" />
</font>
</defs>
</svg>
